# SpaceGamble inverted pyramid hologram
mtllib SpaceGamble_TableHologram.mtl
o ProjectorHousing
g ProjectorHousing
usemtl MAT_ProjectorHousing
v 0.000000 0.000000 0.000000
v 0.000000 0.000000 -0.170000
v 0.000000 0.036000 -0.170000
v 0.000000 0.036000 0.000000
v -0.022189 0.000000 -0.168546
v -0.022189 0.036000 -0.168546
v -0.043999 0.000000 -0.164207
v -0.043999 0.036000 -0.164207
v -0.065056 0.000000 -0.157060
v -0.065056 0.036000 -0.157060
v -0.085000 0.000000 -0.147224
v -0.085000 0.036000 -0.147224
v -0.103489 0.000000 -0.134870
v -0.103489 0.036000 -0.134870
v -0.120208 0.000000 -0.120208
v -0.120208 0.036000 -0.120208
v -0.134870 0.000000 -0.103489
v -0.134870 0.036000 -0.103489
v -0.147224 0.000000 -0.085000
v -0.147224 0.036000 -0.085000
v -0.157060 0.000000 -0.065056
v -0.157060 0.036000 -0.065056
v -0.164207 0.000000 -0.043999
v -0.164207 0.036000 -0.043999
v -0.168546 0.000000 -0.022189
v -0.168546 0.036000 -0.022189
v -0.170000 0.000000 -0.000000
v -0.170000 0.036000 -0.000000
v -0.168546 0.000000 0.022189
v -0.168546 0.036000 0.022189
v -0.164207 0.000000 0.043999
v -0.164207 0.036000 0.043999
v -0.157060 0.000000 0.065056
v -0.157060 0.036000 0.065056
v -0.147224 0.000000 0.085000
v -0.147224 0.036000 0.085000
v -0.134870 0.000000 0.103489
v -0.134870 0.036000 0.103489
v -0.120208 0.000000 0.120208
v -0.120208 0.036000 0.120208
v -0.103489 0.000000 0.134870
v -0.103489 0.036000 0.134870
v -0.085000 0.000000 0.147224
v -0.085000 0.036000 0.147224
v -0.065056 0.000000 0.157060
v -0.065056 0.036000 0.157060
v -0.043999 0.000000 0.164207
v -0.043999 0.036000 0.164207
v -0.022189 0.000000 0.168546
v -0.022189 0.036000 0.168546
v -0.000000 0.000000 0.170000
v -0.000000 0.036000 0.170000
v 0.022189 0.000000 0.168546
v 0.022189 0.036000 0.168546
v 0.043999 0.000000 0.164207
v 0.043999 0.036000 0.164207
v 0.065056 0.000000 0.157060
v 0.065056 0.036000 0.157060
v 0.085000 0.000000 0.147224
v 0.085000 0.036000 0.147224
v 0.103489 0.000000 0.134870
v 0.103489 0.036000 0.134870
v 0.120208 0.000000 0.120208
v 0.120208 0.036000 0.120208
v 0.134870 0.000000 0.103489
v 0.134870 0.036000 0.103489
v 0.147224 0.000000 0.085000
v 0.147224 0.036000 0.085000
v 0.157060 0.000000 0.065056
v 0.157060 0.036000 0.065056
v 0.164207 0.000000 0.043999
v 0.164207 0.036000 0.043999
v 0.168546 0.000000 0.022189
v 0.168546 0.036000 0.022189
v 0.170000 0.000000 0.000000
v 0.170000 0.036000 0.000000
v 0.168546 0.000000 -0.022189
v 0.168546 0.036000 -0.022189
v 0.164207 0.000000 -0.043999
v 0.164207 0.036000 -0.043999
v 0.157060 0.000000 -0.065056
v 0.157060 0.036000 -0.065056
v 0.147224 0.000000 -0.085000
v 0.147224 0.036000 -0.085000
v 0.134870 0.000000 -0.103489
v 0.134870 0.036000 -0.103489
v 0.120208 0.000000 -0.120208
v 0.120208 0.036000 -0.120208
v 0.103489 0.000000 -0.134870
v 0.103489 0.036000 -0.134870
v 0.085000 0.000000 -0.147224
v 0.085000 0.036000 -0.147224
v 0.065056 0.000000 -0.157060
v 0.065056 0.036000 -0.157060
v 0.043999 0.000000 -0.164207
v 0.043999 0.036000 -0.164207
v 0.022189 0.000000 -0.168546
v 0.022189 0.036000 -0.168546
f 2 1 5
f 2 5 3
f 3 5 6
f 3 6 4
f 5 1 7
f 5 7 6
f 6 7 8
f 6 8 4
f 7 1 9
f 7 9 8
f 8 9 10
f 8 10 4
f 9 1 11
f 9 11 10
f 10 11 12
f 10 12 4
f 11 1 13
f 11 13 12
f 12 13 14
f 12 14 4
f 13 1 15
f 13 15 14
f 14 15 16
f 14 16 4
f 15 1 17
f 15 17 16
f 16 17 18
f 16 18 4
f 17 1 19
f 17 19 18
f 18 19 20
f 18 20 4
f 19 1 21
f 19 21 20
f 20 21 22
f 20 22 4
f 21 1 23
f 21 23 22
f 22 23 24
f 22 24 4
f 23 1 25
f 23 25 24
f 24 25 26
f 24 26 4
f 25 1 27
f 25 27 26
f 26 27 28
f 26 28 4
f 27 1 29
f 27 29 28
f 28 29 30
f 28 30 4
f 29 1 31
f 29 31 30
f 30 31 32
f 30 32 4
f 31 1 33
f 31 33 32
f 32 33 34
f 32 34 4
f 33 1 35
f 33 35 34
f 34 35 36
f 34 36 4
f 35 1 37
f 35 37 36
f 36 37 38
f 36 38 4
f 37 1 39
f 37 39 38
f 38 39 40
f 38 40 4
f 39 1 41
f 39 41 40
f 40 41 42
f 40 42 4
f 41 1 43
f 41 43 42
f 42 43 44
f 42 44 4
f 43 1 45
f 43 45 44
f 44 45 46
f 44 46 4
f 45 1 47
f 45 47 46
f 46 47 48
f 46 48 4
f 47 1 49
f 47 49 48
f 48 49 50
f 48 50 4
f 49 1 51
f 49 51 50
f 50 51 52
f 50 52 4
f 51 1 53
f 51 53 52
f 52 53 54
f 52 54 4
f 53 1 55
f 53 55 54
f 54 55 56
f 54 56 4
f 55 1 57
f 55 57 56
f 56 57 58
f 56 58 4
f 57 1 59
f 57 59 58
f 58 59 60
f 58 60 4
f 59 1 61
f 59 61 60
f 60 61 62
f 60 62 4
f 61 1 63
f 61 63 62
f 62 63 64
f 62 64 4
f 63 1 65
f 63 65 64
f 64 65 66
f 64 66 4
f 65 1 67
f 65 67 66
f 66 67 68
f 66 68 4
f 67 1 69
f 67 69 68
f 68 69 70
f 68 70 4
f 69 1 71
f 69 71 70
f 70 71 72
f 70 72 4
f 71 1 73
f 71 73 72
f 72 73 74
f 72 74 4
f 73 1 75
f 73 75 74
f 74 75 76
f 74 76 4
f 75 1 77
f 75 77 76
f 76 77 78
f 76 78 4
f 77 1 79
f 77 79 78
f 78 79 80
f 78 80 4
f 79 1 81
f 79 81 80
f 80 81 82
f 80 82 4
f 81 1 83
f 81 83 82
f 82 83 84
f 82 84 4
f 83 1 85
f 83 85 84
f 84 85 86
f 84 86 4
f 85 1 87
f 85 87 86
f 86 87 88
f 86 88 4
f 87 1 89
f 87 89 88
f 88 89 90
f 88 90 4
f 89 1 91
f 89 91 90
f 90 91 92
f 90 92 4
f 91 1 93
f 91 93 92
f 92 93 94
f 92 94 4
f 93 1 95
f 93 95 94
f 94 95 96
f 94 96 4
f 95 1 97
f 95 97 96
f 96 97 98
f 96 98 4
f 97 1 2
f 97 2 98
f 98 2 3
f 98 3 4
o OuterEmitterRing
g OuterEmitterRing
usemtl MAT_OuterEmitterRing
v 0.147000 0.042000 0.000000
v 0.146045 0.044939 0.000000
v 0.143545 0.046755 0.000000
v 0.140455 0.046755 0.000000
v 0.137955 0.044939 0.000000
v 0.137000 0.042000 0.000000
v 0.137955 0.039061 0.000000
v 0.140455 0.037245 0.000000
v 0.143545 0.037245 0.000000
v 0.146045 0.039061 0.000000
v 0.146292 0.042000 0.014409
v 0.145342 0.044939 0.014315
v 0.142854 0.046755 0.014070
v 0.139779 0.046755 0.013767
v 0.137291 0.044939 0.013522
v 0.136340 0.042000 0.013428
v 0.137291 0.039061 0.013522
v 0.139779 0.037245 0.013767
v 0.142854 0.037245 0.014070
v 0.145342 0.039061 0.014315
v 0.144175 0.042000 0.028678
v 0.143239 0.044939 0.028492
v 0.140787 0.046755 0.028004
v 0.137756 0.046755 0.027401
v 0.135304 0.044939 0.026914
v 0.134368 0.042000 0.026727
v 0.135304 0.039061 0.026914
v 0.137756 0.037245 0.027401
v 0.140787 0.037245 0.028004
v 0.143239 0.039061 0.028492
v 0.140670 0.042000 0.042672
v 0.139756 0.044939 0.042395
v 0.137364 0.046755 0.041669
v 0.134407 0.046755 0.040772
v 0.132015 0.044939 0.040046
v 0.131101 0.042000 0.039769
v 0.132015 0.039061 0.040046
v 0.134407 0.037245 0.040772
v 0.137364 0.037245 0.041669
v 0.139756 0.039061 0.042395
v 0.135810 0.042000 0.056254
v 0.134928 0.044939 0.055889
v 0.132618 0.046755 0.054932
v 0.129763 0.046755 0.053750
v 0.127454 0.044939 0.052793
v 0.126571 0.042000 0.052428
v 0.127454 0.039061 0.052793
v 0.129763 0.037245 0.053750
v 0.132618 0.037245 0.054932
v 0.134928 0.039061 0.055889
v 0.129642 0.042000 0.069295
v 0.128800 0.044939 0.068845
v 0.126595 0.046755 0.067667
v 0.123870 0.046755 0.066210
v 0.121665 0.044939 0.065031
v 0.120823 0.042000 0.064581
v 0.121665 0.039061 0.065031
v 0.123870 0.037245 0.066210
v 0.126595 0.037245 0.067667
v 0.128800 0.039061 0.068845
v 0.122226 0.042000 0.081669
v 0.121432 0.044939 0.081138
v 0.119353 0.046755 0.079749
v 0.116784 0.046755 0.078033
v 0.114705 0.044939 0.076644
v 0.113911 0.042000 0.076113
v 0.114705 0.039061 0.076644
v 0.116784 0.037245 0.078033
v 0.119353 0.037245 0.079749
v 0.121432 0.039061 0.081138
v 0.113633 0.042000 0.093256
v 0.112894 0.044939 0.092650
v 0.110962 0.046755 0.091064
v 0.108573 0.046755 0.089104
v 0.106641 0.044939 0.087518
v 0.105902 0.042000 0.086912
v 0.106641 0.039061 0.087518
v 0.108573 0.037245 0.089104
v 0.110962 0.037245 0.091064
v 0.112894 0.039061 0.092650
v 0.103945 0.042000 0.103945
v 0.103269 0.044939 0.103269
v 0.101502 0.046755 0.101502
v 0.099317 0.046755 0.099317
v 0.097549 0.044939 0.097549
v 0.096874 0.042000 0.096874
v 0.097549 0.039061 0.097549
v 0.099317 0.037245 0.099317
v 0.101502 0.037245 0.101502
v 0.103269 0.039061 0.103269
v 0.093256 0.042000 0.113633
v 0.092650 0.044939 0.112894
v 0.091064 0.046755 0.110962
v 0.089104 0.046755 0.108573
v 0.087518 0.044939 0.106641
v 0.086912 0.042000 0.105902
v 0.087518 0.039061 0.106641
v 0.089104 0.037245 0.108573
v 0.091064 0.037245 0.110962
v 0.092650 0.039061 0.112894
v 0.081669 0.042000 0.122226
v 0.081138 0.044939 0.121432
v 0.079749 0.046755 0.119353
v 0.078033 0.046755 0.116784
v 0.076644 0.044939 0.114705
v 0.076113 0.042000 0.113911
v 0.076644 0.039061 0.114705
v 0.078033 0.037245 0.116784
v 0.079749 0.037245 0.119353
v 0.081138 0.039061 0.121432
v 0.069295 0.042000 0.129642
v 0.068845 0.044939 0.128800
v 0.067667 0.046755 0.126595
v 0.066210 0.046755 0.123870
v 0.065031 0.044939 0.121665
v 0.064581 0.042000 0.120823
v 0.065031 0.039061 0.121665
v 0.066210 0.037245 0.123870
v 0.067667 0.037245 0.126595
v 0.068845 0.039061 0.128800
v 0.056254 0.042000 0.135810
v 0.055889 0.044939 0.134928
v 0.054932 0.046755 0.132618
v 0.053750 0.046755 0.129763
v 0.052793 0.044939 0.127454
v 0.052428 0.042000 0.126571
v 0.052793 0.039061 0.127454
v 0.053750 0.037245 0.129763
v 0.054932 0.037245 0.132618
v 0.055889 0.039061 0.134928
v 0.042672 0.042000 0.140670
v 0.042395 0.044939 0.139756
v 0.041669 0.046755 0.137364
v 0.040772 0.046755 0.134407
v 0.040046 0.044939 0.132015
v 0.039769 0.042000 0.131101
v 0.040046 0.039061 0.132015
v 0.040772 0.037245 0.134407
v 0.041669 0.037245 0.137364
v 0.042395 0.039061 0.139756
v 0.028678 0.042000 0.144175
v 0.028492 0.044939 0.143239
v 0.028004 0.046755 0.140787
v 0.027401 0.046755 0.137756
v 0.026914 0.044939 0.135304
v 0.026727 0.042000 0.134368
v 0.026914 0.039061 0.135304
v 0.027401 0.037245 0.137756
v 0.028004 0.037245 0.140787
v 0.028492 0.039061 0.143239
v 0.014409 0.042000 0.146292
v 0.014315 0.044939 0.145342
v 0.014070 0.046755 0.142854
v 0.013767 0.046755 0.139779
v 0.013522 0.044939 0.137291
v 0.013428 0.042000 0.136340
v 0.013522 0.039061 0.137291
v 0.013767 0.037245 0.139779
v 0.014070 0.037245 0.142854
v 0.014315 0.039061 0.145342
v 0.000000 0.042000 0.147000
v 0.000000 0.044939 0.146045
v 0.000000 0.046755 0.143545
v 0.000000 0.046755 0.140455
v 0.000000 0.044939 0.137955
v 0.000000 0.042000 0.137000
v 0.000000 0.039061 0.137955
v 0.000000 0.037245 0.140455
v 0.000000 0.037245 0.143545
v 0.000000 0.039061 0.146045
v -0.014409 0.042000 0.146292
v -0.014315 0.044939 0.145342
v -0.014070 0.046755 0.142854
v -0.013767 0.046755 0.139779
v -0.013522 0.044939 0.137291
v -0.013428 0.042000 0.136340
v -0.013522 0.039061 0.137291
v -0.013767 0.037245 0.139779
v -0.014070 0.037245 0.142854
v -0.014315 0.039061 0.145342
v -0.028678 0.042000 0.144175
v -0.028492 0.044939 0.143239
v -0.028004 0.046755 0.140787
v -0.027401 0.046755 0.137756
v -0.026914 0.044939 0.135304
v -0.026727 0.042000 0.134368
v -0.026914 0.039061 0.135304
v -0.027401 0.037245 0.137756
v -0.028004 0.037245 0.140787
v -0.028492 0.039061 0.143239
v -0.042672 0.042000 0.140670
v -0.042395 0.044939 0.139756
v -0.041669 0.046755 0.137364
v -0.040772 0.046755 0.134407
v -0.040046 0.044939 0.132015
v -0.039769 0.042000 0.131101
v -0.040046 0.039061 0.132015
v -0.040772 0.037245 0.134407
v -0.041669 0.037245 0.137364
v -0.042395 0.039061 0.139756
v -0.056254 0.042000 0.135810
v -0.055889 0.044939 0.134928
v -0.054932 0.046755 0.132618
v -0.053750 0.046755 0.129763
v -0.052793 0.044939 0.127454
v -0.052428 0.042000 0.126571
v -0.052793 0.039061 0.127454
v -0.053750 0.037245 0.129763
v -0.054932 0.037245 0.132618
v -0.055889 0.039061 0.134928
v -0.069295 0.042000 0.129642
v -0.068845 0.044939 0.128800
v -0.067667 0.046755 0.126595
v -0.066210 0.046755 0.123870
v -0.065031 0.044939 0.121665
v -0.064581 0.042000 0.120823
v -0.065031 0.039061 0.121665
v -0.066210 0.037245 0.123870
v -0.067667 0.037245 0.126595
v -0.068845 0.039061 0.128800
v -0.081669 0.042000 0.122226
v -0.081138 0.044939 0.121432
v -0.079749 0.046755 0.119353
v -0.078033 0.046755 0.116784
v -0.076644 0.044939 0.114705
v -0.076113 0.042000 0.113911
v -0.076644 0.039061 0.114705
v -0.078033 0.037245 0.116784
v -0.079749 0.037245 0.119353
v -0.081138 0.039061 0.121432
v -0.093256 0.042000 0.113633
v -0.092650 0.044939 0.112894
v -0.091064 0.046755 0.110962
v -0.089104 0.046755 0.108573
v -0.087518 0.044939 0.106641
v -0.086912 0.042000 0.105902
v -0.087518 0.039061 0.106641
v -0.089104 0.037245 0.108573
v -0.091064 0.037245 0.110962
v -0.092650 0.039061 0.112894
v -0.103945 0.042000 0.103945
v -0.103269 0.044939 0.103269
v -0.101502 0.046755 0.101502
v -0.099317 0.046755 0.099317
v -0.097549 0.044939 0.097549
v -0.096874 0.042000 0.096874
v -0.097549 0.039061 0.097549
v -0.099317 0.037245 0.099317
v -0.101502 0.037245 0.101502
v -0.103269 0.039061 0.103269
v -0.113633 0.042000 0.093256
v -0.112894 0.044939 0.092650
v -0.110962 0.046755 0.091064
v -0.108573 0.046755 0.089104
v -0.106641 0.044939 0.087518
v -0.105902 0.042000 0.086912
v -0.106641 0.039061 0.087518
v -0.108573 0.037245 0.089104
v -0.110962 0.037245 0.091064
v -0.112894 0.039061 0.092650
v -0.122226 0.042000 0.081669
v -0.121432 0.044939 0.081138
v -0.119353 0.046755 0.079749
v -0.116784 0.046755 0.078033
v -0.114705 0.044939 0.076644
v -0.113911 0.042000 0.076113
v -0.114705 0.039061 0.076644
v -0.116784 0.037245 0.078033
v -0.119353 0.037245 0.079749
v -0.121432 0.039061 0.081138
v -0.129642 0.042000 0.069295
v -0.128800 0.044939 0.068845
v -0.126595 0.046755 0.067667
v -0.123870 0.046755 0.066210
v -0.121665 0.044939 0.065031
v -0.120823 0.042000 0.064581
v -0.121665 0.039061 0.065031
v -0.123870 0.037245 0.066210
v -0.126595 0.037245 0.067667
v -0.128800 0.039061 0.068845
v -0.135810 0.042000 0.056254
v -0.134928 0.044939 0.055889
v -0.132618 0.046755 0.054932
v -0.129763 0.046755 0.053750
v -0.127454 0.044939 0.052793
v -0.126571 0.042000 0.052428
v -0.127454 0.039061 0.052793
v -0.129763 0.037245 0.053750
v -0.132618 0.037245 0.054932
v -0.134928 0.039061 0.055889
v -0.140670 0.042000 0.042672
v -0.139756 0.044939 0.042395
v -0.137364 0.046755 0.041669
v -0.134407 0.046755 0.040772
v -0.132015 0.044939 0.040046
v -0.131101 0.042000 0.039769
v -0.132015 0.039061 0.040046
v -0.134407 0.037245 0.040772
v -0.137364 0.037245 0.041669
v -0.139756 0.039061 0.042395
v -0.144175 0.042000 0.028678
v -0.143239 0.044939 0.028492
v -0.140787 0.046755 0.028004
v -0.137756 0.046755 0.027401
v -0.135304 0.044939 0.026914
v -0.134368 0.042000 0.026727
v -0.135304 0.039061 0.026914
v -0.137756 0.037245 0.027401
v -0.140787 0.037245 0.028004
v -0.143239 0.039061 0.028492
v -0.146292 0.042000 0.014409
v -0.145342 0.044939 0.014315
v -0.142854 0.046755 0.014070
v -0.139779 0.046755 0.013767
v -0.137291 0.044939 0.013522
v -0.136340 0.042000 0.013428
v -0.137291 0.039061 0.013522
v -0.139779 0.037245 0.013767
v -0.142854 0.037245 0.014070
v -0.145342 0.039061 0.014315
v -0.147000 0.042000 0.000000
v -0.146045 0.044939 0.000000
v -0.143545 0.046755 0.000000
v -0.140455 0.046755 0.000000
v -0.137955 0.044939 0.000000
v -0.137000 0.042000 0.000000
v -0.137955 0.039061 0.000000
v -0.140455 0.037245 0.000000
v -0.143545 0.037245 0.000000
v -0.146045 0.039061 0.000000
v -0.146292 0.042000 -0.014409
v -0.145342 0.044939 -0.014315
v -0.142854 0.046755 -0.014070
v -0.139779 0.046755 -0.013767
v -0.137291 0.044939 -0.013522
v -0.136340 0.042000 -0.013428
v -0.137291 0.039061 -0.013522
v -0.139779 0.037245 -0.013767
v -0.142854 0.037245 -0.014070
v -0.145342 0.039061 -0.014315
v -0.144175 0.042000 -0.028678
v -0.143239 0.044939 -0.028492
v -0.140787 0.046755 -0.028004
v -0.137756 0.046755 -0.027401
v -0.135304 0.044939 -0.026914
v -0.134368 0.042000 -0.026727
v -0.135304 0.039061 -0.026914
v -0.137756 0.037245 -0.027401
v -0.140787 0.037245 -0.028004
v -0.143239 0.039061 -0.028492
v -0.140670 0.042000 -0.042672
v -0.139756 0.044939 -0.042395
v -0.137364 0.046755 -0.041669
v -0.134407 0.046755 -0.040772
v -0.132015 0.044939 -0.040046
v -0.131101 0.042000 -0.039769
v -0.132015 0.039061 -0.040046
v -0.134407 0.037245 -0.040772
v -0.137364 0.037245 -0.041669
v -0.139756 0.039061 -0.042395
v -0.135810 0.042000 -0.056254
v -0.134928 0.044939 -0.055889
v -0.132618 0.046755 -0.054932
v -0.129763 0.046755 -0.053750
v -0.127454 0.044939 -0.052793
v -0.126571 0.042000 -0.052428
v -0.127454 0.039061 -0.052793
v -0.129763 0.037245 -0.053750
v -0.132618 0.037245 -0.054932
v -0.134928 0.039061 -0.055889
v -0.129642 0.042000 -0.069295
v -0.128800 0.044939 -0.068845
v -0.126595 0.046755 -0.067667
v -0.123870 0.046755 -0.066210
v -0.121665 0.044939 -0.065031
v -0.120823 0.042000 -0.064581
v -0.121665 0.039061 -0.065031
v -0.123870 0.037245 -0.066210
v -0.126595 0.037245 -0.067667
v -0.128800 0.039061 -0.068845
v -0.122226 0.042000 -0.081669
v -0.121432 0.044939 -0.081138
v -0.119353 0.046755 -0.079749
v -0.116784 0.046755 -0.078033
v -0.114705 0.044939 -0.076644
v -0.113911 0.042000 -0.076113
v -0.114705 0.039061 -0.076644
v -0.116784 0.037245 -0.078033
v -0.119353 0.037245 -0.079749
v -0.121432 0.039061 -0.081138
v -0.113633 0.042000 -0.093256
v -0.112894 0.044939 -0.092650
v -0.110962 0.046755 -0.091064
v -0.108573 0.046755 -0.089104
v -0.106641 0.044939 -0.087518
v -0.105902 0.042000 -0.086912
v -0.106641 0.039061 -0.087518
v -0.108573 0.037245 -0.089104
v -0.110962 0.037245 -0.091064
v -0.112894 0.039061 -0.092650
v -0.103945 0.042000 -0.103945
v -0.103269 0.044939 -0.103269
v -0.101502 0.046755 -0.101502
v -0.099317 0.046755 -0.099317
v -0.097549 0.044939 -0.097549
v -0.096874 0.042000 -0.096874
v -0.097549 0.039061 -0.097549
v -0.099317 0.037245 -0.099317
v -0.101502 0.037245 -0.101502
v -0.103269 0.039061 -0.103269
v -0.093256 0.042000 -0.113633
v -0.092650 0.044939 -0.112894
v -0.091064 0.046755 -0.110962
v -0.089104 0.046755 -0.108573
v -0.087518 0.044939 -0.106641
v -0.086912 0.042000 -0.105902
v -0.087518 0.039061 -0.106641
v -0.089104 0.037245 -0.108573
v -0.091064 0.037245 -0.110962
v -0.092650 0.039061 -0.112894
v -0.081669 0.042000 -0.122226
v -0.081138 0.044939 -0.121432
v -0.079749 0.046755 -0.119353
v -0.078033 0.046755 -0.116784
v -0.076644 0.044939 -0.114705
v -0.076113 0.042000 -0.113911
v -0.076644 0.039061 -0.114705
v -0.078033 0.037245 -0.116784
v -0.079749 0.037245 -0.119353
v -0.081138 0.039061 -0.121432
v -0.069295 0.042000 -0.129642
v -0.068845 0.044939 -0.128800
v -0.067667 0.046755 -0.126595
v -0.066210 0.046755 -0.123870
v -0.065031 0.044939 -0.121665
v -0.064581 0.042000 -0.120823
v -0.065031 0.039061 -0.121665
v -0.066210 0.037245 -0.123870
v -0.067667 0.037245 -0.126595
v -0.068845 0.039061 -0.128800
v -0.056254 0.042000 -0.135810
v -0.055889 0.044939 -0.134928
v -0.054932 0.046755 -0.132618
v -0.053750 0.046755 -0.129763
v -0.052793 0.044939 -0.127454
v -0.052428 0.042000 -0.126571
v -0.052793 0.039061 -0.127454
v -0.053750 0.037245 -0.129763
v -0.054932 0.037245 -0.132618
v -0.055889 0.039061 -0.134928
v -0.042672 0.042000 -0.140670
v -0.042395 0.044939 -0.139756
v -0.041669 0.046755 -0.137364
v -0.040772 0.046755 -0.134407
v -0.040046 0.044939 -0.132015
v -0.039769 0.042000 -0.131101
v -0.040046 0.039061 -0.132015
v -0.040772 0.037245 -0.134407
v -0.041669 0.037245 -0.137364
v -0.042395 0.039061 -0.139756
v -0.028678 0.042000 -0.144175
v -0.028492 0.044939 -0.143239
v -0.028004 0.046755 -0.140787
v -0.027401 0.046755 -0.137756
v -0.026914 0.044939 -0.135304
v -0.026727 0.042000 -0.134368
v -0.026914 0.039061 -0.135304
v -0.027401 0.037245 -0.137756
v -0.028004 0.037245 -0.140787
v -0.028492 0.039061 -0.143239
v -0.014409 0.042000 -0.146292
v -0.014315 0.044939 -0.145342
v -0.014070 0.046755 -0.142854
v -0.013767 0.046755 -0.139779
v -0.013522 0.044939 -0.137291
v -0.013428 0.042000 -0.136340
v -0.013522 0.039061 -0.137291
v -0.013767 0.037245 -0.139779
v -0.014070 0.037245 -0.142854
v -0.014315 0.039061 -0.145342
v -0.000000 0.042000 -0.147000
v -0.000000 0.044939 -0.146045
v -0.000000 0.046755 -0.143545
v -0.000000 0.046755 -0.140455
v -0.000000 0.044939 -0.137955
v -0.000000 0.042000 -0.137000
v -0.000000 0.039061 -0.137955
v -0.000000 0.037245 -0.140455
v -0.000000 0.037245 -0.143545
v -0.000000 0.039061 -0.146045
v 0.014409 0.042000 -0.146292
v 0.014315 0.044939 -0.145342
v 0.014070 0.046755 -0.142854
v 0.013767 0.046755 -0.139779
v 0.013522 0.044939 -0.137291
v 0.013428 0.042000 -0.136340
v 0.013522 0.039061 -0.137291
v 0.013767 0.037245 -0.139779
v 0.014070 0.037245 -0.142854
v 0.014315 0.039061 -0.145342
v 0.028678 0.042000 -0.144175
v 0.028492 0.044939 -0.143239
v 0.028004 0.046755 -0.140787
v 0.027401 0.046755 -0.137756
v 0.026914 0.044939 -0.135304
v 0.026727 0.042000 -0.134368
v 0.026914 0.039061 -0.135304
v 0.027401 0.037245 -0.137756
v 0.028004 0.037245 -0.140787
v 0.028492 0.039061 -0.143239
v 0.042672 0.042000 -0.140670
v 0.042395 0.044939 -0.139756
v 0.041669 0.046755 -0.137364
v 0.040772 0.046755 -0.134407
v 0.040046 0.044939 -0.132015
v 0.039769 0.042000 -0.131101
v 0.040046 0.039061 -0.132015
v 0.040772 0.037245 -0.134407
v 0.041669 0.037245 -0.137364
v 0.042395 0.039061 -0.139756
v 0.056254 0.042000 -0.135810
v 0.055889 0.044939 -0.134928
v 0.054932 0.046755 -0.132618
v 0.053750 0.046755 -0.129763
v 0.052793 0.044939 -0.127454
v 0.052428 0.042000 -0.126571
v 0.052793 0.039061 -0.127454
v 0.053750 0.037245 -0.129763
v 0.054932 0.037245 -0.132618
v 0.055889 0.039061 -0.134928
v 0.069295 0.042000 -0.129642
v 0.068845 0.044939 -0.128800
v 0.067667 0.046755 -0.126595
v 0.066210 0.046755 -0.123870
v 0.065031 0.044939 -0.121665
v 0.064581 0.042000 -0.120823
v 0.065031 0.039061 -0.121665
v 0.066210 0.037245 -0.123870
v 0.067667 0.037245 -0.126595
v 0.068845 0.039061 -0.128800
v 0.081669 0.042000 -0.122226
v 0.081138 0.044939 -0.121432
v 0.079749 0.046755 -0.119353
v 0.078033 0.046755 -0.116784
v 0.076644 0.044939 -0.114705
v 0.076113 0.042000 -0.113911
v 0.076644 0.039061 -0.114705
v 0.078033 0.037245 -0.116784
v 0.079749 0.037245 -0.119353
v 0.081138 0.039061 -0.121432
v 0.093256 0.042000 -0.113633
v 0.092650 0.044939 -0.112894
v 0.091064 0.046755 -0.110962
v 0.089104 0.046755 -0.108573
v 0.087518 0.044939 -0.106641
v 0.086912 0.042000 -0.105902
v 0.087518 0.039061 -0.106641
v 0.089104 0.037245 -0.108573
v 0.091064 0.037245 -0.110962
v 0.092650 0.039061 -0.112894
v 0.103945 0.042000 -0.103945
v 0.103269 0.044939 -0.103269
v 0.101502 0.046755 -0.101502
v 0.099317 0.046755 -0.099317
v 0.097549 0.044939 -0.097549
v 0.096874 0.042000 -0.096874
v 0.097549 0.039061 -0.097549
v 0.099317 0.037245 -0.099317
v 0.101502 0.037245 -0.101502
v 0.103269 0.039061 -0.103269
v 0.113633 0.042000 -0.093256
v 0.112894 0.044939 -0.092650
v 0.110962 0.046755 -0.091064
v 0.108573 0.046755 -0.089104
v 0.106641 0.044939 -0.087518
v 0.105902 0.042000 -0.086912
v 0.106641 0.039061 -0.087518
v 0.108573 0.037245 -0.089104
v 0.110962 0.037245 -0.091064
v 0.112894 0.039061 -0.092650
v 0.122226 0.042000 -0.081669
v 0.121432 0.044939 -0.081138
v 0.119353 0.046755 -0.079749
v 0.116784 0.046755 -0.078033
v 0.114705 0.044939 -0.076644
v 0.113911 0.042000 -0.076113
v 0.114705 0.039061 -0.076644
v 0.116784 0.037245 -0.078033
v 0.119353 0.037245 -0.079749
v 0.121432 0.039061 -0.081138
v 0.129642 0.042000 -0.069295
v 0.128800 0.044939 -0.068845
v 0.126595 0.046755 -0.067667
v 0.123870 0.046755 -0.066210
v 0.121665 0.044939 -0.065031
v 0.120823 0.042000 -0.064581
v 0.121665 0.039061 -0.065031
v 0.123870 0.037245 -0.066210
v 0.126595 0.037245 -0.067667
v 0.128800 0.039061 -0.068845
v 0.135810 0.042000 -0.056254
v 0.134928 0.044939 -0.055889
v 0.132618 0.046755 -0.054932
v 0.129763 0.046755 -0.053750
v 0.127454 0.044939 -0.052793
v 0.126571 0.042000 -0.052428
v 0.127454 0.039061 -0.052793
v 0.129763 0.037245 -0.053750
v 0.132618 0.037245 -0.054932
v 0.134928 0.039061 -0.055889
v 0.140670 0.042000 -0.042672
v 0.139756 0.044939 -0.042395
v 0.137364 0.046755 -0.041669
v 0.134407 0.046755 -0.040772
v 0.132015 0.044939 -0.040046
v 0.131101 0.042000 -0.039769
v 0.132015 0.039061 -0.040046
v 0.134407 0.037245 -0.040772
v 0.137364 0.037245 -0.041669
v 0.139756 0.039061 -0.042395
v 0.144175 0.042000 -0.028678
v 0.143239 0.044939 -0.028492
v 0.140787 0.046755 -0.028004
v 0.137756 0.046755 -0.027401
v 0.135304 0.044939 -0.026914
v 0.134368 0.042000 -0.026727
v 0.135304 0.039061 -0.026914
v 0.137756 0.037245 -0.027401
v 0.140787 0.037245 -0.028004
v 0.143239 0.039061 -0.028492
v 0.146292 0.042000 -0.014409
v 0.145342 0.044939 -0.014315
v 0.142854 0.046755 -0.014070
v 0.139779 0.046755 -0.013767
v 0.137291 0.044939 -0.013522
v 0.136340 0.042000 -0.013428
v 0.137291 0.039061 -0.013522
v 0.139779 0.037245 -0.013767
v 0.142854 0.037245 -0.014070
v 0.145342 0.039061 -0.014315
f 99 100 109
f 109 100 110
f 100 101 110
f 110 101 111
f 101 102 111
f 111 102 112
f 102 103 112
f 112 103 113
f 103 104 113
f 113 104 114
f 104 105 114
f 114 105 115
f 105 106 115
f 115 106 116
f 106 107 116
f 116 107 117
f 107 108 117
f 117 108 118
f 108 99 118
f 118 99 109
f 109 110 119
f 119 110 120
f 110 111 120
f 120 111 121
f 111 112 121
f 121 112 122
f 112 113 122
f 122 113 123
f 113 114 123
f 123 114 124
f 114 115 124
f 124 115 125
f 115 116 125
f 125 116 126
f 116 117 126
f 126 117 127
f 117 118 127
f 127 118 128
f 118 109 128
f 128 109 119
f 119 120 129
f 129 120 130
f 120 121 130
f 130 121 131
f 121 122 131
f 131 122 132
f 122 123 132
f 132 123 133
f 123 124 133
f 133 124 134
f 124 125 134
f 134 125 135
f 125 126 135
f 135 126 136
f 126 127 136
f 136 127 137
f 127 128 137
f 137 128 138
f 128 119 138
f 138 119 129
f 129 130 139
f 139 130 140
f 130 131 140
f 140 131 141
f 131 132 141
f 141 132 142
f 132 133 142
f 142 133 143
f 133 134 143
f 143 134 144
f 134 135 144
f 144 135 145
f 135 136 145
f 145 136 146
f 136 137 146
f 146 137 147
f 137 138 147
f 147 138 148
f 138 129 148
f 148 129 139
f 139 140 149
f 149 140 150
f 140 141 150
f 150 141 151
f 141 142 151
f 151 142 152
f 142 143 152
f 152 143 153
f 143 144 153
f 153 144 154
f 144 145 154
f 154 145 155
f 145 146 155
f 155 146 156
f 146 147 156
f 156 147 157
f 147 148 157
f 157 148 158
f 148 139 158
f 158 139 149
f 149 150 159
f 159 150 160
f 150 151 160
f 160 151 161
f 151 152 161
f 161 152 162
f 152 153 162
f 162 153 163
f 153 154 163
f 163 154 164
f 154 155 164
f 164 155 165
f 155 156 165
f 165 156 166
f 156 157 166
f 166 157 167
f 157 158 167
f 167 158 168
f 158 149 168
f 168 149 159
f 159 160 169
f 169 160 170
f 160 161 170
f 170 161 171
f 161 162 171
f 171 162 172
f 162 163 172
f 172 163 173
f 163 164 173
f 173 164 174
f 164 165 174
f 174 165 175
f 165 166 175
f 175 166 176
f 166 167 176
f 176 167 177
f 167 168 177
f 177 168 178
f 168 159 178
f 178 159 169
f 169 170 179
f 179 170 180
f 170 171 180
f 180 171 181
f 171 172 181
f 181 172 182
f 172 173 182
f 182 173 183
f 173 174 183
f 183 174 184
f 174 175 184
f 184 175 185
f 175 176 185
f 185 176 186
f 176 177 186
f 186 177 187
f 177 178 187
f 187 178 188
f 178 169 188
f 188 169 179
f 179 180 189
f 189 180 190
f 180 181 190
f 190 181 191
f 181 182 191
f 191 182 192
f 182 183 192
f 192 183 193
f 183 184 193
f 193 184 194
f 184 185 194
f 194 185 195
f 185 186 195
f 195 186 196
f 186 187 196
f 196 187 197
f 187 188 197
f 197 188 198
f 188 179 198
f 198 179 189
f 189 190 199
f 199 190 200
f 190 191 200
f 200 191 201
f 191 192 201
f 201 192 202
f 192 193 202
f 202 193 203
f 193 194 203
f 203 194 204
f 194 195 204
f 204 195 205
f 195 196 205
f 205 196 206
f 196 197 206
f 206 197 207
f 197 198 207
f 207 198 208
f 198 189 208
f 208 189 199
f 199 200 209
f 209 200 210
f 200 201 210
f 210 201 211
f 201 202 211
f 211 202 212
f 202 203 212
f 212 203 213
f 203 204 213
f 213 204 214
f 204 205 214
f 214 205 215
f 205 206 215
f 215 206 216
f 206 207 216
f 216 207 217
f 207 208 217
f 217 208 218
f 208 199 218
f 218 199 209
f 209 210 219
f 219 210 220
f 210 211 220
f 220 211 221
f 211 212 221
f 221 212 222
f 212 213 222
f 222 213 223
f 213 214 223
f 223 214 224
f 214 215 224
f 224 215 225
f 215 216 225
f 225 216 226
f 216 217 226
f 226 217 227
f 217 218 227
f 227 218 228
f 218 209 228
f 228 209 219
f 219 220 229
f 229 220 230
f 220 221 230
f 230 221 231
f 221 222 231
f 231 222 232
f 222 223 232
f 232 223 233
f 223 224 233
f 233 224 234
f 224 225 234
f 234 225 235
f 225 226 235
f 235 226 236
f 226 227 236
f 236 227 237
f 227 228 237
f 237 228 238
f 228 219 238
f 238 219 229
f 229 230 239
f 239 230 240
f 230 231 240
f 240 231 241
f 231 232 241
f 241 232 242
f 232 233 242
f 242 233 243
f 233 234 243
f 243 234 244
f 234 235 244
f 244 235 245
f 235 236 245
f 245 236 246
f 236 237 246
f 246 237 247
f 237 238 247
f 247 238 248
f 238 229 248
f 248 229 239
f 239 240 249
f 249 240 250
f 240 241 250
f 250 241 251
f 241 242 251
f 251 242 252
f 242 243 252
f 252 243 253
f 243 244 253
f 253 244 254
f 244 245 254
f 254 245 255
f 245 246 255
f 255 246 256
f 246 247 256
f 256 247 257
f 247 248 257
f 257 248 258
f 248 239 258
f 258 239 249
f 249 250 259
f 259 250 260
f 250 251 260
f 260 251 261
f 251 252 261
f 261 252 262
f 252 253 262
f 262 253 263
f 253 254 263
f 263 254 264
f 254 255 264
f 264 255 265
f 255 256 265
f 265 256 266
f 256 257 266
f 266 257 267
f 257 258 267
f 267 258 268
f 258 249 268
f 268 249 259
f 259 260 269
f 269 260 270
f 260 261 270
f 270 261 271
f 261 262 271
f 271 262 272
f 262 263 272
f 272 263 273
f 263 264 273
f 273 264 274
f 264 265 274
f 274 265 275
f 265 266 275
f 275 266 276
f 266 267 276
f 276 267 277
f 267 268 277
f 277 268 278
f 268 259 278
f 278 259 269
f 269 270 279
f 279 270 280
f 270 271 280
f 280 271 281
f 271 272 281
f 281 272 282
f 272 273 282
f 282 273 283
f 273 274 283
f 283 274 284
f 274 275 284
f 284 275 285
f 275 276 285
f 285 276 286
f 276 277 286
f 286 277 287
f 277 278 287
f 287 278 288
f 278 269 288
f 288 269 279
f 279 280 289
f 289 280 290
f 280 281 290
f 290 281 291
f 281 282 291
f 291 282 292
f 282 283 292
f 292 283 293
f 283 284 293
f 293 284 294
f 284 285 294
f 294 285 295
f 285 286 295
f 295 286 296
f 286 287 296
f 296 287 297
f 287 288 297
f 297 288 298
f 288 279 298
f 298 279 289
f 289 290 299
f 299 290 300
f 290 291 300
f 300 291 301
f 291 292 301
f 301 292 302
f 292 293 302
f 302 293 303
f 293 294 303
f 303 294 304
f 294 295 304
f 304 295 305
f 295 296 305
f 305 296 306
f 296 297 306
f 306 297 307
f 297 298 307
f 307 298 308
f 298 289 308
f 308 289 299
f 299 300 309
f 309 300 310
f 300 301 310
f 310 301 311
f 301 302 311
f 311 302 312
f 302 303 312
f 312 303 313
f 303 304 313
f 313 304 314
f 304 305 314
f 314 305 315
f 305 306 315
f 315 306 316
f 306 307 316
f 316 307 317
f 307 308 317
f 317 308 318
f 308 299 318
f 318 299 309
f 309 310 319
f 319 310 320
f 310 311 320
f 320 311 321
f 311 312 321
f 321 312 322
f 312 313 322
f 322 313 323
f 313 314 323
f 323 314 324
f 314 315 324
f 324 315 325
f 315 316 325
f 325 316 326
f 316 317 326
f 326 317 327
f 317 318 327
f 327 318 328
f 318 309 328
f 328 309 319
f 319 320 329
f 329 320 330
f 320 321 330
f 330 321 331
f 321 322 331
f 331 322 332
f 322 323 332
f 332 323 333
f 323 324 333
f 333 324 334
f 324 325 334
f 334 325 335
f 325 326 335
f 335 326 336
f 326 327 336
f 336 327 337
f 327 328 337
f 337 328 338
f 328 319 338
f 338 319 329
f 329 330 339
f 339 330 340
f 330 331 340
f 340 331 341
f 331 332 341
f 341 332 342
f 332 333 342
f 342 333 343
f 333 334 343
f 343 334 344
f 334 335 344
f 344 335 345
f 335 336 345
f 345 336 346
f 336 337 346
f 346 337 347
f 337 338 347
f 347 338 348
f 338 329 348
f 348 329 339
f 339 340 349
f 349 340 350
f 340 341 350
f 350 341 351
f 341 342 351
f 351 342 352
f 342 343 352
f 352 343 353
f 343 344 353
f 353 344 354
f 344 345 354
f 354 345 355
f 345 346 355
f 355 346 356
f 346 347 356
f 356 347 357
f 347 348 357
f 357 348 358
f 348 339 358
f 358 339 349
f 349 350 359
f 359 350 360
f 350 351 360
f 360 351 361
f 351 352 361
f 361 352 362
f 352 353 362
f 362 353 363
f 353 354 363
f 363 354 364
f 354 355 364
f 364 355 365
f 355 356 365
f 365 356 366
f 356 357 366
f 366 357 367
f 357 358 367
f 367 358 368
f 358 349 368
f 368 349 359
f 359 360 369
f 369 360 370
f 360 361 370
f 370 361 371
f 361 362 371
f 371 362 372
f 362 363 372
f 372 363 373
f 363 364 373
f 373 364 374
f 364 365 374
f 374 365 375
f 365 366 375
f 375 366 376
f 366 367 376
f 376 367 377
f 367 368 377
f 377 368 378
f 368 359 378
f 378 359 369
f 369 370 379
f 379 370 380
f 370 371 380
f 380 371 381
f 371 372 381
f 381 372 382
f 372 373 382
f 382 373 383
f 373 374 383
f 383 374 384
f 374 375 384
f 384 375 385
f 375 376 385
f 385 376 386
f 376 377 386
f 386 377 387
f 377 378 387
f 387 378 388
f 378 369 388
f 388 369 379
f 379 380 389
f 389 380 390
f 380 381 390
f 390 381 391
f 381 382 391
f 391 382 392
f 382 383 392
f 392 383 393
f 383 384 393
f 393 384 394
f 384 385 394
f 394 385 395
f 385 386 395
f 395 386 396
f 386 387 396
f 396 387 397
f 387 388 397
f 397 388 398
f 388 379 398
f 398 379 389
f 389 390 399
f 399 390 400
f 390 391 400
f 400 391 401
f 391 392 401
f 401 392 402
f 392 393 402
f 402 393 403
f 393 394 403
f 403 394 404
f 394 395 404
f 404 395 405
f 395 396 405
f 405 396 406
f 396 397 406
f 406 397 407
f 397 398 407
f 407 398 408
f 398 389 408
f 408 389 399
f 399 400 409
f 409 400 410
f 400 401 410
f 410 401 411
f 401 402 411
f 411 402 412
f 402 403 412
f 412 403 413
f 403 404 413
f 413 404 414
f 404 405 414
f 414 405 415
f 405 406 415
f 415 406 416
f 406 407 416
f 416 407 417
f 407 408 417
f 417 408 418
f 408 399 418
f 418 399 409
f 409 410 419
f 419 410 420
f 410 411 420
f 420 411 421
f 411 412 421
f 421 412 422
f 412 413 422
f 422 413 423
f 413 414 423
f 423 414 424
f 414 415 424
f 424 415 425
f 415 416 425
f 425 416 426
f 416 417 426
f 426 417 427
f 417 418 427
f 427 418 428
f 418 409 428
f 428 409 419
f 419 420 429
f 429 420 430
f 420 421 430
f 430 421 431
f 421 422 431
f 431 422 432
f 422 423 432
f 432 423 433
f 423 424 433
f 433 424 434
f 424 425 434
f 434 425 435
f 425 426 435
f 435 426 436
f 426 427 436
f 436 427 437
f 427 428 437
f 437 428 438
f 428 419 438
f 438 419 429
f 429 430 439
f 439 430 440
f 430 431 440
f 440 431 441
f 431 432 441
f 441 432 442
f 432 433 442
f 442 433 443
f 433 434 443
f 443 434 444
f 434 435 444
f 444 435 445
f 435 436 445
f 445 436 446
f 436 437 446
f 446 437 447
f 437 438 447
f 447 438 448
f 438 429 448
f 448 429 439
f 439 440 449
f 449 440 450
f 440 441 450
f 450 441 451
f 441 442 451
f 451 442 452
f 442 443 452
f 452 443 453
f 443 444 453
f 453 444 454
f 444 445 454
f 454 445 455
f 445 446 455
f 455 446 456
f 446 447 456
f 456 447 457
f 447 448 457
f 457 448 458
f 448 439 458
f 458 439 449
f 449 450 459
f 459 450 460
f 450 451 460
f 460 451 461
f 451 452 461
f 461 452 462
f 452 453 462
f 462 453 463
f 453 454 463
f 463 454 464
f 454 455 464
f 464 455 465
f 455 456 465
f 465 456 466
f 456 457 466
f 466 457 467
f 457 458 467
f 467 458 468
f 458 449 468
f 468 449 459
f 459 460 469
f 469 460 470
f 460 461 470
f 470 461 471
f 461 462 471
f 471 462 472
f 462 463 472
f 472 463 473
f 463 464 473
f 473 464 474
f 464 465 474
f 474 465 475
f 465 466 475
f 475 466 476
f 466 467 476
f 476 467 477
f 467 468 477
f 477 468 478
f 468 459 478
f 478 459 469
f 469 470 479
f 479 470 480
f 470 471 480
f 480 471 481
f 471 472 481
f 481 472 482
f 472 473 482
f 482 473 483
f 473 474 483
f 483 474 484
f 474 475 484
f 484 475 485
f 475 476 485
f 485 476 486
f 476 477 486
f 486 477 487
f 477 478 487
f 487 478 488
f 478 469 488
f 488 469 479
f 479 480 489
f 489 480 490
f 480 481 490
f 490 481 491
f 481 482 491
f 491 482 492
f 482 483 492
f 492 483 493
f 483 484 493
f 493 484 494
f 484 485 494
f 494 485 495
f 485 486 495
f 495 486 496
f 486 487 496
f 496 487 497
f 487 488 497
f 497 488 498
f 488 479 498
f 498 479 489
f 489 490 499
f 499 490 500
f 490 491 500
f 500 491 501
f 491 492 501
f 501 492 502
f 492 493 502
f 502 493 503
f 493 494 503
f 503 494 504
f 494 495 504
f 504 495 505
f 495 496 505
f 505 496 506
f 496 497 506
f 506 497 507
f 497 498 507
f 507 498 508
f 498 489 508
f 508 489 499
f 499 500 509
f 509 500 510
f 500 501 510
f 510 501 511
f 501 502 511
f 511 502 512
f 502 503 512
f 512 503 513
f 503 504 513
f 513 504 514
f 504 505 514
f 514 505 515
f 505 506 515
f 515 506 516
f 506 507 516
f 516 507 517
f 507 508 517
f 517 508 518
f 508 499 518
f 518 499 509
f 509 510 519
f 519 510 520
f 510 511 520
f 520 511 521
f 511 512 521
f 521 512 522
f 512 513 522
f 522 513 523
f 513 514 523
f 523 514 524
f 514 515 524
f 524 515 525
f 515 516 525
f 525 516 526
f 516 517 526
f 526 517 527
f 517 518 527
f 527 518 528
f 518 509 528
f 528 509 519
f 519 520 529
f 529 520 530
f 520 521 530
f 530 521 531
f 521 522 531
f 531 522 532
f 522 523 532
f 532 523 533
f 523 524 533
f 533 524 534
f 524 525 534
f 534 525 535
f 525 526 535
f 535 526 536
f 526 527 536
f 536 527 537
f 527 528 537
f 537 528 538
f 528 519 538
f 538 519 529
f 529 530 539
f 539 530 540
f 530 531 540
f 540 531 541
f 531 532 541
f 541 532 542
f 532 533 542
f 542 533 543
f 533 534 543
f 543 534 544
f 534 535 544
f 544 535 545
f 535 536 545
f 545 536 546
f 536 537 546
f 546 537 547
f 537 538 547
f 547 538 548
f 538 529 548
f 548 529 539
f 539 540 549
f 549 540 550
f 540 541 550
f 550 541 551
f 541 542 551
f 551 542 552
f 542 543 552
f 552 543 553
f 543 544 553
f 553 544 554
f 544 545 554
f 554 545 555
f 545 546 555
f 555 546 556
f 546 547 556
f 556 547 557
f 547 548 557
f 557 548 558
f 548 539 558
f 558 539 549
f 549 550 559
f 559 550 560
f 550 551 560
f 560 551 561
f 551 552 561
f 561 552 562
f 552 553 562
f 562 553 563
f 553 554 563
f 563 554 564
f 554 555 564
f 564 555 565
f 555 556 565
f 565 556 566
f 556 557 566
f 566 557 567
f 557 558 567
f 567 558 568
f 558 549 568
f 568 549 559
f 559 560 569
f 569 560 570
f 560 561 570
f 570 561 571
f 561 562 571
f 571 562 572
f 562 563 572
f 572 563 573
f 563 564 573
f 573 564 574
f 564 565 574
f 574 565 575
f 565 566 575
f 575 566 576
f 566 567 576
f 576 567 577
f 567 568 577
f 577 568 578
f 568 559 578
f 578 559 569
f 569 570 579
f 579 570 580
f 570 571 580
f 580 571 581
f 571 572 581
f 581 572 582
f 572 573 582
f 582 573 583
f 573 574 583
f 583 574 584
f 574 575 584
f 584 575 585
f 575 576 585
f 585 576 586
f 576 577 586
f 586 577 587
f 577 578 587
f 587 578 588
f 578 569 588
f 588 569 579
f 579 580 589
f 589 580 590
f 580 581 590
f 590 581 591
f 581 582 591
f 591 582 592
f 582 583 592
f 592 583 593
f 583 584 593
f 593 584 594
f 584 585 594
f 594 585 595
f 585 586 595
f 595 586 596
f 586 587 596
f 596 587 597
f 587 588 597
f 597 588 598
f 588 579 598
f 598 579 589
f 589 590 599
f 599 590 600
f 590 591 600
f 600 591 601
f 591 592 601
f 601 592 602
f 592 593 602
f 602 593 603
f 593 594 603
f 603 594 604
f 594 595 604
f 604 595 605
f 595 596 605
f 605 596 606
f 596 597 606
f 606 597 607
f 597 598 607
f 607 598 608
f 598 589 608
f 608 589 599
f 599 600 609
f 609 600 610
f 600 601 610
f 610 601 611
f 601 602 611
f 611 602 612
f 602 603 612
f 612 603 613
f 603 604 613
f 613 604 614
f 604 605 614
f 614 605 615
f 605 606 615
f 615 606 616
f 606 607 616
f 616 607 617
f 607 608 617
f 617 608 618
f 608 599 618
f 618 599 609
f 609 610 619
f 619 610 620
f 610 611 620
f 620 611 621
f 611 612 621
f 621 612 622
f 612 613 622
f 622 613 623
f 613 614 623
f 623 614 624
f 614 615 624
f 624 615 625
f 615 616 625
f 625 616 626
f 616 617 626
f 626 617 627
f 617 618 627
f 627 618 628
f 618 609 628
f 628 609 619
f 619 620 629
f 629 620 630
f 620 621 630
f 630 621 631
f 621 622 631
f 631 622 632
f 622 623 632
f 632 623 633
f 623 624 633
f 633 624 634
f 624 625 634
f 634 625 635
f 625 626 635
f 635 626 636
f 626 627 636
f 636 627 637
f 627 628 637
f 637 628 638
f 628 619 638
f 638 619 629
f 629 630 639
f 639 630 640
f 630 631 640
f 640 631 641
f 631 632 641
f 641 632 642
f 632 633 642
f 642 633 643
f 633 634 643
f 643 634 644
f 634 635 644
f 644 635 645
f 635 636 645
f 645 636 646
f 636 637 646
f 646 637 647
f 637 638 647
f 647 638 648
f 638 629 648
f 648 629 639
f 639 640 649
f 649 640 650
f 640 641 650
f 650 641 651
f 641 642 651
f 651 642 652
f 642 643 652
f 652 643 653
f 643 644 653
f 653 644 654
f 644 645 654
f 654 645 655
f 645 646 655
f 655 646 656
f 646 647 656
f 656 647 657
f 647 648 657
f 657 648 658
f 648 639 658
f 658 639 649
f 649 650 659
f 659 650 660
f 650 651 660
f 660 651 661
f 651 652 661
f 661 652 662
f 652 653 662
f 662 653 663
f 653 654 663
f 663 654 664
f 654 655 664
f 664 655 665
f 655 656 665
f 665 656 666
f 656 657 666
f 666 657 667
f 657 658 667
f 667 658 668
f 658 649 668
f 668 649 659
f 659 660 669
f 669 660 670
f 660 661 670
f 670 661 671
f 661 662 671
f 671 662 672
f 662 663 672
f 672 663 673
f 663 664 673
f 673 664 674
f 664 665 674
f 674 665 675
f 665 666 675
f 675 666 676
f 666 667 676
f 676 667 677
f 667 668 677
f 677 668 678
f 668 659 678
f 678 659 669
f 669 670 679
f 679 670 680
f 670 671 680
f 680 671 681
f 671 672 681
f 681 672 682
f 672 673 682
f 682 673 683
f 673 674 683
f 683 674 684
f 674 675 684
f 684 675 685
f 675 676 685
f 685 676 686
f 676 677 686
f 686 677 687
f 677 678 687
f 687 678 688
f 678 669 688
f 688 669 679
f 679 680 689
f 689 680 690
f 680 681 690
f 690 681 691
f 681 682 691
f 691 682 692
f 682 683 692
f 692 683 693
f 683 684 693
f 693 684 694
f 684 685 694
f 694 685 695
f 685 686 695
f 695 686 696
f 686 687 696
f 696 687 697
f 687 688 697
f 697 688 698
f 688 679 698
f 698 679 689
f 689 690 699
f 699 690 700
f 690 691 700
f 700 691 701
f 691 692 701
f 701 692 702
f 692 693 702
f 702 693 703
f 693 694 703
f 703 694 704
f 694 695 704
f 704 695 705
f 695 696 705
f 705 696 706
f 696 697 706
f 706 697 707
f 697 698 707
f 707 698 708
f 698 689 708
f 708 689 699
f 699 700 709
f 709 700 710
f 700 701 710
f 710 701 711
f 701 702 711
f 711 702 712
f 702 703 712
f 712 703 713
f 703 704 713
f 713 704 714
f 704 705 714
f 714 705 715
f 705 706 715
f 715 706 716
f 706 707 716
f 716 707 717
f 707 708 717
f 717 708 718
f 708 699 718
f 718 699 709
f 709 710 719
f 719 710 720
f 710 711 720
f 720 711 721
f 711 712 721
f 721 712 722
f 712 713 722
f 722 713 723
f 713 714 723
f 723 714 724
f 714 715 724
f 724 715 725
f 715 716 725
f 725 716 726
f 716 717 726
f 726 717 727
f 717 718 727
f 727 718 728
f 718 709 728
f 728 709 719
f 719 720 729
f 729 720 730
f 720 721 730
f 730 721 731
f 721 722 731
f 731 722 732
f 722 723 732
f 732 723 733
f 723 724 733
f 733 724 734
f 724 725 734
f 734 725 735
f 725 726 735
f 735 726 736
f 726 727 736
f 736 727 737
f 727 728 737
f 737 728 738
f 728 719 738
f 738 719 729
f 729 730 99
f 99 730 100
f 730 731 100
f 100 731 101
f 731 732 101
f 101 732 102
f 732 733 102
f 102 733 103
f 733 734 103
f 103 734 104
f 734 735 104
f 104 735 105
f 735 736 105
f 105 736 106
f 736 737 106
f 106 737 107
f 737 738 107
f 107 738 108
f 738 729 108
f 108 729 99
o InnerEmitterRing
g InnerEmitterRing
usemtl MAT_InnerEmitterRing
v 0.110800 0.043000 0.000000
v 0.110265 0.044646 0.000000
v 0.108865 0.045663 0.000000
v 0.107135 0.045663 0.000000
v 0.105735 0.044646 0.000000
v 0.105200 0.043000 0.000000
v 0.105735 0.041354 0.000000
v 0.107135 0.040337 0.000000
v 0.108865 0.040337 0.000000
v 0.110265 0.041354 0.000000
v 0.110266 0.043000 0.010860
v 0.109734 0.044646 0.010808
v 0.108341 0.045663 0.010671
v 0.106619 0.045663 0.010501
v 0.105226 0.044646 0.010364
v 0.104693 0.043000 0.010311
v 0.105226 0.041354 0.010364
v 0.106619 0.040337 0.010501
v 0.108341 0.040337 0.010671
v 0.109734 0.041354 0.010808
v 0.108671 0.043000 0.021616
v 0.108147 0.044646 0.021512
v 0.106773 0.045663 0.021239
v 0.105076 0.045663 0.020901
v 0.103703 0.044646 0.020628
v 0.103179 0.043000 0.020524
v 0.103703 0.041354 0.020628
v 0.105076 0.040337 0.020901
v 0.106773 0.040337 0.021239
v 0.108147 0.041354 0.021512
v 0.106029 0.043000 0.032164
v 0.105517 0.044646 0.032008
v 0.104178 0.045663 0.031602
v 0.102522 0.045663 0.031100
v 0.101182 0.044646 0.030693
v 0.100670 0.043000 0.030538
v 0.101182 0.041354 0.030693
v 0.102522 0.040337 0.031100
v 0.104178 0.040337 0.031602
v 0.105517 0.041354 0.032008
v 0.102366 0.043000 0.042401
v 0.101872 0.044646 0.042197
v 0.100578 0.045663 0.041661
v 0.098980 0.045663 0.040999
v 0.097686 0.044646 0.040463
v 0.097192 0.043000 0.040258
v 0.097686 0.041354 0.040463
v 0.098980 0.040337 0.040999
v 0.100578 0.040337 0.041661
v 0.101872 0.041354 0.042197
v 0.097717 0.043000 0.052231
v 0.097245 0.044646 0.051979
v 0.096011 0.045663 0.051319
v 0.094484 0.045663 0.050503
v 0.093250 0.044646 0.049843
v 0.092778 0.043000 0.049591
v 0.093250 0.041354 0.049843
v 0.094484 0.040337 0.050503
v 0.096011 0.040337 0.051319
v 0.097245 0.041354 0.051979
v 0.092127 0.043000 0.061557
v 0.091682 0.044646 0.061260
v 0.090518 0.045663 0.060482
v 0.089079 0.045663 0.059521
v 0.087915 0.044646 0.058743
v 0.087471 0.043000 0.058446
v 0.087915 0.041354 0.058743
v 0.089079 0.040337 0.059521
v 0.090518 0.040337 0.060482
v 0.091682 0.041354 0.061260
v 0.085650 0.043000 0.070291
v 0.085236 0.044646 0.069952
v 0.084154 0.045663 0.069063
v 0.082816 0.045663 0.067966
v 0.081734 0.044646 0.067077
v 0.081321 0.043000 0.066738
v 0.081734 0.041354 0.067077
v 0.082816 0.040337 0.067966
v 0.084154 0.040337 0.069063
v 0.085236 0.041354 0.069952
v 0.078347 0.043000 0.078347
v 0.077969 0.044646 0.077969
v 0.076979 0.045663 0.076979
v 0.075756 0.045663 0.075756
v 0.074766 0.044646 0.074766
v 0.074388 0.043000 0.074388
v 0.074766 0.041354 0.074766
v 0.075756 0.040337 0.075756
v 0.076979 0.040337 0.076979
v 0.077969 0.041354 0.077969
v 0.070291 0.043000 0.085650
v 0.069952 0.044646 0.085236
v 0.069063 0.045663 0.084154
v 0.067966 0.045663 0.082816
v 0.067077 0.044646 0.081734
v 0.066738 0.043000 0.081321
v 0.067077 0.041354 0.081734
v 0.067966 0.040337 0.082816
v 0.069063 0.040337 0.084154
v 0.069952 0.041354 0.085236
v 0.061557 0.043000 0.092127
v 0.061260 0.044646 0.091682
v 0.060482 0.045663 0.090518
v 0.059521 0.045663 0.089079
v 0.058743 0.044646 0.087915
v 0.058446 0.043000 0.087471
v 0.058743 0.041354 0.087915
v 0.059521 0.040337 0.089079
v 0.060482 0.040337 0.090518
v 0.061260 0.041354 0.091682
v 0.052231 0.043000 0.097717
v 0.051979 0.044646 0.097245
v 0.051319 0.045663 0.096011
v 0.050503 0.045663 0.094484
v 0.049843 0.044646 0.093250
v 0.049591 0.043000 0.092778
v 0.049843 0.041354 0.093250
v 0.050503 0.040337 0.094484
v 0.051319 0.040337 0.096011
v 0.051979 0.041354 0.097245
v 0.042401 0.043000 0.102366
v 0.042197 0.044646 0.101872
v 0.041661 0.045663 0.100578
v 0.040999 0.045663 0.098980
v 0.040463 0.044646 0.097686
v 0.040258 0.043000 0.097192
v 0.040463 0.041354 0.097686
v 0.040999 0.040337 0.098980
v 0.041661 0.040337 0.100578
v 0.042197 0.041354 0.101872
v 0.032164 0.043000 0.106029
v 0.032008 0.044646 0.105517
v 0.031602 0.045663 0.104178
v 0.031100 0.045663 0.102522
v 0.030693 0.044646 0.101182
v 0.030538 0.043000 0.100670
v 0.030693 0.041354 0.101182
v 0.031100 0.040337 0.102522
v 0.031602 0.040337 0.104178
v 0.032008 0.041354 0.105517
v 0.021616 0.043000 0.108671
v 0.021512 0.044646 0.108147
v 0.021239 0.045663 0.106773
v 0.020901 0.045663 0.105076
v 0.020628 0.044646 0.103703
v 0.020524 0.043000 0.103179
v 0.020628 0.041354 0.103703
v 0.020901 0.040337 0.105076
v 0.021239 0.040337 0.106773
v 0.021512 0.041354 0.108147
v 0.010860 0.043000 0.110266
v 0.010808 0.044646 0.109734
v 0.010671 0.045663 0.108341
v 0.010501 0.045663 0.106619
v 0.010364 0.044646 0.105226
v 0.010311 0.043000 0.104693
v 0.010364 0.041354 0.105226
v 0.010501 0.040337 0.106619
v 0.010671 0.040337 0.108341
v 0.010808 0.041354 0.109734
v 0.000000 0.043000 0.110800
v 0.000000 0.044646 0.110265
v 0.000000 0.045663 0.108865
v 0.000000 0.045663 0.107135
v 0.000000 0.044646 0.105735
v 0.000000 0.043000 0.105200
v 0.000000 0.041354 0.105735
v 0.000000 0.040337 0.107135
v 0.000000 0.040337 0.108865
v 0.000000 0.041354 0.110265
v -0.010860 0.043000 0.110266
v -0.010808 0.044646 0.109734
v -0.010671 0.045663 0.108341
v -0.010501 0.045663 0.106619
v -0.010364 0.044646 0.105226
v -0.010311 0.043000 0.104693
v -0.010364 0.041354 0.105226
v -0.010501 0.040337 0.106619
v -0.010671 0.040337 0.108341
v -0.010808 0.041354 0.109734
v -0.021616 0.043000 0.108671
v -0.021512 0.044646 0.108147
v -0.021239 0.045663 0.106773
v -0.020901 0.045663 0.105076
v -0.020628 0.044646 0.103703
v -0.020524 0.043000 0.103179
v -0.020628 0.041354 0.103703
v -0.020901 0.040337 0.105076
v -0.021239 0.040337 0.106773
v -0.021512 0.041354 0.108147
v -0.032164 0.043000 0.106029
v -0.032008 0.044646 0.105517
v -0.031602 0.045663 0.104178
v -0.031100 0.045663 0.102522
v -0.030693 0.044646 0.101182
v -0.030538 0.043000 0.100670
v -0.030693 0.041354 0.101182
v -0.031100 0.040337 0.102522
v -0.031602 0.040337 0.104178
v -0.032008 0.041354 0.105517
v -0.042401 0.043000 0.102366
v -0.042197 0.044646 0.101872
v -0.041661 0.045663 0.100578
v -0.040999 0.045663 0.098980
v -0.040463 0.044646 0.097686
v -0.040258 0.043000 0.097192
v -0.040463 0.041354 0.097686
v -0.040999 0.040337 0.098980
v -0.041661 0.040337 0.100578
v -0.042197 0.041354 0.101872
v -0.052231 0.043000 0.097717
v -0.051979 0.044646 0.097245
v -0.051319 0.045663 0.096011
v -0.050503 0.045663 0.094484
v -0.049843 0.044646 0.093250
v -0.049591 0.043000 0.092778
v -0.049843 0.041354 0.093250
v -0.050503 0.040337 0.094484
v -0.051319 0.040337 0.096011
v -0.051979 0.041354 0.097245
v -0.061557 0.043000 0.092127
v -0.061260 0.044646 0.091682
v -0.060482 0.045663 0.090518
v -0.059521 0.045663 0.089079
v -0.058743 0.044646 0.087915
v -0.058446 0.043000 0.087471
v -0.058743 0.041354 0.087915
v -0.059521 0.040337 0.089079
v -0.060482 0.040337 0.090518
v -0.061260 0.041354 0.091682
v -0.070291 0.043000 0.085650
v -0.069952 0.044646 0.085236
v -0.069063 0.045663 0.084154
v -0.067966 0.045663 0.082816
v -0.067077 0.044646 0.081734
v -0.066738 0.043000 0.081321
v -0.067077 0.041354 0.081734
v -0.067966 0.040337 0.082816
v -0.069063 0.040337 0.084154
v -0.069952 0.041354 0.085236
v -0.078347 0.043000 0.078347
v -0.077969 0.044646 0.077969
v -0.076979 0.045663 0.076979
v -0.075756 0.045663 0.075756
v -0.074766 0.044646 0.074766
v -0.074388 0.043000 0.074388
v -0.074766 0.041354 0.074766
v -0.075756 0.040337 0.075756
v -0.076979 0.040337 0.076979
v -0.077969 0.041354 0.077969
v -0.085650 0.043000 0.070291
v -0.085236 0.044646 0.069952
v -0.084154 0.045663 0.069063
v -0.082816 0.045663 0.067966
v -0.081734 0.044646 0.067077
v -0.081321 0.043000 0.066738
v -0.081734 0.041354 0.067077
v -0.082816 0.040337 0.067966
v -0.084154 0.040337 0.069063
v -0.085236 0.041354 0.069952
v -0.092127 0.043000 0.061557
v -0.091682 0.044646 0.061260
v -0.090518 0.045663 0.060482
v -0.089079 0.045663 0.059521
v -0.087915 0.044646 0.058743
v -0.087471 0.043000 0.058446
v -0.087915 0.041354 0.058743
v -0.089079 0.040337 0.059521
v -0.090518 0.040337 0.060482
v -0.091682 0.041354 0.061260
v -0.097717 0.043000 0.052231
v -0.097245 0.044646 0.051979
v -0.096011 0.045663 0.051319
v -0.094484 0.045663 0.050503
v -0.093250 0.044646 0.049843
v -0.092778 0.043000 0.049591
v -0.093250 0.041354 0.049843
v -0.094484 0.040337 0.050503
v -0.096011 0.040337 0.051319
v -0.097245 0.041354 0.051979
v -0.102366 0.043000 0.042401
v -0.101872 0.044646 0.042197
v -0.100578 0.045663 0.041661
v -0.098980 0.045663 0.040999
v -0.097686 0.044646 0.040463
v -0.097192 0.043000 0.040258
v -0.097686 0.041354 0.040463
v -0.098980 0.040337 0.040999
v -0.100578 0.040337 0.041661
v -0.101872 0.041354 0.042197
v -0.106029 0.043000 0.032164
v -0.105517 0.044646 0.032008
v -0.104178 0.045663 0.031602
v -0.102522 0.045663 0.031100
v -0.101182 0.044646 0.030693
v -0.100670 0.043000 0.030538
v -0.101182 0.041354 0.030693
v -0.102522 0.040337 0.031100
v -0.104178 0.040337 0.031602
v -0.105517 0.041354 0.032008
v -0.108671 0.043000 0.021616
v -0.108147 0.044646 0.021512
v -0.106773 0.045663 0.021239
v -0.105076 0.045663 0.020901
v -0.103703 0.044646 0.020628
v -0.103179 0.043000 0.020524
v -0.103703 0.041354 0.020628
v -0.105076 0.040337 0.020901
v -0.106773 0.040337 0.021239
v -0.108147 0.041354 0.021512
v -0.110266 0.043000 0.010860
v -0.109734 0.044646 0.010808
v -0.108341 0.045663 0.010671
v -0.106619 0.045663 0.010501
v -0.105226 0.044646 0.010364
v -0.104693 0.043000 0.010311
v -0.105226 0.041354 0.010364
v -0.106619 0.040337 0.010501
v -0.108341 0.040337 0.010671
v -0.109734 0.041354 0.010808
v -0.110800 0.043000 0.000000
v -0.110265 0.044646 0.000000
v -0.108865 0.045663 0.000000
v -0.107135 0.045663 0.000000
v -0.105735 0.044646 0.000000
v -0.105200 0.043000 0.000000
v -0.105735 0.041354 0.000000
v -0.107135 0.040337 0.000000
v -0.108865 0.040337 0.000000
v -0.110265 0.041354 0.000000
v -0.110266 0.043000 -0.010860
v -0.109734 0.044646 -0.010808
v -0.108341 0.045663 -0.010671
v -0.106619 0.045663 -0.010501
v -0.105226 0.044646 -0.010364
v -0.104693 0.043000 -0.010311
v -0.105226 0.041354 -0.010364
v -0.106619 0.040337 -0.010501
v -0.108341 0.040337 -0.010671
v -0.109734 0.041354 -0.010808
v -0.108671 0.043000 -0.021616
v -0.108147 0.044646 -0.021512
v -0.106773 0.045663 -0.021239
v -0.105076 0.045663 -0.020901
v -0.103703 0.044646 -0.020628
v -0.103179 0.043000 -0.020524
v -0.103703 0.041354 -0.020628
v -0.105076 0.040337 -0.020901
v -0.106773 0.040337 -0.021239
v -0.108147 0.041354 -0.021512
v -0.106029 0.043000 -0.032164
v -0.105517 0.044646 -0.032008
v -0.104178 0.045663 -0.031602
v -0.102522 0.045663 -0.031100
v -0.101182 0.044646 -0.030693
v -0.100670 0.043000 -0.030538
v -0.101182 0.041354 -0.030693
v -0.102522 0.040337 -0.031100
v -0.104178 0.040337 -0.031602
v -0.105517 0.041354 -0.032008
v -0.102366 0.043000 -0.042401
v -0.101872 0.044646 -0.042197
v -0.100578 0.045663 -0.041661
v -0.098980 0.045663 -0.040999
v -0.097686 0.044646 -0.040463
v -0.097192 0.043000 -0.040258
v -0.097686 0.041354 -0.040463
v -0.098980 0.040337 -0.040999
v -0.100578 0.040337 -0.041661
v -0.101872 0.041354 -0.042197
v -0.097717 0.043000 -0.052231
v -0.097245 0.044646 -0.051979
v -0.096011 0.045663 -0.051319
v -0.094484 0.045663 -0.050503
v -0.093250 0.044646 -0.049843
v -0.092778 0.043000 -0.049591
v -0.093250 0.041354 -0.049843
v -0.094484 0.040337 -0.050503
v -0.096011 0.040337 -0.051319
v -0.097245 0.041354 -0.051979
v -0.092127 0.043000 -0.061557
v -0.091682 0.044646 -0.061260
v -0.090518 0.045663 -0.060482
v -0.089079 0.045663 -0.059521
v -0.087915 0.044646 -0.058743
v -0.087471 0.043000 -0.058446
v -0.087915 0.041354 -0.058743
v -0.089079 0.040337 -0.059521
v -0.090518 0.040337 -0.060482
v -0.091682 0.041354 -0.061260
v -0.085650 0.043000 -0.070291
v -0.085236 0.044646 -0.069952
v -0.084154 0.045663 -0.069063
v -0.082816 0.045663 -0.067966
v -0.081734 0.044646 -0.067077
v -0.081321 0.043000 -0.066738
v -0.081734 0.041354 -0.067077
v -0.082816 0.040337 -0.067966
v -0.084154 0.040337 -0.069063
v -0.085236 0.041354 -0.069952
v -0.078347 0.043000 -0.078347
v -0.077969 0.044646 -0.077969
v -0.076979 0.045663 -0.076979
v -0.075756 0.045663 -0.075756
v -0.074766 0.044646 -0.074766
v -0.074388 0.043000 -0.074388
v -0.074766 0.041354 -0.074766
v -0.075756 0.040337 -0.075756
v -0.076979 0.040337 -0.076979
v -0.077969 0.041354 -0.077969
v -0.070291 0.043000 -0.085650
v -0.069952 0.044646 -0.085236
v -0.069063 0.045663 -0.084154
v -0.067966 0.045663 -0.082816
v -0.067077 0.044646 -0.081734
v -0.066738 0.043000 -0.081321
v -0.067077 0.041354 -0.081734
v -0.067966 0.040337 -0.082816
v -0.069063 0.040337 -0.084154
v -0.069952 0.041354 -0.085236
v -0.061557 0.043000 -0.092127
v -0.061260 0.044646 -0.091682
v -0.060482 0.045663 -0.090518
v -0.059521 0.045663 -0.089079
v -0.058743 0.044646 -0.087915
v -0.058446 0.043000 -0.087471
v -0.058743 0.041354 -0.087915
v -0.059521 0.040337 -0.089079
v -0.060482 0.040337 -0.090518
v -0.061260 0.041354 -0.091682
v -0.052231 0.043000 -0.097717
v -0.051979 0.044646 -0.097245
v -0.051319 0.045663 -0.096011
v -0.050503 0.045663 -0.094484
v -0.049843 0.044646 -0.093250
v -0.049591 0.043000 -0.092778
v -0.049843 0.041354 -0.093250
v -0.050503 0.040337 -0.094484
v -0.051319 0.040337 -0.096011
v -0.051979 0.041354 -0.097245
v -0.042401 0.043000 -0.102366
v -0.042197 0.044646 -0.101872
v -0.041661 0.045663 -0.100578
v -0.040999 0.045663 -0.098980
v -0.040463 0.044646 -0.097686
v -0.040258 0.043000 -0.097192
v -0.040463 0.041354 -0.097686
v -0.040999 0.040337 -0.098980
v -0.041661 0.040337 -0.100578
v -0.042197 0.041354 -0.101872
v -0.032164 0.043000 -0.106029
v -0.032008 0.044646 -0.105517
v -0.031602 0.045663 -0.104178
v -0.031100 0.045663 -0.102522
v -0.030693 0.044646 -0.101182
v -0.030538 0.043000 -0.100670
v -0.030693 0.041354 -0.101182
v -0.031100 0.040337 -0.102522
v -0.031602 0.040337 -0.104178
v -0.032008 0.041354 -0.105517
v -0.021616 0.043000 -0.108671
v -0.021512 0.044646 -0.108147
v -0.021239 0.045663 -0.106773
v -0.020901 0.045663 -0.105076
v -0.020628 0.044646 -0.103703
v -0.020524 0.043000 -0.103179
v -0.020628 0.041354 -0.103703
v -0.020901 0.040337 -0.105076
v -0.021239 0.040337 -0.106773
v -0.021512 0.041354 -0.108147
v -0.010860 0.043000 -0.110266
v -0.010808 0.044646 -0.109734
v -0.010671 0.045663 -0.108341
v -0.010501 0.045663 -0.106619
v -0.010364 0.044646 -0.105226
v -0.010311 0.043000 -0.104693
v -0.010364 0.041354 -0.105226
v -0.010501 0.040337 -0.106619
v -0.010671 0.040337 -0.108341
v -0.010808 0.041354 -0.109734
v -0.000000 0.043000 -0.110800
v -0.000000 0.044646 -0.110265
v -0.000000 0.045663 -0.108865
v -0.000000 0.045663 -0.107135
v -0.000000 0.044646 -0.105735
v -0.000000 0.043000 -0.105200
v -0.000000 0.041354 -0.105735
v -0.000000 0.040337 -0.107135
v -0.000000 0.040337 -0.108865
v -0.000000 0.041354 -0.110265
v 0.010860 0.043000 -0.110266
v 0.010808 0.044646 -0.109734
v 0.010671 0.045663 -0.108341
v 0.010501 0.045663 -0.106619
v 0.010364 0.044646 -0.105226
v 0.010311 0.043000 -0.104693
v 0.010364 0.041354 -0.105226
v 0.010501 0.040337 -0.106619
v 0.010671 0.040337 -0.108341
v 0.010808 0.041354 -0.109734
v 0.021616 0.043000 -0.108671
v 0.021512 0.044646 -0.108147
v 0.021239 0.045663 -0.106773
v 0.020901 0.045663 -0.105076
v 0.020628 0.044646 -0.103703
v 0.020524 0.043000 -0.103179
v 0.020628 0.041354 -0.103703
v 0.020901 0.040337 -0.105076
v 0.021239 0.040337 -0.106773
v 0.021512 0.041354 -0.108147
v 0.032164 0.043000 -0.106029
v 0.032008 0.044646 -0.105517
v 0.031602 0.045663 -0.104178
v 0.031100 0.045663 -0.102522
v 0.030693 0.044646 -0.101182
v 0.030538 0.043000 -0.100670
v 0.030693 0.041354 -0.101182
v 0.031100 0.040337 -0.102522
v 0.031602 0.040337 -0.104178
v 0.032008 0.041354 -0.105517
v 0.042401 0.043000 -0.102366
v 0.042197 0.044646 -0.101872
v 0.041661 0.045663 -0.100578
v 0.040999 0.045663 -0.098980
v 0.040463 0.044646 -0.097686
v 0.040258 0.043000 -0.097192
v 0.040463 0.041354 -0.097686
v 0.040999 0.040337 -0.098980
v 0.041661 0.040337 -0.100578
v 0.042197 0.041354 -0.101872
v 0.052231 0.043000 -0.097717
v 0.051979 0.044646 -0.097245
v 0.051319 0.045663 -0.096011
v 0.050503 0.045663 -0.094484
v 0.049843 0.044646 -0.093250
v 0.049591 0.043000 -0.092778
v 0.049843 0.041354 -0.093250
v 0.050503 0.040337 -0.094484
v 0.051319 0.040337 -0.096011
v 0.051979 0.041354 -0.097245
v 0.061557 0.043000 -0.092127
v 0.061260 0.044646 -0.091682
v 0.060482 0.045663 -0.090518
v 0.059521 0.045663 -0.089079
v 0.058743 0.044646 -0.087915
v 0.058446 0.043000 -0.087471
v 0.058743 0.041354 -0.087915
v 0.059521 0.040337 -0.089079
v 0.060482 0.040337 -0.090518
v 0.061260 0.041354 -0.091682
v 0.070291 0.043000 -0.085650
v 0.069952 0.044646 -0.085236
v 0.069063 0.045663 -0.084154
v 0.067966 0.045663 -0.082816
v 0.067077 0.044646 -0.081734
v 0.066738 0.043000 -0.081321
v 0.067077 0.041354 -0.081734
v 0.067966 0.040337 -0.082816
v 0.069063 0.040337 -0.084154
v 0.069952 0.041354 -0.085236
v 0.078347 0.043000 -0.078347
v 0.077969 0.044646 -0.077969
v 0.076979 0.045663 -0.076979
v 0.075756 0.045663 -0.075756
v 0.074766 0.044646 -0.074766
v 0.074388 0.043000 -0.074388
v 0.074766 0.041354 -0.074766
v 0.075756 0.040337 -0.075756
v 0.076979 0.040337 -0.076979
v 0.077969 0.041354 -0.077969
v 0.085650 0.043000 -0.070291
v 0.085236 0.044646 -0.069952
v 0.084154 0.045663 -0.069063
v 0.082816 0.045663 -0.067966
v 0.081734 0.044646 -0.067077
v 0.081321 0.043000 -0.066738
v 0.081734 0.041354 -0.067077
v 0.082816 0.040337 -0.067966
v 0.084154 0.040337 -0.069063
v 0.085236 0.041354 -0.069952
v 0.092127 0.043000 -0.061557
v 0.091682 0.044646 -0.061260
v 0.090518 0.045663 -0.060482
v 0.089079 0.045663 -0.059521
v 0.087915 0.044646 -0.058743
v 0.087471 0.043000 -0.058446
v 0.087915 0.041354 -0.058743
v 0.089079 0.040337 -0.059521
v 0.090518 0.040337 -0.060482
v 0.091682 0.041354 -0.061260
v 0.097717 0.043000 -0.052231
v 0.097245 0.044646 -0.051979
v 0.096011 0.045663 -0.051319
v 0.094484 0.045663 -0.050503
v 0.093250 0.044646 -0.049843
v 0.092778 0.043000 -0.049591
v 0.093250 0.041354 -0.049843
v 0.094484 0.040337 -0.050503
v 0.096011 0.040337 -0.051319
v 0.097245 0.041354 -0.051979
v 0.102366 0.043000 -0.042401
v 0.101872 0.044646 -0.042197
v 0.100578 0.045663 -0.041661
v 0.098980 0.045663 -0.040999
v 0.097686 0.044646 -0.040463
v 0.097192 0.043000 -0.040258
v 0.097686 0.041354 -0.040463
v 0.098980 0.040337 -0.040999
v 0.100578 0.040337 -0.041661
v 0.101872 0.041354 -0.042197
v 0.106029 0.043000 -0.032164
v 0.105517 0.044646 -0.032008
v 0.104178 0.045663 -0.031602
v 0.102522 0.045663 -0.031100
v 0.101182 0.044646 -0.030693
v 0.100670 0.043000 -0.030538
v 0.101182 0.041354 -0.030693
v 0.102522 0.040337 -0.031100
v 0.104178 0.040337 -0.031602
v 0.105517 0.041354 -0.032008
v 0.108671 0.043000 -0.021616
v 0.108147 0.044646 -0.021512
v 0.106773 0.045663 -0.021239
v 0.105076 0.045663 -0.020901
v 0.103703 0.044646 -0.020628
v 0.103179 0.043000 -0.020524
v 0.103703 0.041354 -0.020628
v 0.105076 0.040337 -0.020901
v 0.106773 0.040337 -0.021239
v 0.108147 0.041354 -0.021512
v 0.110266 0.043000 -0.010860
v 0.109734 0.044646 -0.010808
v 0.108341 0.045663 -0.010671
v 0.106619 0.045663 -0.010501
v 0.105226 0.044646 -0.010364
v 0.104693 0.043000 -0.010311
v 0.105226 0.041354 -0.010364
v 0.106619 0.040337 -0.010501
v 0.108341 0.040337 -0.010671
v 0.109734 0.041354 -0.010808
f 739 740 749
f 749 740 750
f 740 741 750
f 750 741 751
f 741 742 751
f 751 742 752
f 742 743 752
f 752 743 753
f 743 744 753
f 753 744 754
f 744 745 754
f 754 745 755
f 745 746 755
f 755 746 756
f 746 747 756
f 756 747 757
f 747 748 757
f 757 748 758
f 748 739 758
f 758 739 749
f 749 750 759
f 759 750 760
f 750 751 760
f 760 751 761
f 751 752 761
f 761 752 762
f 752 753 762
f 762 753 763
f 753 754 763
f 763 754 764
f 754 755 764
f 764 755 765
f 755 756 765
f 765 756 766
f 756 757 766
f 766 757 767
f 757 758 767
f 767 758 768
f 758 749 768
f 768 749 759
f 759 760 769
f 769 760 770
f 760 761 770
f 770 761 771
f 761 762 771
f 771 762 772
f 762 763 772
f 772 763 773
f 763 764 773
f 773 764 774
f 764 765 774
f 774 765 775
f 765 766 775
f 775 766 776
f 766 767 776
f 776 767 777
f 767 768 777
f 777 768 778
f 768 759 778
f 778 759 769
f 769 770 779
f 779 770 780
f 770 771 780
f 780 771 781
f 771 772 781
f 781 772 782
f 772 773 782
f 782 773 783
f 773 774 783
f 783 774 784
f 774 775 784
f 784 775 785
f 775 776 785
f 785 776 786
f 776 777 786
f 786 777 787
f 777 778 787
f 787 778 788
f 778 769 788
f 788 769 779
f 779 780 789
f 789 780 790
f 780 781 790
f 790 781 791
f 781 782 791
f 791 782 792
f 782 783 792
f 792 783 793
f 783 784 793
f 793 784 794
f 784 785 794
f 794 785 795
f 785 786 795
f 795 786 796
f 786 787 796
f 796 787 797
f 787 788 797
f 797 788 798
f 788 779 798
f 798 779 789
f 789 790 799
f 799 790 800
f 790 791 800
f 800 791 801
f 791 792 801
f 801 792 802
f 792 793 802
f 802 793 803
f 793 794 803
f 803 794 804
f 794 795 804
f 804 795 805
f 795 796 805
f 805 796 806
f 796 797 806
f 806 797 807
f 797 798 807
f 807 798 808
f 798 789 808
f 808 789 799
f 799 800 809
f 809 800 810
f 800 801 810
f 810 801 811
f 801 802 811
f 811 802 812
f 802 803 812
f 812 803 813
f 803 804 813
f 813 804 814
f 804 805 814
f 814 805 815
f 805 806 815
f 815 806 816
f 806 807 816
f 816 807 817
f 807 808 817
f 817 808 818
f 808 799 818
f 818 799 809
f 809 810 819
f 819 810 820
f 810 811 820
f 820 811 821
f 811 812 821
f 821 812 822
f 812 813 822
f 822 813 823
f 813 814 823
f 823 814 824
f 814 815 824
f 824 815 825
f 815 816 825
f 825 816 826
f 816 817 826
f 826 817 827
f 817 818 827
f 827 818 828
f 818 809 828
f 828 809 819
f 819 820 829
f 829 820 830
f 820 821 830
f 830 821 831
f 821 822 831
f 831 822 832
f 822 823 832
f 832 823 833
f 823 824 833
f 833 824 834
f 824 825 834
f 834 825 835
f 825 826 835
f 835 826 836
f 826 827 836
f 836 827 837
f 827 828 837
f 837 828 838
f 828 819 838
f 838 819 829
f 829 830 839
f 839 830 840
f 830 831 840
f 840 831 841
f 831 832 841
f 841 832 842
f 832 833 842
f 842 833 843
f 833 834 843
f 843 834 844
f 834 835 844
f 844 835 845
f 835 836 845
f 845 836 846
f 836 837 846
f 846 837 847
f 837 838 847
f 847 838 848
f 838 829 848
f 848 829 839
f 839 840 849
f 849 840 850
f 840 841 850
f 850 841 851
f 841 842 851
f 851 842 852
f 842 843 852
f 852 843 853
f 843 844 853
f 853 844 854
f 844 845 854
f 854 845 855
f 845 846 855
f 855 846 856
f 846 847 856
f 856 847 857
f 847 848 857
f 857 848 858
f 848 839 858
f 858 839 849
f 849 850 859
f 859 850 860
f 850 851 860
f 860 851 861
f 851 852 861
f 861 852 862
f 852 853 862
f 862 853 863
f 853 854 863
f 863 854 864
f 854 855 864
f 864 855 865
f 855 856 865
f 865 856 866
f 856 857 866
f 866 857 867
f 857 858 867
f 867 858 868
f 858 849 868
f 868 849 859
f 859 860 869
f 869 860 870
f 860 861 870
f 870 861 871
f 861 862 871
f 871 862 872
f 862 863 872
f 872 863 873
f 863 864 873
f 873 864 874
f 864 865 874
f 874 865 875
f 865 866 875
f 875 866 876
f 866 867 876
f 876 867 877
f 867 868 877
f 877 868 878
f 868 859 878
f 878 859 869
f 869 870 879
f 879 870 880
f 870 871 880
f 880 871 881
f 871 872 881
f 881 872 882
f 872 873 882
f 882 873 883
f 873 874 883
f 883 874 884
f 874 875 884
f 884 875 885
f 875 876 885
f 885 876 886
f 876 877 886
f 886 877 887
f 877 878 887
f 887 878 888
f 878 869 888
f 888 869 879
f 879 880 889
f 889 880 890
f 880 881 890
f 890 881 891
f 881 882 891
f 891 882 892
f 882 883 892
f 892 883 893
f 883 884 893
f 893 884 894
f 884 885 894
f 894 885 895
f 885 886 895
f 895 886 896
f 886 887 896
f 896 887 897
f 887 888 897
f 897 888 898
f 888 879 898
f 898 879 889
f 889 890 899
f 899 890 900
f 890 891 900
f 900 891 901
f 891 892 901
f 901 892 902
f 892 893 902
f 902 893 903
f 893 894 903
f 903 894 904
f 894 895 904
f 904 895 905
f 895 896 905
f 905 896 906
f 896 897 906
f 906 897 907
f 897 898 907
f 907 898 908
f 898 889 908
f 908 889 899
f 899 900 909
f 909 900 910
f 900 901 910
f 910 901 911
f 901 902 911
f 911 902 912
f 902 903 912
f 912 903 913
f 903 904 913
f 913 904 914
f 904 905 914
f 914 905 915
f 905 906 915
f 915 906 916
f 906 907 916
f 916 907 917
f 907 908 917
f 917 908 918
f 908 899 918
f 918 899 909
f 909 910 919
f 919 910 920
f 910 911 920
f 920 911 921
f 911 912 921
f 921 912 922
f 912 913 922
f 922 913 923
f 913 914 923
f 923 914 924
f 914 915 924
f 924 915 925
f 915 916 925
f 925 916 926
f 916 917 926
f 926 917 927
f 917 918 927
f 927 918 928
f 918 909 928
f 928 909 919
f 919 920 929
f 929 920 930
f 920 921 930
f 930 921 931
f 921 922 931
f 931 922 932
f 922 923 932
f 932 923 933
f 923 924 933
f 933 924 934
f 924 925 934
f 934 925 935
f 925 926 935
f 935 926 936
f 926 927 936
f 936 927 937
f 927 928 937
f 937 928 938
f 928 919 938
f 938 919 929
f 929 930 939
f 939 930 940
f 930 931 940
f 940 931 941
f 931 932 941
f 941 932 942
f 932 933 942
f 942 933 943
f 933 934 943
f 943 934 944
f 934 935 944
f 944 935 945
f 935 936 945
f 945 936 946
f 936 937 946
f 946 937 947
f 937 938 947
f 947 938 948
f 938 929 948
f 948 929 939
f 939 940 949
f 949 940 950
f 940 941 950
f 950 941 951
f 941 942 951
f 951 942 952
f 942 943 952
f 952 943 953
f 943 944 953
f 953 944 954
f 944 945 954
f 954 945 955
f 945 946 955
f 955 946 956
f 946 947 956
f 956 947 957
f 947 948 957
f 957 948 958
f 948 939 958
f 958 939 949
f 949 950 959
f 959 950 960
f 950 951 960
f 960 951 961
f 951 952 961
f 961 952 962
f 952 953 962
f 962 953 963
f 953 954 963
f 963 954 964
f 954 955 964
f 964 955 965
f 955 956 965
f 965 956 966
f 956 957 966
f 966 957 967
f 957 958 967
f 967 958 968
f 958 949 968
f 968 949 959
f 959 960 969
f 969 960 970
f 960 961 970
f 970 961 971
f 961 962 971
f 971 962 972
f 962 963 972
f 972 963 973
f 963 964 973
f 973 964 974
f 964 965 974
f 974 965 975
f 965 966 975
f 975 966 976
f 966 967 976
f 976 967 977
f 967 968 977
f 977 968 978
f 968 959 978
f 978 959 969
f 969 970 979
f 979 970 980
f 970 971 980
f 980 971 981
f 971 972 981
f 981 972 982
f 972 973 982
f 982 973 983
f 973 974 983
f 983 974 984
f 974 975 984
f 984 975 985
f 975 976 985
f 985 976 986
f 976 977 986
f 986 977 987
f 977 978 987
f 987 978 988
f 978 969 988
f 988 969 979
f 979 980 989
f 989 980 990
f 980 981 990
f 990 981 991
f 981 982 991
f 991 982 992
f 982 983 992
f 992 983 993
f 983 984 993
f 993 984 994
f 984 985 994
f 994 985 995
f 985 986 995
f 995 986 996
f 986 987 996
f 996 987 997
f 987 988 997
f 997 988 998
f 988 979 998
f 998 979 989
f 989 990 999
f 999 990 1000
f 990 991 1000
f 1000 991 1001
f 991 992 1001
f 1001 992 1002
f 992 993 1002
f 1002 993 1003
f 993 994 1003
f 1003 994 1004
f 994 995 1004
f 1004 995 1005
f 995 996 1005
f 1005 996 1006
f 996 997 1006
f 1006 997 1007
f 997 998 1007
f 1007 998 1008
f 998 989 1008
f 1008 989 999
f 999 1000 1009
f 1009 1000 1010
f 1000 1001 1010
f 1010 1001 1011
f 1001 1002 1011
f 1011 1002 1012
f 1002 1003 1012
f 1012 1003 1013
f 1003 1004 1013
f 1013 1004 1014
f 1004 1005 1014
f 1014 1005 1015
f 1005 1006 1015
f 1015 1006 1016
f 1006 1007 1016
f 1016 1007 1017
f 1007 1008 1017
f 1017 1008 1018
f 1008 999 1018
f 1018 999 1009
f 1009 1010 1019
f 1019 1010 1020
f 1010 1011 1020
f 1020 1011 1021
f 1011 1012 1021
f 1021 1012 1022
f 1012 1013 1022
f 1022 1013 1023
f 1013 1014 1023
f 1023 1014 1024
f 1014 1015 1024
f 1024 1015 1025
f 1015 1016 1025
f 1025 1016 1026
f 1016 1017 1026
f 1026 1017 1027
f 1017 1018 1027
f 1027 1018 1028
f 1018 1009 1028
f 1028 1009 1019
f 1019 1020 1029
f 1029 1020 1030
f 1020 1021 1030
f 1030 1021 1031
f 1021 1022 1031
f 1031 1022 1032
f 1022 1023 1032
f 1032 1023 1033
f 1023 1024 1033
f 1033 1024 1034
f 1024 1025 1034
f 1034 1025 1035
f 1025 1026 1035
f 1035 1026 1036
f 1026 1027 1036
f 1036 1027 1037
f 1027 1028 1037
f 1037 1028 1038
f 1028 1019 1038
f 1038 1019 1029
f 1029 1030 1039
f 1039 1030 1040
f 1030 1031 1040
f 1040 1031 1041
f 1031 1032 1041
f 1041 1032 1042
f 1032 1033 1042
f 1042 1033 1043
f 1033 1034 1043
f 1043 1034 1044
f 1034 1035 1044
f 1044 1035 1045
f 1035 1036 1045
f 1045 1036 1046
f 1036 1037 1046
f 1046 1037 1047
f 1037 1038 1047
f 1047 1038 1048
f 1038 1029 1048
f 1048 1029 1039
f 1039 1040 1049
f 1049 1040 1050
f 1040 1041 1050
f 1050 1041 1051
f 1041 1042 1051
f 1051 1042 1052
f 1042 1043 1052
f 1052 1043 1053
f 1043 1044 1053
f 1053 1044 1054
f 1044 1045 1054
f 1054 1045 1055
f 1045 1046 1055
f 1055 1046 1056
f 1046 1047 1056
f 1056 1047 1057
f 1047 1048 1057
f 1057 1048 1058
f 1048 1039 1058
f 1058 1039 1049
f 1049 1050 1059
f 1059 1050 1060
f 1050 1051 1060
f 1060 1051 1061
f 1051 1052 1061
f 1061 1052 1062
f 1052 1053 1062
f 1062 1053 1063
f 1053 1054 1063
f 1063 1054 1064
f 1054 1055 1064
f 1064 1055 1065
f 1055 1056 1065
f 1065 1056 1066
f 1056 1057 1066
f 1066 1057 1067
f 1057 1058 1067
f 1067 1058 1068
f 1058 1049 1068
f 1068 1049 1059
f 1059 1060 1069
f 1069 1060 1070
f 1060 1061 1070
f 1070 1061 1071
f 1061 1062 1071
f 1071 1062 1072
f 1062 1063 1072
f 1072 1063 1073
f 1063 1064 1073
f 1073 1064 1074
f 1064 1065 1074
f 1074 1065 1075
f 1065 1066 1075
f 1075 1066 1076
f 1066 1067 1076
f 1076 1067 1077
f 1067 1068 1077
f 1077 1068 1078
f 1068 1059 1078
f 1078 1059 1069
f 1069 1070 1079
f 1079 1070 1080
f 1070 1071 1080
f 1080 1071 1081
f 1071 1072 1081
f 1081 1072 1082
f 1072 1073 1082
f 1082 1073 1083
f 1073 1074 1083
f 1083 1074 1084
f 1074 1075 1084
f 1084 1075 1085
f 1075 1076 1085
f 1085 1076 1086
f 1076 1077 1086
f 1086 1077 1087
f 1077 1078 1087
f 1087 1078 1088
f 1078 1069 1088
f 1088 1069 1079
f 1079 1080 1089
f 1089 1080 1090
f 1080 1081 1090
f 1090 1081 1091
f 1081 1082 1091
f 1091 1082 1092
f 1082 1083 1092
f 1092 1083 1093
f 1083 1084 1093
f 1093 1084 1094
f 1084 1085 1094
f 1094 1085 1095
f 1085 1086 1095
f 1095 1086 1096
f 1086 1087 1096
f 1096 1087 1097
f 1087 1088 1097
f 1097 1088 1098
f 1088 1079 1098
f 1098 1079 1089
f 1089 1090 1099
f 1099 1090 1100
f 1090 1091 1100
f 1100 1091 1101
f 1091 1092 1101
f 1101 1092 1102
f 1092 1093 1102
f 1102 1093 1103
f 1093 1094 1103
f 1103 1094 1104
f 1094 1095 1104
f 1104 1095 1105
f 1095 1096 1105
f 1105 1096 1106
f 1096 1097 1106
f 1106 1097 1107
f 1097 1098 1107
f 1107 1098 1108
f 1098 1089 1108
f 1108 1089 1099
f 1099 1100 1109
f 1109 1100 1110
f 1100 1101 1110
f 1110 1101 1111
f 1101 1102 1111
f 1111 1102 1112
f 1102 1103 1112
f 1112 1103 1113
f 1103 1104 1113
f 1113 1104 1114
f 1104 1105 1114
f 1114 1105 1115
f 1105 1106 1115
f 1115 1106 1116
f 1106 1107 1116
f 1116 1107 1117
f 1107 1108 1117
f 1117 1108 1118
f 1108 1099 1118
f 1118 1099 1109
f 1109 1110 1119
f 1119 1110 1120
f 1110 1111 1120
f 1120 1111 1121
f 1111 1112 1121
f 1121 1112 1122
f 1112 1113 1122
f 1122 1113 1123
f 1113 1114 1123
f 1123 1114 1124
f 1114 1115 1124
f 1124 1115 1125
f 1115 1116 1125
f 1125 1116 1126
f 1116 1117 1126
f 1126 1117 1127
f 1117 1118 1127
f 1127 1118 1128
f 1118 1109 1128
f 1128 1109 1119
f 1119 1120 1129
f 1129 1120 1130
f 1120 1121 1130
f 1130 1121 1131
f 1121 1122 1131
f 1131 1122 1132
f 1122 1123 1132
f 1132 1123 1133
f 1123 1124 1133
f 1133 1124 1134
f 1124 1125 1134
f 1134 1125 1135
f 1125 1126 1135
f 1135 1126 1136
f 1126 1127 1136
f 1136 1127 1137
f 1127 1128 1137
f 1137 1128 1138
f 1128 1119 1138
f 1138 1119 1129
f 1129 1130 1139
f 1139 1130 1140
f 1130 1131 1140
f 1140 1131 1141
f 1131 1132 1141
f 1141 1132 1142
f 1132 1133 1142
f 1142 1133 1143
f 1133 1134 1143
f 1143 1134 1144
f 1134 1135 1144
f 1144 1135 1145
f 1135 1136 1145
f 1145 1136 1146
f 1136 1137 1146
f 1146 1137 1147
f 1137 1138 1147
f 1147 1138 1148
f 1138 1129 1148
f 1148 1129 1139
f 1139 1140 1149
f 1149 1140 1150
f 1140 1141 1150
f 1150 1141 1151
f 1141 1142 1151
f 1151 1142 1152
f 1142 1143 1152
f 1152 1143 1153
f 1143 1144 1153
f 1153 1144 1154
f 1144 1145 1154
f 1154 1145 1155
f 1145 1146 1155
f 1155 1146 1156
f 1146 1147 1156
f 1156 1147 1157
f 1147 1148 1157
f 1157 1148 1158
f 1148 1139 1158
f 1158 1139 1149
f 1149 1150 1159
f 1159 1150 1160
f 1150 1151 1160
f 1160 1151 1161
f 1151 1152 1161
f 1161 1152 1162
f 1152 1153 1162
f 1162 1153 1163
f 1153 1154 1163
f 1163 1154 1164
f 1154 1155 1164
f 1164 1155 1165
f 1155 1156 1165
f 1165 1156 1166
f 1156 1157 1166
f 1166 1157 1167
f 1157 1158 1167
f 1167 1158 1168
f 1158 1149 1168
f 1168 1149 1159
f 1159 1160 1169
f 1169 1160 1170
f 1160 1161 1170
f 1170 1161 1171
f 1161 1162 1171
f 1171 1162 1172
f 1162 1163 1172
f 1172 1163 1173
f 1163 1164 1173
f 1173 1164 1174
f 1164 1165 1174
f 1174 1165 1175
f 1165 1166 1175
f 1175 1166 1176
f 1166 1167 1176
f 1176 1167 1177
f 1167 1168 1177
f 1177 1168 1178
f 1168 1159 1178
f 1178 1159 1169
f 1169 1170 1179
f 1179 1170 1180
f 1170 1171 1180
f 1180 1171 1181
f 1171 1172 1181
f 1181 1172 1182
f 1172 1173 1182
f 1182 1173 1183
f 1173 1174 1183
f 1183 1174 1184
f 1174 1175 1184
f 1184 1175 1185
f 1175 1176 1185
f 1185 1176 1186
f 1176 1177 1186
f 1186 1177 1187
f 1177 1178 1187
f 1187 1178 1188
f 1178 1169 1188
f 1188 1169 1179
f 1179 1180 1189
f 1189 1180 1190
f 1180 1181 1190
f 1190 1181 1191
f 1181 1182 1191
f 1191 1182 1192
f 1182 1183 1192
f 1192 1183 1193
f 1183 1184 1193
f 1193 1184 1194
f 1184 1185 1194
f 1194 1185 1195
f 1185 1186 1195
f 1195 1186 1196
f 1186 1187 1196
f 1196 1187 1197
f 1187 1188 1197
f 1197 1188 1198
f 1188 1179 1198
f 1198 1179 1189
f 1189 1190 1199
f 1199 1190 1200
f 1190 1191 1200
f 1200 1191 1201
f 1191 1192 1201
f 1201 1192 1202
f 1192 1193 1202
f 1202 1193 1203
f 1193 1194 1203
f 1203 1194 1204
f 1194 1195 1204
f 1204 1195 1205
f 1195 1196 1205
f 1205 1196 1206
f 1196 1197 1206
f 1206 1197 1207
f 1197 1198 1207
f 1207 1198 1208
f 1198 1189 1208
f 1208 1189 1199
f 1199 1200 1209
f 1209 1200 1210
f 1200 1201 1210
f 1210 1201 1211
f 1201 1202 1211
f 1211 1202 1212
f 1202 1203 1212
f 1212 1203 1213
f 1203 1204 1213
f 1213 1204 1214
f 1204 1205 1214
f 1214 1205 1215
f 1205 1206 1215
f 1215 1206 1216
f 1206 1207 1216
f 1216 1207 1217
f 1207 1208 1217
f 1217 1208 1218
f 1208 1199 1218
f 1218 1199 1209
f 1209 1210 1219
f 1219 1210 1220
f 1210 1211 1220
f 1220 1211 1221
f 1211 1212 1221
f 1221 1212 1222
f 1212 1213 1222
f 1222 1213 1223
f 1213 1214 1223
f 1223 1214 1224
f 1214 1215 1224
f 1224 1215 1225
f 1215 1216 1225
f 1225 1216 1226
f 1216 1217 1226
f 1226 1217 1227
f 1217 1218 1227
f 1227 1218 1228
f 1218 1209 1228
f 1228 1209 1219
f 1219 1220 1229
f 1229 1220 1230
f 1220 1221 1230
f 1230 1221 1231
f 1221 1222 1231
f 1231 1222 1232
f 1222 1223 1232
f 1232 1223 1233
f 1223 1224 1233
f 1233 1224 1234
f 1224 1225 1234
f 1234 1225 1235
f 1225 1226 1235
f 1235 1226 1236
f 1226 1227 1236
f 1236 1227 1237
f 1227 1228 1237
f 1237 1228 1238
f 1228 1219 1238
f 1238 1219 1229
f 1229 1230 1239
f 1239 1230 1240
f 1230 1231 1240
f 1240 1231 1241
f 1231 1232 1241
f 1241 1232 1242
f 1232 1233 1242
f 1242 1233 1243
f 1233 1234 1243
f 1243 1234 1244
f 1234 1235 1244
f 1244 1235 1245
f 1235 1236 1245
f 1245 1236 1246
f 1236 1237 1246
f 1246 1237 1247
f 1237 1238 1247
f 1247 1238 1248
f 1238 1229 1248
f 1248 1229 1239
f 1239 1240 1249
f 1249 1240 1250
f 1240 1241 1250
f 1250 1241 1251
f 1241 1242 1251
f 1251 1242 1252
f 1242 1243 1252
f 1252 1243 1253
f 1243 1244 1253
f 1253 1244 1254
f 1244 1245 1254
f 1254 1245 1255
f 1245 1246 1255
f 1255 1246 1256
f 1246 1247 1256
f 1256 1247 1257
f 1247 1248 1257
f 1257 1248 1258
f 1248 1239 1258
f 1258 1239 1249
f 1249 1250 1259
f 1259 1250 1260
f 1250 1251 1260
f 1260 1251 1261
f 1251 1252 1261
f 1261 1252 1262
f 1252 1253 1262
f 1262 1253 1263
f 1253 1254 1263
f 1263 1254 1264
f 1254 1255 1264
f 1264 1255 1265
f 1255 1256 1265
f 1265 1256 1266
f 1256 1257 1266
f 1266 1257 1267
f 1257 1258 1267
f 1267 1258 1268
f 1258 1249 1268
f 1268 1249 1259
f 1259 1260 1269
f 1269 1260 1270
f 1260 1261 1270
f 1270 1261 1271
f 1261 1262 1271
f 1271 1262 1272
f 1262 1263 1272
f 1272 1263 1273
f 1263 1264 1273
f 1273 1264 1274
f 1264 1265 1274
f 1274 1265 1275
f 1265 1266 1275
f 1275 1266 1276
f 1266 1267 1276
f 1276 1267 1277
f 1267 1268 1277
f 1277 1268 1278
f 1268 1259 1278
f 1278 1259 1269
f 1269 1270 1279
f 1279 1270 1280
f 1270 1271 1280
f 1280 1271 1281
f 1271 1272 1281
f 1281 1272 1282
f 1272 1273 1282
f 1282 1273 1283
f 1273 1274 1283
f 1283 1274 1284
f 1274 1275 1284
f 1284 1275 1285
f 1275 1276 1285
f 1285 1276 1286
f 1276 1277 1286
f 1286 1277 1287
f 1277 1278 1287
f 1287 1278 1288
f 1278 1269 1288
f 1288 1269 1279
f 1279 1280 1289
f 1289 1280 1290
f 1280 1281 1290
f 1290 1281 1291
f 1281 1282 1291
f 1291 1282 1292
f 1282 1283 1292
f 1292 1283 1293
f 1283 1284 1293
f 1293 1284 1294
f 1284 1285 1294
f 1294 1285 1295
f 1285 1286 1295
f 1295 1286 1296
f 1286 1287 1296
f 1296 1287 1297
f 1287 1288 1297
f 1297 1288 1298
f 1288 1279 1298
f 1298 1279 1289
f 1289 1290 1299
f 1299 1290 1300
f 1290 1291 1300
f 1300 1291 1301
f 1291 1292 1301
f 1301 1292 1302
f 1292 1293 1302
f 1302 1293 1303
f 1293 1294 1303
f 1303 1294 1304
f 1294 1295 1304
f 1304 1295 1305
f 1295 1296 1305
f 1305 1296 1306
f 1296 1297 1306
f 1306 1297 1307
f 1297 1298 1307
f 1307 1298 1308
f 1298 1289 1308
f 1308 1289 1299
f 1299 1300 1309
f 1309 1300 1310
f 1300 1301 1310
f 1310 1301 1311
f 1301 1302 1311
f 1311 1302 1312
f 1302 1303 1312
f 1312 1303 1313
f 1303 1304 1313
f 1313 1304 1314
f 1304 1305 1314
f 1314 1305 1315
f 1305 1306 1315
f 1315 1306 1316
f 1306 1307 1316
f 1316 1307 1317
f 1307 1308 1317
f 1317 1308 1318
f 1308 1299 1318
f 1318 1299 1309
f 1309 1310 1319
f 1319 1310 1320
f 1310 1311 1320
f 1320 1311 1321
f 1311 1312 1321
f 1321 1312 1322
f 1312 1313 1322
f 1322 1313 1323
f 1313 1314 1323
f 1323 1314 1324
f 1314 1315 1324
f 1324 1315 1325
f 1315 1316 1325
f 1325 1316 1326
f 1316 1317 1326
f 1326 1317 1327
f 1317 1318 1327
f 1327 1318 1328
f 1318 1309 1328
f 1328 1309 1319
f 1319 1320 1329
f 1329 1320 1330
f 1320 1321 1330
f 1330 1321 1331
f 1321 1322 1331
f 1331 1322 1332
f 1322 1323 1332
f 1332 1323 1333
f 1323 1324 1333
f 1333 1324 1334
f 1324 1325 1334
f 1334 1325 1335
f 1325 1326 1335
f 1335 1326 1336
f 1326 1327 1336
f 1336 1327 1337
f 1327 1328 1337
f 1337 1328 1338
f 1328 1319 1338
f 1338 1319 1329
f 1329 1330 1339
f 1339 1330 1340
f 1330 1331 1340
f 1340 1331 1341
f 1331 1332 1341
f 1341 1332 1342
f 1332 1333 1342
f 1342 1333 1343
f 1333 1334 1343
f 1343 1334 1344
f 1334 1335 1344
f 1344 1335 1345
f 1335 1336 1345
f 1345 1336 1346
f 1336 1337 1346
f 1346 1337 1347
f 1337 1338 1347
f 1347 1338 1348
f 1338 1329 1348
f 1348 1329 1339
f 1339 1340 1349
f 1349 1340 1350
f 1340 1341 1350
f 1350 1341 1351
f 1341 1342 1351
f 1351 1342 1352
f 1342 1343 1352
f 1352 1343 1353
f 1343 1344 1353
f 1353 1344 1354
f 1344 1345 1354
f 1354 1345 1355
f 1345 1346 1355
f 1355 1346 1356
f 1346 1347 1356
f 1356 1347 1357
f 1347 1348 1357
f 1357 1348 1358
f 1348 1339 1358
f 1358 1339 1349
f 1349 1350 1359
f 1359 1350 1360
f 1350 1351 1360
f 1360 1351 1361
f 1351 1352 1361
f 1361 1352 1362
f 1352 1353 1362
f 1362 1353 1363
f 1353 1354 1363
f 1363 1354 1364
f 1354 1355 1364
f 1364 1355 1365
f 1355 1356 1365
f 1365 1356 1366
f 1356 1357 1366
f 1366 1357 1367
f 1357 1358 1367
f 1367 1358 1368
f 1358 1349 1368
f 1368 1349 1359
f 1359 1360 1369
f 1369 1360 1370
f 1360 1361 1370
f 1370 1361 1371
f 1361 1362 1371
f 1371 1362 1372
f 1362 1363 1372
f 1372 1363 1373
f 1363 1364 1373
f 1373 1364 1374
f 1364 1365 1374
f 1374 1365 1375
f 1365 1366 1375
f 1375 1366 1376
f 1366 1367 1376
f 1376 1367 1377
f 1367 1368 1377
f 1377 1368 1378
f 1368 1359 1378
f 1378 1359 1369
f 1369 1370 739
f 739 1370 740
f 1370 1371 740
f 740 1371 741
f 1371 1372 741
f 741 1372 742
f 1372 1373 742
f 742 1373 743
f 1373 1374 743
f 743 1374 744
f 1374 1375 744
f 744 1375 745
f 1375 1376 745
f 745 1376 746
f 1376 1377 746
f 746 1377 747
f 1377 1378 747
f 747 1378 748
f 1378 1369 748
f 748 1369 739
o EmitterDiffuser
g EmitterDiffuser
usemtl MAT_EmitterDiffuser
v 0.000000 0.037000 0.000000
v 0.000000 0.037000 -0.066000
v 0.000000 0.045000 -0.066000
v 0.000000 0.045000 0.000000
v -0.010325 0.037000 -0.065187
v -0.010325 0.045000 -0.065187
v -0.020395 0.037000 -0.062770
v -0.020395 0.045000 -0.062770
v -0.029963 0.037000 -0.058806
v -0.029963 0.045000 -0.058806
v -0.038794 0.037000 -0.053395
v -0.038794 0.045000 -0.053395
v -0.046669 0.037000 -0.046669
v -0.046669 0.045000 -0.046669
v -0.053395 0.037000 -0.038794
v -0.053395 0.045000 -0.038794
v -0.058806 0.037000 -0.029963
v -0.058806 0.045000 -0.029963
v -0.062770 0.037000 -0.020395
v -0.062770 0.045000 -0.020395
v -0.065187 0.037000 -0.010325
v -0.065187 0.045000 -0.010325
v -0.066000 0.037000 -0.000000
v -0.066000 0.045000 -0.000000
v -0.065187 0.037000 0.010325
v -0.065187 0.045000 0.010325
v -0.062770 0.037000 0.020395
v -0.062770 0.045000 0.020395
v -0.058806 0.037000 0.029963
v -0.058806 0.045000 0.029963
v -0.053395 0.037000 0.038794
v -0.053395 0.045000 0.038794
v -0.046669 0.037000 0.046669
v -0.046669 0.045000 0.046669
v -0.038794 0.037000 0.053395
v -0.038794 0.045000 0.053395
v -0.029963 0.037000 0.058806
v -0.029963 0.045000 0.058806
v -0.020395 0.037000 0.062770
v -0.020395 0.045000 0.062770
v -0.010325 0.037000 0.065187
v -0.010325 0.045000 0.065187
v -0.000000 0.037000 0.066000
v -0.000000 0.045000 0.066000
v 0.010325 0.037000 0.065187
v 0.010325 0.045000 0.065187
v 0.020395 0.037000 0.062770
v 0.020395 0.045000 0.062770
v 0.029963 0.037000 0.058806
v 0.029963 0.045000 0.058806
v 0.038794 0.037000 0.053395
v 0.038794 0.045000 0.053395
v 0.046669 0.037000 0.046669
v 0.046669 0.045000 0.046669
v 0.053395 0.037000 0.038794
v 0.053395 0.045000 0.038794
v 0.058806 0.037000 0.029963
v 0.058806 0.045000 0.029963
v 0.062770 0.037000 0.020395
v 0.062770 0.045000 0.020395
v 0.065187 0.037000 0.010325
v 0.065187 0.045000 0.010325
v 0.066000 0.037000 0.000000
v 0.066000 0.045000 0.000000
v 0.065187 0.037000 -0.010325
v 0.065187 0.045000 -0.010325
v 0.062770 0.037000 -0.020395
v 0.062770 0.045000 -0.020395
v 0.058806 0.037000 -0.029963
v 0.058806 0.045000 -0.029963
v 0.053395 0.037000 -0.038794
v 0.053395 0.045000 -0.038794
v 0.046669 0.037000 -0.046669
v 0.046669 0.045000 -0.046669
v 0.038794 0.037000 -0.053395
v 0.038794 0.045000 -0.053395
v 0.029963 0.037000 -0.058806
v 0.029963 0.045000 -0.058806
v 0.020395 0.037000 -0.062770
v 0.020395 0.045000 -0.062770
v 0.010325 0.037000 -0.065187
v 0.010325 0.045000 -0.065187
f 1380 1379 1383
f 1380 1383 1381
f 1381 1383 1384
f 1381 1384 1382
f 1383 1379 1385
f 1383 1385 1384
f 1384 1385 1386
f 1384 1386 1382
f 1385 1379 1387
f 1385 1387 1386
f 1386 1387 1388
f 1386 1388 1382
f 1387 1379 1389
f 1387 1389 1388
f 1388 1389 1390
f 1388 1390 1382
f 1389 1379 1391
f 1389 1391 1390
f 1390 1391 1392
f 1390 1392 1382
f 1391 1379 1393
f 1391 1393 1392
f 1392 1393 1394
f 1392 1394 1382
f 1393 1379 1395
f 1393 1395 1394
f 1394 1395 1396
f 1394 1396 1382
f 1395 1379 1397
f 1395 1397 1396
f 1396 1397 1398
f 1396 1398 1382
f 1397 1379 1399
f 1397 1399 1398
f 1398 1399 1400
f 1398 1400 1382
f 1399 1379 1401
f 1399 1401 1400
f 1400 1401 1402
f 1400 1402 1382
f 1401 1379 1403
f 1401 1403 1402
f 1402 1403 1404
f 1402 1404 1382
f 1403 1379 1405
f 1403 1405 1404
f 1404 1405 1406
f 1404 1406 1382
f 1405 1379 1407
f 1405 1407 1406
f 1406 1407 1408
f 1406 1408 1382
f 1407 1379 1409
f 1407 1409 1408
f 1408 1409 1410
f 1408 1410 1382
f 1409 1379 1411
f 1409 1411 1410
f 1410 1411 1412
f 1410 1412 1382
f 1411 1379 1413
f 1411 1413 1412
f 1412 1413 1414
f 1412 1414 1382
f 1413 1379 1415
f 1413 1415 1414
f 1414 1415 1416
f 1414 1416 1382
f 1415 1379 1417
f 1415 1417 1416
f 1416 1417 1418
f 1416 1418 1382
f 1417 1379 1419
f 1417 1419 1418
f 1418 1419 1420
f 1418 1420 1382
f 1419 1379 1421
f 1419 1421 1420
f 1420 1421 1422
f 1420 1422 1382
f 1421 1379 1423
f 1421 1423 1422
f 1422 1423 1424
f 1422 1424 1382
f 1423 1379 1425
f 1423 1425 1424
f 1424 1425 1426
f 1424 1426 1382
f 1425 1379 1427
f 1425 1427 1426
f 1426 1427 1428
f 1426 1428 1382
f 1427 1379 1429
f 1427 1429 1428
f 1428 1429 1430
f 1428 1430 1382
f 1429 1379 1431
f 1429 1431 1430
f 1430 1431 1432
f 1430 1432 1382
f 1431 1379 1433
f 1431 1433 1432
f 1432 1433 1434
f 1432 1434 1382
f 1433 1379 1435
f 1433 1435 1434
f 1434 1435 1436
f 1434 1436 1382
f 1435 1379 1437
f 1435 1437 1436
f 1436 1437 1438
f 1436 1438 1382
f 1437 1379 1439
f 1437 1439 1438
f 1438 1439 1440
f 1438 1440 1382
f 1439 1379 1441
f 1439 1441 1440
f 1440 1441 1442
f 1440 1442 1382
f 1441 1379 1443
f 1441 1443 1442
f 1442 1443 1444
f 1442 1444 1382
f 1443 1379 1445
f 1443 1445 1444
f 1444 1445 1446
f 1444 1446 1382
f 1445 1379 1447
f 1445 1447 1446
f 1446 1447 1448
f 1446 1448 1382
f 1447 1379 1449
f 1447 1449 1448
f 1448 1449 1450
f 1448 1450 1382
f 1449 1379 1451
f 1449 1451 1450
f 1450 1451 1452
f 1450 1452 1382
f 1451 1379 1453
f 1451 1453 1452
f 1452 1453 1454
f 1452 1454 1382
f 1453 1379 1455
f 1453 1455 1454
f 1454 1455 1456
f 1454 1456 1382
f 1455 1379 1457
f 1455 1457 1456
f 1456 1457 1458
f 1456 1458 1382
f 1457 1379 1459
f 1457 1459 1458
f 1458 1459 1460
f 1458 1460 1382
f 1459 1379 1380
f 1459 1380 1460
f 1460 1380 1381
f 1460 1381 1382
o InvertedPyramidShell
g InvertedPyramidShell
usemtl MAT_InvertedPyramidShell
v -0.300000 0.630000 -0.300000
v 0.300000 0.630000 -0.300000
v 0.000000 0.110000 0.000000
v 0.300000 0.630000 -0.300000
v 0.300000 0.630000 0.300000
v 0.000000 0.110000 0.000000
v 0.300000 0.630000 0.300000
v -0.300000 0.630000 0.300000
v 0.000000 0.110000 0.000000
v -0.300000 0.630000 0.300000
v -0.300000 0.630000 -0.300000
v 0.000000 0.110000 0.000000
vt 0.000000 1.000000
vt 1.000000 1.000000
vt 0.500000 0.000000
vt 0.000000 1.000000
vt 1.000000 1.000000
vt 0.500000 0.000000
vt 0.000000 1.000000
vt 1.000000 1.000000
vt 0.500000 0.000000
vt 0.000000 1.000000
vt 1.000000 1.000000
vt 0.500000 0.000000
f 1461/1 1462/2 1463/3
f 1464/4 1465/5 1466/6
f 1467/7 1468/8 1469/9
f 1470/10 1471/11 1472/12
o PyramidFrame
g PyramidFrame
usemtl MAT_PyramidFrame
v -0.300000 0.630000 -0.300000
v -0.300000 0.630000 -0.302500
v 0.300000 0.630000 -0.302500
v 0.300000 0.630000 -0.300000
v -0.300000 0.631768 -0.301768
v 0.300000 0.631768 -0.301768
v -0.300000 0.632500 -0.300000
v 0.300000 0.632500 -0.300000
v -0.300000 0.631768 -0.298232
v 0.300000 0.631768 -0.298232
v -0.300000 0.630000 -0.297500
v 0.300000 0.630000 -0.297500
v -0.300000 0.628232 -0.298232
v 0.300000 0.628232 -0.298232
v -0.300000 0.627500 -0.300000
v 0.300000 0.627500 -0.300000
v -0.300000 0.628232 -0.301768
v 0.300000 0.628232 -0.301768
v -0.300000 0.630000 -0.300000
v -0.298659 0.629282 -0.302586
v 0.001341 0.109282 -0.002586
v -0.000000 0.110000 0.000000
v -0.297408 0.630733 -0.301321
v 0.002592 0.110733 -0.001321
v -0.297676 0.631755 -0.299282
v 0.002324 0.111755 0.000718
v -0.299305 0.631749 -0.297664
v 0.000695 0.111749 0.002336
v -0.301341 0.630718 -0.297414
v -0.001341 0.110718 0.002586
v -0.302592 0.629267 -0.298679
v -0.002592 0.109267 0.001321
v -0.302324 0.628245 -0.300718
v -0.002324 0.108245 -0.000718
v -0.300695 0.628251 -0.302336
v -0.000695 0.108251 -0.002336
v 0.300000 0.630000 -0.300000
v 0.302500 0.630000 -0.300000
v 0.302500 0.630000 0.300000
v 0.300000 0.630000 0.300000
v 0.301768 0.631768 -0.300000
v 0.301768 0.631768 0.300000
v 0.300000 0.632500 -0.300000
v 0.300000 0.632500 0.300000
v 0.298232 0.631768 -0.300000
v 0.298232 0.631768 0.300000
v 0.297500 0.630000 -0.300000
v 0.297500 0.630000 0.300000
v 0.298232 0.628232 -0.300000
v 0.298232 0.628232 0.300000
v 0.300000 0.627500 -0.300000
v 0.300000 0.627500 0.300000
v 0.301768 0.628232 -0.300000
v 0.301768 0.628232 0.300000
v 0.300000 0.630000 -0.300000
v 0.301341 0.630718 -0.297414
v 0.001341 0.110718 0.002586
v 0.000000 0.110000 0.000000
v 0.299305 0.631749 -0.297664
v -0.000695 0.111749 0.002336
v 0.297676 0.631755 -0.299282
v -0.002324 0.111755 0.000718
v 0.297408 0.630733 -0.301321
v -0.002592 0.110733 -0.001321
v 0.298659 0.629282 -0.302586
v -0.001341 0.109282 -0.002586
v 0.300695 0.628251 -0.302336
v 0.000695 0.108251 -0.002336
v 0.302324 0.628245 -0.300718
v 0.002324 0.108245 -0.000718
v 0.302592 0.629267 -0.298679
v 0.002592 0.109267 0.001321
v 0.300000 0.630000 0.300000
v 0.300000 0.630000 0.302500
v -0.300000 0.630000 0.302500
v -0.300000 0.630000 0.300000
v 0.300000 0.631768 0.301768
v -0.300000 0.631768 0.301768
v 0.300000 0.632500 0.300000
v -0.300000 0.632500 0.300000
v 0.300000 0.631768 0.298232
v -0.300000 0.631768 0.298232
v 0.300000 0.630000 0.297500
v -0.300000 0.630000 0.297500
v 0.300000 0.628232 0.298232
v -0.300000 0.628232 0.298232
v 0.300000 0.627500 0.300000
v -0.300000 0.627500 0.300000
v 0.300000 0.628232 0.301768
v -0.300000 0.628232 0.301768
v 0.300000 0.630000 0.300000
v 0.298659 0.629282 0.302586
v -0.001341 0.109282 0.002586
v 0.000000 0.110000 0.000000
v 0.297408 0.630733 0.301321
v -0.002592 0.110733 0.001321
v 0.297676 0.631755 0.299282
v -0.002324 0.111755 -0.000718
v 0.299305 0.631749 0.297664
v -0.000695 0.111749 -0.002336
v 0.301341 0.630718 0.297414
v 0.001341 0.110718 -0.002586
v 0.302592 0.629267 0.298679
v 0.002592 0.109267 -0.001321
v 0.302324 0.628245 0.300718
v 0.002324 0.108245 0.000718
v 0.300695 0.628251 0.302336
v 0.000695 0.108251 0.002336
v -0.300000 0.630000 0.300000
v -0.302500 0.630000 0.300000
v -0.302500 0.630000 -0.300000
v -0.300000 0.630000 -0.300000
v -0.301768 0.631768 0.300000
v -0.301768 0.631768 -0.300000
v -0.300000 0.632500 0.300000
v -0.300000 0.632500 -0.300000
v -0.298232 0.631768 0.300000
v -0.298232 0.631768 -0.300000
v -0.297500 0.630000 0.300000
v -0.297500 0.630000 -0.300000
v -0.298232 0.628232 0.300000
v -0.298232 0.628232 -0.300000
v -0.300000 0.627500 0.300000
v -0.300000 0.627500 -0.300000
v -0.301768 0.628232 0.300000
v -0.301768 0.628232 -0.300000
v -0.300000 0.630000 0.300000
v -0.301341 0.630718 0.297414
v -0.001341 0.110718 -0.002586
v -0.000000 0.110000 0.000000
v -0.299305 0.631749 0.297664
v 0.000695 0.111749 -0.002336
v -0.297676 0.631755 0.299282
v 0.002324 0.111755 -0.000718
v -0.297408 0.630733 0.301321
v 0.002592 0.110733 0.001321
v -0.298659 0.629282 0.302586
v 0.001341 0.109282 0.002586
v -0.300695 0.628251 0.302336
v -0.000695 0.108251 0.002336
v -0.302324 0.628245 0.300718
v -0.002324 0.108245 0.000718
v -0.302592 0.629267 0.298679
v -0.002592 0.109267 -0.001321
v 0.000000 0.045000 0.000000
v 0.000000 0.045000 -0.002000
v 0.000000 0.110000 -0.002000
v 0.000000 0.110000 0.000000
v -0.001414 0.045000 -0.001414
v -0.001414 0.110000 -0.001414
v -0.002000 0.045000 -0.000000
v -0.002000 0.110000 -0.000000
v -0.001414 0.045000 0.001414
v -0.001414 0.110000 0.001414
v -0.000000 0.045000 0.002000
v -0.000000 0.110000 0.002000
v 0.001414 0.045000 0.001414
v 0.001414 0.110000 0.001414
v 0.002000 0.045000 0.000000
v 0.002000 0.110000 0.000000
v 0.001414 0.045000 -0.001414
v 0.001414 0.110000 -0.001414
f 1474 1473 1477
f 1474 1477 1475
f 1475 1477 1478
f 1475 1478 1476
f 1477 1473 1479
f 1477 1479 1478
f 1478 1479 1480
f 1478 1480 1476
f 1479 1473 1481
f 1479 1481 1480
f 1480 1481 1482
f 1480 1482 1476
f 1481 1473 1483
f 1481 1483 1482
f 1482 1483 1484
f 1482 1484 1476
f 1483 1473 1485
f 1483 1485 1484
f 1484 1485 1486
f 1484 1486 1476
f 1485 1473 1487
f 1485 1487 1486
f 1486 1487 1488
f 1486 1488 1476
f 1487 1473 1489
f 1487 1489 1488
f 1488 1489 1490
f 1488 1490 1476
f 1489 1473 1474
f 1489 1474 1490
f 1490 1474 1475
f 1490 1475 1476
f 1492 1491 1495
f 1492 1495 1493
f 1493 1495 1496
f 1493 1496 1494
f 1495 1491 1497
f 1495 1497 1496
f 1496 1497 1498
f 1496 1498 1494
f 1497 1491 1499
f 1497 1499 1498
f 1498 1499 1500
f 1498 1500 1494
f 1499 1491 1501
f 1499 1501 1500
f 1500 1501 1502
f 1500 1502 1494
f 1501 1491 1503
f 1501 1503 1502
f 1502 1503 1504
f 1502 1504 1494
f 1503 1491 1505
f 1503 1505 1504
f 1504 1505 1506
f 1504 1506 1494
f 1505 1491 1507
f 1505 1507 1506
f 1506 1507 1508
f 1506 1508 1494
f 1507 1491 1492
f 1507 1492 1508
f 1508 1492 1493
f 1508 1493 1494
f 1510 1509 1513
f 1510 1513 1511
f 1511 1513 1514
f 1511 1514 1512
f 1513 1509 1515
f 1513 1515 1514
f 1514 1515 1516
f 1514 1516 1512
f 1515 1509 1517
f 1515 1517 1516
f 1516 1517 1518
f 1516 1518 1512
f 1517 1509 1519
f 1517 1519 1518
f 1518 1519 1520
f 1518 1520 1512
f 1519 1509 1521
f 1519 1521 1520
f 1520 1521 1522
f 1520 1522 1512
f 1521 1509 1523
f 1521 1523 1522
f 1522 1523 1524
f 1522 1524 1512
f 1523 1509 1525
f 1523 1525 1524
f 1524 1525 1526
f 1524 1526 1512
f 1525 1509 1510
f 1525 1510 1526
f 1526 1510 1511
f 1526 1511 1512
f 1528 1527 1531
f 1528 1531 1529
f 1529 1531 1532
f 1529 1532 1530
f 1531 1527 1533
f 1531 1533 1532
f 1532 1533 1534
f 1532 1534 1530
f 1533 1527 1535
f 1533 1535 1534
f 1534 1535 1536
f 1534 1536 1530
f 1535 1527 1537
f 1535 1537 1536
f 1536 1537 1538
f 1536 1538 1530
f 1537 1527 1539
f 1537 1539 1538
f 1538 1539 1540
f 1538 1540 1530
f 1539 1527 1541
f 1539 1541 1540
f 1540 1541 1542
f 1540 1542 1530
f 1541 1527 1543
f 1541 1543 1542
f 1542 1543 1544
f 1542 1544 1530
f 1543 1527 1528
f 1543 1528 1544
f 1544 1528 1529
f 1544 1529 1530
f 1546 1545 1549
f 1546 1549 1547
f 1547 1549 1550
f 1547 1550 1548
f 1549 1545 1551
f 1549 1551 1550
f 1550 1551 1552
f 1550 1552 1548
f 1551 1545 1553
f 1551 1553 1552
f 1552 1553 1554
f 1552 1554 1548
f 1553 1545 1555
f 1553 1555 1554
f 1554 1555 1556
f 1554 1556 1548
f 1555 1545 1557
f 1555 1557 1556
f 1556 1557 1558
f 1556 1558 1548
f 1557 1545 1559
f 1557 1559 1558
f 1558 1559 1560
f 1558 1560 1548
f 1559 1545 1561
f 1559 1561 1560
f 1560 1561 1562
f 1560 1562 1548
f 1561 1545 1546
f 1561 1546 1562
f 1562 1546 1547
f 1562 1547 1548
f 1564 1563 1567
f 1564 1567 1565
f 1565 1567 1568
f 1565 1568 1566
f 1567 1563 1569
f 1567 1569 1568
f 1568 1569 1570
f 1568 1570 1566
f 1569 1563 1571
f 1569 1571 1570
f 1570 1571 1572
f 1570 1572 1566
f 1571 1563 1573
f 1571 1573 1572
f 1572 1573 1574
f 1572 1574 1566
f 1573 1563 1575
f 1573 1575 1574
f 1574 1575 1576
f 1574 1576 1566
f 1575 1563 1577
f 1575 1577 1576
f 1576 1577 1578
f 1576 1578 1566
f 1577 1563 1579
f 1577 1579 1578
f 1578 1579 1580
f 1578 1580 1566
f 1579 1563 1564
f 1579 1564 1580
f 1580 1564 1565
f 1580 1565 1566
f 1582 1581 1585
f 1582 1585 1583
f 1583 1585 1586
f 1583 1586 1584
f 1585 1581 1587
f 1585 1587 1586
f 1586 1587 1588
f 1586 1588 1584
f 1587 1581 1589
f 1587 1589 1588
f 1588 1589 1590
f 1588 1590 1584
f 1589 1581 1591
f 1589 1591 1590
f 1590 1591 1592
f 1590 1592 1584
f 1591 1581 1593
f 1591 1593 1592
f 1592 1593 1594
f 1592 1594 1584
f 1593 1581 1595
f 1593 1595 1594
f 1594 1595 1596
f 1594 1596 1584
f 1595 1581 1597
f 1595 1597 1596
f 1596 1597 1598
f 1596 1598 1584
f 1597 1581 1582
f 1597 1582 1598
f 1598 1582 1583
f 1598 1583 1584
f 1600 1599 1603
f 1600 1603 1601
f 1601 1603 1604
f 1601 1604 1602
f 1603 1599 1605
f 1603 1605 1604
f 1604 1605 1606
f 1604 1606 1602
f 1605 1599 1607
f 1605 1607 1606
f 1606 1607 1608
f 1606 1608 1602
f 1607 1599 1609
f 1607 1609 1608
f 1608 1609 1610
f 1608 1610 1602
f 1609 1599 1611
f 1609 1611 1610
f 1610 1611 1612
f 1610 1612 1602
f 1611 1599 1613
f 1611 1613 1612
f 1612 1613 1614
f 1612 1614 1602
f 1613 1599 1615
f 1613 1615 1614
f 1614 1615 1616
f 1614 1616 1602
f 1615 1599 1600
f 1615 1600 1616
f 1616 1600 1601
f 1616 1601 1602
f 1618 1617 1621
f 1618 1621 1619
f 1619 1621 1622
f 1619 1622 1620
f 1621 1617 1623
f 1621 1623 1622
f 1622 1623 1624
f 1622 1624 1620
f 1623 1617 1625
f 1623 1625 1624
f 1624 1625 1626
f 1624 1626 1620
f 1625 1617 1627
f 1625 1627 1626
f 1626 1627 1628
f 1626 1628 1620
f 1627 1617 1629
f 1627 1629 1628
f 1628 1629 1630
f 1628 1630 1620
f 1629 1617 1631
f 1629 1631 1630
f 1630 1631 1632
f 1630 1632 1620
f 1631 1617 1633
f 1631 1633 1632
f 1632 1633 1634
f 1632 1634 1620
f 1633 1617 1618
f 1633 1618 1634
f 1634 1618 1619
f 1634 1619 1620
o ContentPlane_Front
g ContentPlane_Front
usemtl MAT_ContentPlane_Front
v -0.115000 0.350000 0.004000
v 0.115000 0.350000 0.004000
v 0.115000 0.550000 0.004000
v -0.115000 0.550000 0.004000
vt 0.000000 0.000000
vt 1.000000 0.000000
vt 1.000000 1.000000
vt 0.000000 1.000000
f 1635/13 1636/14 1637/15
f 1635/13 1637/15 1638/16
o ContentPlane_Back
g ContentPlane_Back
usemtl MAT_ContentPlane_Back
v -0.115000 0.350000 -0.004000
v 0.115000 0.350000 -0.004000
v 0.115000 0.550000 -0.004000
v -0.115000 0.550000 -0.004000
vt 1.000000 0.000000
vt 0.000000 0.000000
vt 0.000000 1.000000
vt 1.000000 1.000000
f 1639/17 1641/19 1640/18
f 1639/17 1642/20 1641/19
