# SpaceGamble blank stopwatch-style number display
mtllib SpaceGamble_StopwatchCounter.mtl
o MainCase
g MainCase
usemtl MAT_MainCase
v 0.250000 0.073000 0.032000
v 0.248809 0.085096 0.032000
v 0.245281 0.096726 0.032000
v 0.239551 0.107445 0.032000
v 0.231841 0.116841 0.032000
v 0.222445 0.124551 0.032000
v 0.211726 0.130281 0.032000
v 0.200096 0.133809 0.032000
v -0.188000 0.135000 0.032000
v -0.200096 0.133809 0.032000
v -0.211726 0.130281 0.032000
v -0.222445 0.124551 0.032000
v -0.231841 0.116841 0.032000
v -0.239551 0.107445 0.032000
v -0.245281 0.096726 0.032000
v -0.248809 0.085096 0.032000
v -0.250000 -0.073000 0.032000
v -0.248809 -0.085096 0.032000
v -0.245281 -0.096726 0.032000
v -0.239551 -0.107445 0.032000
v -0.231841 -0.116841 0.032000
v -0.222445 -0.124551 0.032000
v -0.211726 -0.130281 0.032000
v -0.200096 -0.133809 0.032000
v 0.188000 -0.135000 0.032000
v 0.200096 -0.133809 0.032000
v 0.211726 -0.130281 0.032000
v 0.222445 -0.124551 0.032000
v 0.231841 -0.116841 0.032000
v 0.239551 -0.107445 0.032000
v 0.245281 -0.096726 0.032000
v 0.248809 -0.085096 0.032000
v 0.250000 0.073000 -0.032000
v 0.248809 0.085096 -0.032000
v 0.245281 0.096726 -0.032000
v 0.239551 0.107445 -0.032000
v 0.231841 0.116841 -0.032000
v 0.222445 0.124551 -0.032000
v 0.211726 0.130281 -0.032000
v 0.200096 0.133809 -0.032000
v -0.188000 0.135000 -0.032000
v -0.200096 0.133809 -0.032000
v -0.211726 0.130281 -0.032000
v -0.222445 0.124551 -0.032000
v -0.231841 0.116841 -0.032000
v -0.239551 0.107445 -0.032000
v -0.245281 0.096726 -0.032000
v -0.248809 0.085096 -0.032000
v -0.250000 -0.073000 -0.032000
v -0.248809 -0.085096 -0.032000
v -0.245281 -0.096726 -0.032000
v -0.239551 -0.107445 -0.032000
v -0.231841 -0.116841 -0.032000
v -0.222445 -0.124551 -0.032000
v -0.211726 -0.130281 -0.032000
v -0.200096 -0.133809 -0.032000
v 0.188000 -0.135000 -0.032000
v 0.200096 -0.133809 -0.032000
v 0.211726 -0.130281 -0.032000
v 0.222445 -0.124551 -0.032000
v 0.231841 -0.116841 -0.032000
v 0.239551 -0.107445 -0.032000
v 0.245281 -0.096726 -0.032000
v 0.248809 -0.085096 -0.032000
v 0.000000 0.000000 0.032000
v 0.000000 0.000000 -0.032000
f 65 1 2
f 66 34 33
f 1 33 34
f 1 34 2
f 65 2 3
f 66 35 34
f 2 34 35
f 2 35 3
f 65 3 4
f 66 36 35
f 3 35 36
f 3 36 4
f 65 4 5
f 66 37 36
f 4 36 37
f 4 37 5
f 65 5 6
f 66 38 37
f 5 37 38
f 5 38 6
f 65 6 7
f 66 39 38
f 6 38 39
f 6 39 7
f 65 7 8
f 66 40 39
f 7 39 40
f 7 40 8
f 65 8 9
f 66 41 40
f 8 40 41
f 8 41 9
f 65 9 10
f 66 42 41
f 9 41 42
f 9 42 10
f 65 10 11
f 66 43 42
f 10 42 43
f 10 43 11
f 65 11 12
f 66 44 43
f 11 43 44
f 11 44 12
f 65 12 13
f 66 45 44
f 12 44 45
f 12 45 13
f 65 13 14
f 66 46 45
f 13 45 46
f 13 46 14
f 65 14 15
f 66 47 46
f 14 46 47
f 14 47 15
f 65 15 16
f 66 48 47
f 15 47 48
f 15 48 16
f 65 16 17
f 66 49 48
f 16 48 49
f 16 49 17
f 65 17 18
f 66 50 49
f 17 49 50
f 17 50 18
f 65 18 19
f 66 51 50
f 18 50 51
f 18 51 19
f 65 19 20
f 66 52 51
f 19 51 52
f 19 52 20
f 65 20 21
f 66 53 52
f 20 52 53
f 20 53 21
f 65 21 22
f 66 54 53
f 21 53 54
f 21 54 22
f 65 22 23
f 66 55 54
f 22 54 55
f 22 55 23
f 65 23 24
f 66 56 55
f 23 55 56
f 23 56 24
f 65 24 25
f 66 57 56
f 24 56 57
f 24 57 25
f 65 25 26
f 66 58 57
f 25 57 58
f 25 58 26
f 65 26 27
f 66 59 58
f 26 58 59
f 26 59 27
f 65 27 28
f 66 60 59
f 27 59 60
f 27 60 28
f 65 28 29
f 66 61 60
f 28 60 61
f 28 61 29
f 65 29 30
f 66 62 61
f 29 61 62
f 29 62 30
f 65 30 31
f 66 63 62
f 30 62 63
f 30 63 31
f 65 31 32
f 66 64 63
f 31 63 64
f 31 64 32
f 65 32 1
f 66 33 64
f 32 64 33
f 32 33 1
o RearCover
g RearCover
usemtl MAT_RearCover
v 0.236000 0.069000 -0.030000
v 0.235001 0.079145 -0.030000
v 0.232042 0.088900 -0.030000
v 0.227236 0.097890 -0.030000
v 0.220770 0.105770 -0.030000
v 0.212890 0.112236 -0.030000
v 0.203900 0.117042 -0.030000
v 0.194145 0.120001 -0.030000
v -0.184000 0.121000 -0.030000
v -0.194145 0.120001 -0.030000
v -0.203900 0.117042 -0.030000
v -0.212890 0.112236 -0.030000
v -0.220770 0.105770 -0.030000
v -0.227236 0.097890 -0.030000
v -0.232042 0.088900 -0.030000
v -0.235001 0.079145 -0.030000
v -0.236000 -0.069000 -0.030000
v -0.235001 -0.079145 -0.030000
v -0.232042 -0.088900 -0.030000
v -0.227236 -0.097890 -0.030000
v -0.220770 -0.105770 -0.030000
v -0.212890 -0.112236 -0.030000
v -0.203900 -0.117042 -0.030000
v -0.194145 -0.120001 -0.030000
v 0.184000 -0.121000 -0.030000
v 0.194145 -0.120001 -0.030000
v 0.203900 -0.117042 -0.030000
v 0.212890 -0.112236 -0.030000
v 0.220770 -0.105770 -0.030000
v 0.227236 -0.097890 -0.030000
v 0.232042 -0.088900 -0.030000
v 0.235001 -0.079145 -0.030000
v 0.236000 0.069000 -0.040000
v 0.235001 0.079145 -0.040000
v 0.232042 0.088900 -0.040000
v 0.227236 0.097890 -0.040000
v 0.220770 0.105770 -0.040000
v 0.212890 0.112236 -0.040000
v 0.203900 0.117042 -0.040000
v 0.194145 0.120001 -0.040000
v -0.184000 0.121000 -0.040000
v -0.194145 0.120001 -0.040000
v -0.203900 0.117042 -0.040000
v -0.212890 0.112236 -0.040000
v -0.220770 0.105770 -0.040000
v -0.227236 0.097890 -0.040000
v -0.232042 0.088900 -0.040000
v -0.235001 0.079145 -0.040000
v -0.236000 -0.069000 -0.040000
v -0.235001 -0.079145 -0.040000
v -0.232042 -0.088900 -0.040000
v -0.227236 -0.097890 -0.040000
v -0.220770 -0.105770 -0.040000
v -0.212890 -0.112236 -0.040000
v -0.203900 -0.117042 -0.040000
v -0.194145 -0.120001 -0.040000
v 0.184000 -0.121000 -0.040000
v 0.194145 -0.120001 -0.040000
v 0.203900 -0.117042 -0.040000
v 0.212890 -0.112236 -0.040000
v 0.220770 -0.105770 -0.040000
v 0.227236 -0.097890 -0.040000
v 0.232042 -0.088900 -0.040000
v 0.235001 -0.079145 -0.040000
v 0.000000 0.000000 -0.030000
v 0.000000 0.000000 -0.040000
f 131 67 68
f 132 100 99
f 67 99 100
f 67 100 68
f 131 68 69
f 132 101 100
f 68 100 101
f 68 101 69
f 131 69 70
f 132 102 101
f 69 101 102
f 69 102 70
f 131 70 71
f 132 103 102
f 70 102 103
f 70 103 71
f 131 71 72
f 132 104 103
f 71 103 104
f 71 104 72
f 131 72 73
f 132 105 104
f 72 104 105
f 72 105 73
f 131 73 74
f 132 106 105
f 73 105 106
f 73 106 74
f 131 74 75
f 132 107 106
f 74 106 107
f 74 107 75
f 131 75 76
f 132 108 107
f 75 107 108
f 75 108 76
f 131 76 77
f 132 109 108
f 76 108 109
f 76 109 77
f 131 77 78
f 132 110 109
f 77 109 110
f 77 110 78
f 131 78 79
f 132 111 110
f 78 110 111
f 78 111 79
f 131 79 80
f 132 112 111
f 79 111 112
f 79 112 80
f 131 80 81
f 132 113 112
f 80 112 113
f 80 113 81
f 131 81 82
f 132 114 113
f 81 113 114
f 81 114 82
f 131 82 83
f 132 115 114
f 82 114 115
f 82 115 83
f 131 83 84
f 132 116 115
f 83 115 116
f 83 116 84
f 131 84 85
f 132 117 116
f 84 116 117
f 84 117 85
f 131 85 86
f 132 118 117
f 85 117 118
f 85 118 86
f 131 86 87
f 132 119 118
f 86 118 119
f 86 119 87
f 131 87 88
f 132 120 119
f 87 119 120
f 87 120 88
f 131 88 89
f 132 121 120
f 88 120 121
f 88 121 89
f 131 89 90
f 132 122 121
f 89 121 122
f 89 122 90
f 131 90 91
f 132 123 122
f 90 122 123
f 90 123 91
f 131 91 92
f 132 124 123
f 91 123 124
f 91 124 92
f 131 92 93
f 132 125 124
f 92 124 125
f 92 125 93
f 131 93 94
f 132 126 125
f 93 125 126
f 93 126 94
f 131 94 95
f 132 127 126
f 94 126 127
f 94 127 95
f 131 95 96
f 132 128 127
f 95 127 128
f 95 128 96
f 131 96 97
f 132 129 128
f 96 128 129
f 96 129 97
f 131 97 98
f 132 130 129
f 97 129 130
f 97 130 98
f 131 98 67
f 132 99 130
f 98 130 99
f 98 99 67
o FrontBezel
g FrontBezel
usemtl MAT_FrontBezel
v 0.232000 0.070000 0.039000
v 0.231116 0.078974 0.039000
v 0.228498 0.087603 0.039000
v 0.224248 0.095556 0.039000
v 0.218527 0.102527 0.039000
v 0.211556 0.108248 0.039000
v 0.203603 0.112498 0.039000
v 0.194974 0.115116 0.039000
v -0.186000 0.116000 0.039000
v -0.194974 0.115116 0.039000
v -0.203603 0.112498 0.039000
v -0.211556 0.108248 0.039000
v -0.218527 0.102527 0.039000
v -0.224248 0.095556 0.039000
v -0.228498 0.087603 0.039000
v -0.231116 0.078974 0.039000
v -0.232000 -0.070000 0.039000
v -0.231116 -0.078974 0.039000
v -0.228498 -0.087603 0.039000
v -0.224248 -0.095556 0.039000
v -0.218527 -0.102527 0.039000
v -0.211556 -0.108248 0.039000
v -0.203603 -0.112498 0.039000
v -0.194974 -0.115116 0.039000
v 0.186000 -0.116000 0.039000
v 0.194974 -0.115116 0.039000
v 0.203603 -0.112498 0.039000
v 0.211556 -0.108248 0.039000
v 0.218527 -0.102527 0.039000
v 0.224248 -0.095556 0.039000
v 0.228498 -0.087603 0.039000
v 0.231116 -0.078974 0.039000
v 0.232000 0.070000 0.029000
v 0.231116 0.078974 0.029000
v 0.228498 0.087603 0.029000
v 0.224248 0.095556 0.029000
v 0.218527 0.102527 0.029000
v 0.211556 0.108248 0.029000
v 0.203603 0.112498 0.029000
v 0.194974 0.115116 0.029000
v -0.186000 0.116000 0.029000
v -0.194974 0.115116 0.029000
v -0.203603 0.112498 0.029000
v -0.211556 0.108248 0.029000
v -0.218527 0.102527 0.029000
v -0.224248 0.095556 0.029000
v -0.228498 0.087603 0.029000
v -0.231116 0.078974 0.029000
v -0.232000 -0.070000 0.029000
v -0.231116 -0.078974 0.029000
v -0.228498 -0.087603 0.029000
v -0.224248 -0.095556 0.029000
v -0.218527 -0.102527 0.029000
v -0.211556 -0.108248 0.029000
v -0.203603 -0.112498 0.029000
v -0.194974 -0.115116 0.029000
v 0.186000 -0.116000 0.029000
v 0.194974 -0.115116 0.029000
v 0.203603 -0.112498 0.029000
v 0.211556 -0.108248 0.029000
v 0.218527 -0.102527 0.029000
v 0.224248 -0.095556 0.029000
v 0.228498 -0.087603 0.029000
v 0.231116 -0.078974 0.029000
v 0.000000 0.000000 0.039000
v 0.000000 0.000000 0.029000
f 197 133 134
f 198 166 165
f 133 165 166
f 133 166 134
f 197 134 135
f 198 167 166
f 134 166 167
f 134 167 135
f 197 135 136
f 198 168 167
f 135 167 168
f 135 168 136
f 197 136 137
f 198 169 168
f 136 168 169
f 136 169 137
f 197 137 138
f 198 170 169
f 137 169 170
f 137 170 138
f 197 138 139
f 198 171 170
f 138 170 171
f 138 171 139
f 197 139 140
f 198 172 171
f 139 171 172
f 139 172 140
f 197 140 141
f 198 173 172
f 140 172 173
f 140 173 141
f 197 141 142
f 198 174 173
f 141 173 174
f 141 174 142
f 197 142 143
f 198 175 174
f 142 174 175
f 142 175 143
f 197 143 144
f 198 176 175
f 143 175 176
f 143 176 144
f 197 144 145
f 198 177 176
f 144 176 177
f 144 177 145
f 197 145 146
f 198 178 177
f 145 177 178
f 145 178 146
f 197 146 147
f 198 179 178
f 146 178 179
f 146 179 147
f 197 147 148
f 198 180 179
f 147 179 180
f 147 180 148
f 197 148 149
f 198 181 180
f 148 180 181
f 148 181 149
f 197 149 150
f 198 182 181
f 149 181 182
f 149 182 150
f 197 150 151
f 198 183 182
f 150 182 183
f 150 183 151
f 197 151 152
f 198 184 183
f 151 183 184
f 151 184 152
f 197 152 153
f 198 185 184
f 152 184 185
f 152 185 153
f 197 153 154
f 198 186 185
f 153 185 186
f 153 186 154
f 197 154 155
f 198 187 186
f 154 186 187
f 154 187 155
f 197 155 156
f 198 188 187
f 155 187 188
f 155 188 156
f 197 156 157
f 198 189 188
f 156 188 189
f 156 189 157
f 197 157 158
f 198 190 189
f 157 189 190
f 157 190 158
f 197 158 159
f 198 191 190
f 158 190 191
f 158 191 159
f 197 159 160
f 198 192 191
f 159 191 192
f 159 192 160
f 197 160 161
f 198 193 192
f 160 192 193
f 160 193 161
f 197 161 162
f 198 194 193
f 161 193 194
f 161 194 162
f 197 162 163
f 198 195 194
f 162 194 195
f 162 195 163
f 197 163 164
f 198 196 195
f 163 195 196
f 163 196 164
f 197 164 133
f 198 165 196
f 164 196 165
f 164 165 133
o DisplayGlass
g DisplayGlass
usemtl MAT_DisplayGlass
v 0.213000 0.066000 0.041000
v 0.212500 0.071072 0.041000
v 0.211021 0.075950 0.041000
v 0.208618 0.080445 0.041000
v 0.205385 0.084385 0.041000
v 0.201445 0.087618 0.041000
v 0.196950 0.090021 0.041000
v 0.192072 0.091500 0.041000
v -0.187000 0.092000 0.041000
v -0.192072 0.091500 0.041000
v -0.196950 0.090021 0.041000
v -0.201445 0.087618 0.041000
v -0.205385 0.084385 0.041000
v -0.208618 0.080445 0.041000
v -0.211021 0.075950 0.041000
v -0.212500 0.071072 0.041000
v -0.213000 -0.066000 0.041000
v -0.212500 -0.071072 0.041000
v -0.211021 -0.075950 0.041000
v -0.208618 -0.080445 0.041000
v -0.205385 -0.084385 0.041000
v -0.201445 -0.087618 0.041000
v -0.196950 -0.090021 0.041000
v -0.192072 -0.091500 0.041000
v 0.187000 -0.092000 0.041000
v 0.192072 -0.091500 0.041000
v 0.196950 -0.090021 0.041000
v 0.201445 -0.087618 0.041000
v 0.205385 -0.084385 0.041000
v 0.208618 -0.080445 0.041000
v 0.211021 -0.075950 0.041000
v 0.212500 -0.071072 0.041000
v 0.213000 0.066000 0.039000
v 0.212500 0.071072 0.039000
v 0.211021 0.075950 0.039000
v 0.208618 0.080445 0.039000
v 0.205385 0.084385 0.039000
v 0.201445 0.087618 0.039000
v 0.196950 0.090021 0.039000
v 0.192072 0.091500 0.039000
v -0.187000 0.092000 0.039000
v -0.192072 0.091500 0.039000
v -0.196950 0.090021 0.039000
v -0.201445 0.087618 0.039000
v -0.205385 0.084385 0.039000
v -0.208618 0.080445 0.039000
v -0.211021 0.075950 0.039000
v -0.212500 0.071072 0.039000
v -0.213000 -0.066000 0.039000
v -0.212500 -0.071072 0.039000
v -0.211021 -0.075950 0.039000
v -0.208618 -0.080445 0.039000
v -0.205385 -0.084385 0.039000
v -0.201445 -0.087618 0.039000
v -0.196950 -0.090021 0.039000
v -0.192072 -0.091500 0.039000
v 0.187000 -0.092000 0.039000
v 0.192072 -0.091500 0.039000
v 0.196950 -0.090021 0.039000
v 0.201445 -0.087618 0.039000
v 0.205385 -0.084385 0.039000
v 0.208618 -0.080445 0.039000
v 0.211021 -0.075950 0.039000
v 0.212500 -0.071072 0.039000
v 0.000000 0.000000 0.041000
v 0.000000 0.000000 0.039000
f 263 199 200
f 264 232 231
f 199 231 232
f 199 232 200
f 263 200 201
f 264 233 232
f 200 232 233
f 200 233 201
f 263 201 202
f 264 234 233
f 201 233 234
f 201 234 202
f 263 202 203
f 264 235 234
f 202 234 235
f 202 235 203
f 263 203 204
f 264 236 235
f 203 235 236
f 203 236 204
f 263 204 205
f 264 237 236
f 204 236 237
f 204 237 205
f 263 205 206
f 264 238 237
f 205 237 238
f 205 238 206
f 263 206 207
f 264 239 238
f 206 238 239
f 206 239 207
f 263 207 208
f 264 240 239
f 207 239 240
f 207 240 208
f 263 208 209
f 264 241 240
f 208 240 241
f 208 241 209
f 263 209 210
f 264 242 241
f 209 241 242
f 209 242 210
f 263 210 211
f 264 243 242
f 210 242 243
f 210 243 211
f 263 211 212
f 264 244 243
f 211 243 244
f 211 244 212
f 263 212 213
f 264 245 244
f 212 244 245
f 212 245 213
f 263 213 214
f 264 246 245
f 213 245 246
f 213 246 214
f 263 214 215
f 264 247 246
f 214 246 247
f 214 247 215
f 263 215 216
f 264 248 247
f 215 247 248
f 215 248 216
f 263 216 217
f 264 249 248
f 216 248 249
f 216 249 217
f 263 217 218
f 264 250 249
f 217 249 250
f 217 250 218
f 263 218 219
f 264 251 250
f 218 250 251
f 218 251 219
f 263 219 220
f 264 252 251
f 219 251 252
f 219 252 220
f 263 220 221
f 264 253 252
f 220 252 253
f 220 253 221
f 263 221 222
f 264 254 253
f 221 253 254
f 221 254 222
f 263 222 223
f 264 255 254
f 222 254 255
f 222 255 223
f 263 223 224
f 264 256 255
f 223 255 256
f 223 256 224
f 263 224 225
f 264 257 256
f 224 256 257
f 224 257 225
f 263 225 226
f 264 258 257
f 225 257 258
f 225 258 226
f 263 226 227
f 264 259 258
f 226 258 259
f 226 259 227
f 263 227 228
f 264 260 259
f 227 259 260
f 227 260 228
f 263 228 229
f 264 261 260
f 228 260 261
f 228 261 229
f 263 229 230
f 264 262 261
f 229 261 262
f 229 262 230
f 263 230 199
f 264 231 262
f 230 262 231
f 230 231 199
o BezelFastener_1
g BezelFastener_1
usemtl MAT_BezelFastener_1
v -0.216000 0.096000 0.039100
v -0.211800 0.096000 0.039100
v -0.211800 0.096000 0.040900
v -0.216000 0.096000 0.040900
v -0.212006 0.097298 0.039100
v -0.212006 0.097298 0.040900
v -0.212602 0.098469 0.039100
v -0.212602 0.098469 0.040900
v -0.213531 0.099398 0.039100
v -0.213531 0.099398 0.040900
v -0.214702 0.099994 0.039100
v -0.214702 0.099994 0.040900
v -0.216000 0.100200 0.039100
v -0.216000 0.100200 0.040900
v -0.217298 0.099994 0.039100
v -0.217298 0.099994 0.040900
v -0.218469 0.099398 0.039100
v -0.218469 0.099398 0.040900
v -0.219398 0.098469 0.039100
v -0.219398 0.098469 0.040900
v -0.219994 0.097298 0.039100
v -0.219994 0.097298 0.040900
v -0.220200 0.096000 0.039100
v -0.220200 0.096000 0.040900
v -0.219994 0.094702 0.039100
v -0.219994 0.094702 0.040900
v -0.219398 0.093531 0.039100
v -0.219398 0.093531 0.040900
v -0.218469 0.092602 0.039100
v -0.218469 0.092602 0.040900
v -0.217298 0.092006 0.039100
v -0.217298 0.092006 0.040900
v -0.216000 0.091800 0.039100
v -0.216000 0.091800 0.040900
v -0.214702 0.092006 0.039100
v -0.214702 0.092006 0.040900
v -0.213531 0.092602 0.039100
v -0.213531 0.092602 0.040900
v -0.212602 0.093531 0.039100
v -0.212602 0.093531 0.040900
v -0.212006 0.094702 0.039100
v -0.212006 0.094702 0.040900
f 266 265 269
f 266 269 267
f 267 269 270
f 267 270 268
f 269 265 271
f 269 271 270
f 270 271 272
f 270 272 268
f 271 265 273
f 271 273 272
f 272 273 274
f 272 274 268
f 273 265 275
f 273 275 274
f 274 275 276
f 274 276 268
f 275 265 277
f 275 277 276
f 276 277 278
f 276 278 268
f 277 265 279
f 277 279 278
f 278 279 280
f 278 280 268
f 279 265 281
f 279 281 280
f 280 281 282
f 280 282 268
f 281 265 283
f 281 283 282
f 282 283 284
f 282 284 268
f 283 265 285
f 283 285 284
f 284 285 286
f 284 286 268
f 285 265 287
f 285 287 286
f 286 287 288
f 286 288 268
f 287 265 289
f 287 289 288
f 288 289 290
f 288 290 268
f 289 265 291
f 289 291 290
f 290 291 292
f 290 292 268
f 291 265 293
f 291 293 292
f 292 293 294
f 292 294 268
f 293 265 295
f 293 295 294
f 294 295 296
f 294 296 268
f 295 265 297
f 295 297 296
f 296 297 298
f 296 298 268
f 297 265 299
f 297 299 298
f 298 299 300
f 298 300 268
f 299 265 301
f 299 301 300
f 300 301 302
f 300 302 268
f 301 265 303
f 301 303 302
f 302 303 304
f 302 304 268
f 303 265 305
f 303 305 304
f 304 305 306
f 304 306 268
f 305 265 266
f 305 266 306
f 306 266 267
f 306 267 268
o FastenerSlot_1
g FastenerSlot_1
usemtl MAT_FastenerSlot_1
v -0.213750 0.096075 0.041375
v -0.213773 0.096190 0.041375
v -0.213838 0.096287 0.041375
v -0.213935 0.096352 0.041375
v -0.217950 0.096375 0.041375
v -0.218065 0.096352 0.041375
v -0.218162 0.096287 0.041375
v -0.218227 0.096190 0.041375
v -0.218250 0.095925 0.041375
v -0.218227 0.095810 0.041375
v -0.218162 0.095713 0.041375
v -0.218065 0.095648 0.041375
v -0.214050 0.095625 0.041375
v -0.213935 0.095648 0.041375
v -0.213838 0.095713 0.041375
v -0.213773 0.095810 0.041375
v -0.213750 0.096075 0.040925
v -0.213773 0.096190 0.040925
v -0.213838 0.096287 0.040925
v -0.213935 0.096352 0.040925
v -0.217950 0.096375 0.040925
v -0.218065 0.096352 0.040925
v -0.218162 0.096287 0.040925
v -0.218227 0.096190 0.040925
v -0.218250 0.095925 0.040925
v -0.218227 0.095810 0.040925
v -0.218162 0.095713 0.040925
v -0.218065 0.095648 0.040925
v -0.214050 0.095625 0.040925
v -0.213935 0.095648 0.040925
v -0.213838 0.095713 0.040925
v -0.213773 0.095810 0.040925
v -0.216000 0.096000 0.041375
v -0.216000 0.096000 0.040925
f 339 307 308
f 340 324 323
f 307 323 324
f 307 324 308
f 339 308 309
f 340 325 324
f 308 324 325
f 308 325 309
f 339 309 310
f 340 326 325
f 309 325 326
f 309 326 310
f 339 310 311
f 340 327 326
f 310 326 327
f 310 327 311
f 339 311 312
f 340 328 327
f 311 327 328
f 311 328 312
f 339 312 313
f 340 329 328
f 312 328 329
f 312 329 313
f 339 313 314
f 340 330 329
f 313 329 330
f 313 330 314
f 339 314 315
f 340 331 330
f 314 330 331
f 314 331 315
f 339 315 316
f 340 332 331
f 315 331 332
f 315 332 316
f 339 316 317
f 340 333 332
f 316 332 333
f 316 333 317
f 339 317 318
f 340 334 333
f 317 333 334
f 317 334 318
f 339 318 319
f 340 335 334
f 318 334 335
f 318 335 319
f 339 319 320
f 340 336 335
f 319 335 336
f 319 336 320
f 339 320 321
f 340 337 336
f 320 336 337
f 320 337 321
f 339 321 322
f 340 338 337
f 321 337 338
f 321 338 322
f 339 322 307
f 340 323 338
f 322 338 323
f 322 323 307
o BezelFastener_2
g BezelFastener_2
usemtl MAT_BezelFastener_2
v 0.216000 0.096000 0.039100
v 0.220200 0.096000 0.039100
v 0.220200 0.096000 0.040900
v 0.216000 0.096000 0.040900
v 0.219994 0.097298 0.039100
v 0.219994 0.097298 0.040900
v 0.219398 0.098469 0.039100
v 0.219398 0.098469 0.040900
v 0.218469 0.099398 0.039100
v 0.218469 0.099398 0.040900
v 0.217298 0.099994 0.039100
v 0.217298 0.099994 0.040900
v 0.216000 0.100200 0.039100
v 0.216000 0.100200 0.040900
v 0.214702 0.099994 0.039100
v 0.214702 0.099994 0.040900
v 0.213531 0.099398 0.039100
v 0.213531 0.099398 0.040900
v 0.212602 0.098469 0.039100
v 0.212602 0.098469 0.040900
v 0.212006 0.097298 0.039100
v 0.212006 0.097298 0.040900
v 0.211800 0.096000 0.039100
v 0.211800 0.096000 0.040900
v 0.212006 0.094702 0.039100
v 0.212006 0.094702 0.040900
v 0.212602 0.093531 0.039100
v 0.212602 0.093531 0.040900
v 0.213531 0.092602 0.039100
v 0.213531 0.092602 0.040900
v 0.214702 0.092006 0.039100
v 0.214702 0.092006 0.040900
v 0.216000 0.091800 0.039100
v 0.216000 0.091800 0.040900
v 0.217298 0.092006 0.039100
v 0.217298 0.092006 0.040900
v 0.218469 0.092602 0.039100
v 0.218469 0.092602 0.040900
v 0.219398 0.093531 0.039100
v 0.219398 0.093531 0.040900
v 0.219994 0.094702 0.039100
v 0.219994 0.094702 0.040900
f 342 341 345
f 342 345 343
f 343 345 346
f 343 346 344
f 345 341 347
f 345 347 346
f 346 347 348
f 346 348 344
f 347 341 349
f 347 349 348
f 348 349 350
f 348 350 344
f 349 341 351
f 349 351 350
f 350 351 352
f 350 352 344
f 351 341 353
f 351 353 352
f 352 353 354
f 352 354 344
f 353 341 355
f 353 355 354
f 354 355 356
f 354 356 344
f 355 341 357
f 355 357 356
f 356 357 358
f 356 358 344
f 357 341 359
f 357 359 358
f 358 359 360
f 358 360 344
f 359 341 361
f 359 361 360
f 360 361 362
f 360 362 344
f 361 341 363
f 361 363 362
f 362 363 364
f 362 364 344
f 363 341 365
f 363 365 364
f 364 365 366
f 364 366 344
f 365 341 367
f 365 367 366
f 366 367 368
f 366 368 344
f 367 341 369
f 367 369 368
f 368 369 370
f 368 370 344
f 369 341 371
f 369 371 370
f 370 371 372
f 370 372 344
f 371 341 373
f 371 373 372
f 372 373 374
f 372 374 344
f 373 341 375
f 373 375 374
f 374 375 376
f 374 376 344
f 375 341 377
f 375 377 376
f 376 377 378
f 376 378 344
f 377 341 379
f 377 379 378
f 378 379 380
f 378 380 344
f 379 341 381
f 379 381 380
f 380 381 382
f 380 382 344
f 381 341 342
f 381 342 382
f 382 342 343
f 382 343 344
o FastenerSlot_2
g FastenerSlot_2
usemtl MAT_FastenerSlot_2
v 0.218250 0.096075 0.041375
v 0.218227 0.096190 0.041375
v 0.218162 0.096287 0.041375
v 0.218065 0.096352 0.041375
v 0.214050 0.096375 0.041375
v 0.213935 0.096352 0.041375
v 0.213838 0.096287 0.041375
v 0.213773 0.096190 0.041375
v 0.213750 0.095925 0.041375
v 0.213773 0.095810 0.041375
v 0.213838 0.095713 0.041375
v 0.213935 0.095648 0.041375
v 0.217950 0.095625 0.041375
v 0.218065 0.095648 0.041375
v 0.218162 0.095713 0.041375
v 0.218227 0.095810 0.041375
v 0.218250 0.096075 0.040925
v 0.218227 0.096190 0.040925
v 0.218162 0.096287 0.040925
v 0.218065 0.096352 0.040925
v 0.214050 0.096375 0.040925
v 0.213935 0.096352 0.040925
v 0.213838 0.096287 0.040925
v 0.213773 0.096190 0.040925
v 0.213750 0.095925 0.040925
v 0.213773 0.095810 0.040925
v 0.213838 0.095713 0.040925
v 0.213935 0.095648 0.040925
v 0.217950 0.095625 0.040925
v 0.218065 0.095648 0.040925
v 0.218162 0.095713 0.040925
v 0.218227 0.095810 0.040925
v 0.216000 0.096000 0.041375
v 0.216000 0.096000 0.040925
f 415 383 384
f 416 400 399
f 383 399 400
f 383 400 384
f 415 384 385
f 416 401 400
f 384 400 401
f 384 401 385
f 415 385 386
f 416 402 401
f 385 401 402
f 385 402 386
f 415 386 387
f 416 403 402
f 386 402 403
f 386 403 387
f 415 387 388
f 416 404 403
f 387 403 404
f 387 404 388
f 415 388 389
f 416 405 404
f 388 404 405
f 388 405 389
f 415 389 390
f 416 406 405
f 389 405 406
f 389 406 390
f 415 390 391
f 416 407 406
f 390 406 407
f 390 407 391
f 415 391 392
f 416 408 407
f 391 407 408
f 391 408 392
f 415 392 393
f 416 409 408
f 392 408 409
f 392 409 393
f 415 393 394
f 416 410 409
f 393 409 410
f 393 410 394
f 415 394 395
f 416 411 410
f 394 410 411
f 394 411 395
f 415 395 396
f 416 412 411
f 395 411 412
f 395 412 396
f 415 396 397
f 416 413 412
f 396 412 413
f 396 413 397
f 415 397 398
f 416 414 413
f 397 413 414
f 397 414 398
f 415 398 383
f 416 399 414
f 398 414 399
f 398 399 383
o BezelFastener_3
g BezelFastener_3
usemtl MAT_BezelFastener_3
v -0.216000 -0.096000 0.039100
v -0.211800 -0.096000 0.039100
v -0.211800 -0.096000 0.040900
v -0.216000 -0.096000 0.040900
v -0.212006 -0.094702 0.039100
v -0.212006 -0.094702 0.040900
v -0.212602 -0.093531 0.039100
v -0.212602 -0.093531 0.040900
v -0.213531 -0.092602 0.039100
v -0.213531 -0.092602 0.040900
v -0.214702 -0.092006 0.039100
v -0.214702 -0.092006 0.040900
v -0.216000 -0.091800 0.039100
v -0.216000 -0.091800 0.040900
v -0.217298 -0.092006 0.039100
v -0.217298 -0.092006 0.040900
v -0.218469 -0.092602 0.039100
v -0.218469 -0.092602 0.040900
v -0.219398 -0.093531 0.039100
v -0.219398 -0.093531 0.040900
v -0.219994 -0.094702 0.039100
v -0.219994 -0.094702 0.040900
v -0.220200 -0.096000 0.039100
v -0.220200 -0.096000 0.040900
v -0.219994 -0.097298 0.039100
v -0.219994 -0.097298 0.040900
v -0.219398 -0.098469 0.039100
v -0.219398 -0.098469 0.040900
v -0.218469 -0.099398 0.039100
v -0.218469 -0.099398 0.040900
v -0.217298 -0.099994 0.039100
v -0.217298 -0.099994 0.040900
v -0.216000 -0.100200 0.039100
v -0.216000 -0.100200 0.040900
v -0.214702 -0.099994 0.039100
v -0.214702 -0.099994 0.040900
v -0.213531 -0.099398 0.039100
v -0.213531 -0.099398 0.040900
v -0.212602 -0.098469 0.039100
v -0.212602 -0.098469 0.040900
v -0.212006 -0.097298 0.039100
v -0.212006 -0.097298 0.040900
f 418 417 421
f 418 421 419
f 419 421 422
f 419 422 420
f 421 417 423
f 421 423 422
f 422 423 424
f 422 424 420
f 423 417 425
f 423 425 424
f 424 425 426
f 424 426 420
f 425 417 427
f 425 427 426
f 426 427 428
f 426 428 420
f 427 417 429
f 427 429 428
f 428 429 430
f 428 430 420
f 429 417 431
f 429 431 430
f 430 431 432
f 430 432 420
f 431 417 433
f 431 433 432
f 432 433 434
f 432 434 420
f 433 417 435
f 433 435 434
f 434 435 436
f 434 436 420
f 435 417 437
f 435 437 436
f 436 437 438
f 436 438 420
f 437 417 439
f 437 439 438
f 438 439 440
f 438 440 420
f 439 417 441
f 439 441 440
f 440 441 442
f 440 442 420
f 441 417 443
f 441 443 442
f 442 443 444
f 442 444 420
f 443 417 445
f 443 445 444
f 444 445 446
f 444 446 420
f 445 417 447
f 445 447 446
f 446 447 448
f 446 448 420
f 447 417 449
f 447 449 448
f 448 449 450
f 448 450 420
f 449 417 451
f 449 451 450
f 450 451 452
f 450 452 420
f 451 417 453
f 451 453 452
f 452 453 454
f 452 454 420
f 453 417 455
f 453 455 454
f 454 455 456
f 454 456 420
f 455 417 457
f 455 457 456
f 456 457 458
f 456 458 420
f 457 417 418
f 457 418 458
f 458 418 419
f 458 419 420
o FastenerSlot_3
g FastenerSlot_3
usemtl MAT_FastenerSlot_3
v -0.213750 -0.095925 0.041375
v -0.213773 -0.095810 0.041375
v -0.213838 -0.095713 0.041375
v -0.213935 -0.095648 0.041375
v -0.217950 -0.095625 0.041375
v -0.218065 -0.095648 0.041375
v -0.218162 -0.095713 0.041375
v -0.218227 -0.095810 0.041375
v -0.218250 -0.096075 0.041375
v -0.218227 -0.096190 0.041375
v -0.218162 -0.096287 0.041375
v -0.218065 -0.096352 0.041375
v -0.214050 -0.096375 0.041375
v -0.213935 -0.096352 0.041375
v -0.213838 -0.096287 0.041375
v -0.213773 -0.096190 0.041375
v -0.213750 -0.095925 0.040925
v -0.213773 -0.095810 0.040925
v -0.213838 -0.095713 0.040925
v -0.213935 -0.095648 0.040925
v -0.217950 -0.095625 0.040925
v -0.218065 -0.095648 0.040925
v -0.218162 -0.095713 0.040925
v -0.218227 -0.095810 0.040925
v -0.218250 -0.096075 0.040925
v -0.218227 -0.096190 0.040925
v -0.218162 -0.096287 0.040925
v -0.218065 -0.096352 0.040925
v -0.214050 -0.096375 0.040925
v -0.213935 -0.096352 0.040925
v -0.213838 -0.096287 0.040925
v -0.213773 -0.096190 0.040925
v -0.216000 -0.096000 0.041375
v -0.216000 -0.096000 0.040925
f 491 459 460
f 492 476 475
f 459 475 476
f 459 476 460
f 491 460 461
f 492 477 476
f 460 476 477
f 460 477 461
f 491 461 462
f 492 478 477
f 461 477 478
f 461 478 462
f 491 462 463
f 492 479 478
f 462 478 479
f 462 479 463
f 491 463 464
f 492 480 479
f 463 479 480
f 463 480 464
f 491 464 465
f 492 481 480
f 464 480 481
f 464 481 465
f 491 465 466
f 492 482 481
f 465 481 482
f 465 482 466
f 491 466 467
f 492 483 482
f 466 482 483
f 466 483 467
f 491 467 468
f 492 484 483
f 467 483 484
f 467 484 468
f 491 468 469
f 492 485 484
f 468 484 485
f 468 485 469
f 491 469 470
f 492 486 485
f 469 485 486
f 469 486 470
f 491 470 471
f 492 487 486
f 470 486 487
f 470 487 471
f 491 471 472
f 492 488 487
f 471 487 488
f 471 488 472
f 491 472 473
f 492 489 488
f 472 488 489
f 472 489 473
f 491 473 474
f 492 490 489
f 473 489 490
f 473 490 474
f 491 474 459
f 492 475 490
f 474 490 475
f 474 475 459
o BezelFastener_4
g BezelFastener_4
usemtl MAT_BezelFastener_4
v 0.216000 -0.096000 0.039100
v 0.220200 -0.096000 0.039100
v 0.220200 -0.096000 0.040900
v 0.216000 -0.096000 0.040900
v 0.219994 -0.094702 0.039100
v 0.219994 -0.094702 0.040900
v 0.219398 -0.093531 0.039100
v 0.219398 -0.093531 0.040900
v 0.218469 -0.092602 0.039100
v 0.218469 -0.092602 0.040900
v 0.217298 -0.092006 0.039100
v 0.217298 -0.092006 0.040900
v 0.216000 -0.091800 0.039100
v 0.216000 -0.091800 0.040900
v 0.214702 -0.092006 0.039100
v 0.214702 -0.092006 0.040900
v 0.213531 -0.092602 0.039100
v 0.213531 -0.092602 0.040900
v 0.212602 -0.093531 0.039100
v 0.212602 -0.093531 0.040900
v 0.212006 -0.094702 0.039100
v 0.212006 -0.094702 0.040900
v 0.211800 -0.096000 0.039100
v 0.211800 -0.096000 0.040900
v 0.212006 -0.097298 0.039100
v 0.212006 -0.097298 0.040900
v 0.212602 -0.098469 0.039100
v 0.212602 -0.098469 0.040900
v 0.213531 -0.099398 0.039100
v 0.213531 -0.099398 0.040900
v 0.214702 -0.099994 0.039100
v 0.214702 -0.099994 0.040900
v 0.216000 -0.100200 0.039100
v 0.216000 -0.100200 0.040900
v 0.217298 -0.099994 0.039100
v 0.217298 -0.099994 0.040900
v 0.218469 -0.099398 0.039100
v 0.218469 -0.099398 0.040900
v 0.219398 -0.098469 0.039100
v 0.219398 -0.098469 0.040900
v 0.219994 -0.097298 0.039100
v 0.219994 -0.097298 0.040900
f 494 493 497
f 494 497 495
f 495 497 498
f 495 498 496
f 497 493 499
f 497 499 498
f 498 499 500
f 498 500 496
f 499 493 501
f 499 501 500
f 500 501 502
f 500 502 496
f 501 493 503
f 501 503 502
f 502 503 504
f 502 504 496
f 503 493 505
f 503 505 504
f 504 505 506
f 504 506 496
f 505 493 507
f 505 507 506
f 506 507 508
f 506 508 496
f 507 493 509
f 507 509 508
f 508 509 510
f 508 510 496
f 509 493 511
f 509 511 510
f 510 511 512
f 510 512 496
f 511 493 513
f 511 513 512
f 512 513 514
f 512 514 496
f 513 493 515
f 513 515 514
f 514 515 516
f 514 516 496
f 515 493 517
f 515 517 516
f 516 517 518
f 516 518 496
f 517 493 519
f 517 519 518
f 518 519 520
f 518 520 496
f 519 493 521
f 519 521 520
f 520 521 522
f 520 522 496
f 521 493 523
f 521 523 522
f 522 523 524
f 522 524 496
f 523 493 525
f 523 525 524
f 524 525 526
f 524 526 496
f 525 493 527
f 525 527 526
f 526 527 528
f 526 528 496
f 527 493 529
f 527 529 528
f 528 529 530
f 528 530 496
f 529 493 531
f 529 531 530
f 530 531 532
f 530 532 496
f 531 493 533
f 531 533 532
f 532 533 534
f 532 534 496
f 533 493 494
f 533 494 534
f 534 494 495
f 534 495 496
o FastenerSlot_4
g FastenerSlot_4
usemtl MAT_FastenerSlot_4
v 0.218250 -0.095925 0.041375
v 0.218227 -0.095810 0.041375
v 0.218162 -0.095713 0.041375
v 0.218065 -0.095648 0.041375
v 0.214050 -0.095625 0.041375
v 0.213935 -0.095648 0.041375
v 0.213838 -0.095713 0.041375
v 0.213773 -0.095810 0.041375
v 0.213750 -0.096075 0.041375
v 0.213773 -0.096190 0.041375
v 0.213838 -0.096287 0.041375
v 0.213935 -0.096352 0.041375
v 0.217950 -0.096375 0.041375
v 0.218065 -0.096352 0.041375
v 0.218162 -0.096287 0.041375
v 0.218227 -0.096190 0.041375
v 0.218250 -0.095925 0.040925
v 0.218227 -0.095810 0.040925
v 0.218162 -0.095713 0.040925
v 0.218065 -0.095648 0.040925
v 0.214050 -0.095625 0.040925
v 0.213935 -0.095648 0.040925
v 0.213838 -0.095713 0.040925
v 0.213773 -0.095810 0.040925
v 0.213750 -0.096075 0.040925
v 0.213773 -0.096190 0.040925
v 0.213838 -0.096287 0.040925
v 0.213935 -0.096352 0.040925
v 0.217950 -0.096375 0.040925
v 0.218065 -0.096352 0.040925
v 0.218162 -0.096287 0.040925
v 0.218227 -0.096190 0.040925
v 0.216000 -0.096000 0.041375
v 0.216000 -0.096000 0.040925
f 567 535 536
f 568 552 551
f 535 551 552
f 535 552 536
f 567 536 537
f 568 553 552
f 536 552 553
f 536 553 537
f 567 537 538
f 568 554 553
f 537 553 554
f 537 554 538
f 567 538 539
f 568 555 554
f 538 554 555
f 538 555 539
f 567 539 540
f 568 556 555
f 539 555 556
f 539 556 540
f 567 540 541
f 568 557 556
f 540 556 557
f 540 557 541
f 567 541 542
f 568 558 557
f 541 557 558
f 541 558 542
f 567 542 543
f 568 559 558
f 542 558 559
f 542 559 543
f 567 543 544
f 568 560 559
f 543 559 560
f 543 560 544
f 567 544 545
f 568 561 560
f 544 560 561
f 544 561 545
f 567 545 546
f 568 562 561
f 545 561 562
f 545 562 546
f 567 546 547
f 568 563 562
f 546 562 563
f 546 563 547
f 567 547 548
f 568 564 563
f 547 563 564
f 547 564 548
f 567 548 549
f 568 565 564
f 548 564 565
f 548 565 549
f 567 549 550
f 568 566 565
f 549 565 566
f 549 566 550
f 567 550 535
f 568 551 566
f 550 566 551
f 550 551 535
o StopwatchStem
g StopwatchStem
usemtl MAT_StopwatchStem
v 0.000000 0.131000 -0.002000
v 0.000000 0.131000 -0.014000
v 0.000000 0.161000 -0.014000
v 0.000000 0.161000 -0.002000
v -0.002670 0.131000 -0.013699
v -0.002670 0.161000 -0.013699
v -0.005207 0.131000 -0.012812
v -0.005207 0.161000 -0.012812
v -0.007482 0.131000 -0.011382
v -0.007482 0.161000 -0.011382
v -0.009382 0.131000 -0.009482
v -0.009382 0.161000 -0.009482
v -0.010812 0.131000 -0.007207
v -0.010812 0.161000 -0.007207
v -0.011699 0.131000 -0.004670
v -0.011699 0.161000 -0.004670
v -0.012000 0.131000 -0.002000
v -0.012000 0.161000 -0.002000
v -0.011699 0.131000 0.000670
v -0.011699 0.161000 0.000670
v -0.010812 0.131000 0.003207
v -0.010812 0.161000 0.003207
v -0.009382 0.131000 0.005482
v -0.009382 0.161000 0.005482
v -0.007482 0.131000 0.007382
v -0.007482 0.161000 0.007382
v -0.005207 0.131000 0.008812
v -0.005207 0.161000 0.008812
v -0.002670 0.131000 0.009699
v -0.002670 0.161000 0.009699
v -0.000000 0.131000 0.010000
v -0.000000 0.161000 0.010000
v 0.002670 0.131000 0.009699
v 0.002670 0.161000 0.009699
v 0.005207 0.131000 0.008812
v 0.005207 0.161000 0.008812
v 0.007482 0.131000 0.007382
v 0.007482 0.161000 0.007382
v 0.009382 0.131000 0.005482
v 0.009382 0.161000 0.005482
v 0.010812 0.131000 0.003207
v 0.010812 0.161000 0.003207
v 0.011699 0.131000 0.000670
v 0.011699 0.161000 0.000670
v 0.012000 0.131000 -0.002000
v 0.012000 0.161000 -0.002000
v 0.011699 0.131000 -0.004670
v 0.011699 0.161000 -0.004670
v 0.010812 0.131000 -0.007207
v 0.010812 0.161000 -0.007207
v 0.009382 0.131000 -0.009482
v 0.009382 0.161000 -0.009482
v 0.007482 0.131000 -0.011382
v 0.007482 0.161000 -0.011382
v 0.005207 0.131000 -0.012812
v 0.005207 0.161000 -0.012812
v 0.002670 0.131000 -0.013699
v 0.002670 0.161000 -0.013699
f 570 569 573
f 570 573 571
f 571 573 574
f 571 574 572
f 573 569 575
f 573 575 574
f 574 575 576
f 574 576 572
f 575 569 577
f 575 577 576
f 576 577 578
f 576 578 572
f 577 569 579
f 577 579 578
f 578 579 580
f 578 580 572
f 579 569 581
f 579 581 580
f 580 581 582
f 580 582 572
f 581 569 583
f 581 583 582
f 582 583 584
f 582 584 572
f 583 569 585
f 583 585 584
f 584 585 586
f 584 586 572
f 585 569 587
f 585 587 586
f 586 587 588
f 586 588 572
f 587 569 589
f 587 589 588
f 588 589 590
f 588 590 572
f 589 569 591
f 589 591 590
f 590 591 592
f 590 592 572
f 591 569 593
f 591 593 592
f 592 593 594
f 592 594 572
f 593 569 595
f 593 595 594
f 594 595 596
f 594 596 572
f 595 569 597
f 595 597 596
f 596 597 598
f 596 598 572
f 597 569 599
f 597 599 598
f 598 599 600
f 598 600 572
f 599 569 601
f 599 601 600
f 600 601 602
f 600 602 572
f 601 569 603
f 601 603 602
f 602 603 604
f 602 604 572
f 603 569 605
f 603 605 604
f 604 605 606
f 604 606 572
f 605 569 607
f 605 607 606
f 606 607 608
f 606 608 572
f 607 569 609
f 607 609 608
f 608 609 610
f 608 610 572
f 609 569 611
f 609 611 610
f 610 611 612
f 610 612 572
f 611 569 613
f 611 613 612
f 612 613 614
f 612 614 572
f 613 569 615
f 613 615 614
f 614 615 616
f 614 616 572
f 615 569 617
f 615 617 616
f 616 617 618
f 616 618 572
f 617 569 619
f 617 619 618
f 618 619 620
f 618 620 572
f 619 569 621
f 619 621 620
f 620 621 622
f 620 622 572
f 621 569 623
f 621 623 622
f 622 623 624
f 622 624 572
f 623 569 625
f 623 625 624
f 624 625 626
f 624 626 572
f 625 569 570
f 625 570 626
f 626 570 571
f 626 571 572
o StopwatchPusher
g StopwatchPusher
usemtl MAT_StopwatchPusher
v 0.025000 0.162500 0.015000
v 0.024846 0.164061 0.015000
v 0.024391 0.165561 0.015000
v 0.023652 0.166945 0.015000
v 0.022657 0.168157 0.015000
v 0.021445 0.169152 0.015000
v 0.020061 0.169891 0.015000
v 0.018561 0.170346 0.015000
v -0.017000 0.170500 0.015000
v -0.018561 0.170346 0.015000
v -0.020061 0.169891 0.015000
v -0.021445 0.169152 0.015000
v -0.022657 0.168157 0.015000
v -0.023652 0.166945 0.015000
v -0.024391 0.165561 0.015000
v -0.024846 0.164061 0.015000
v -0.025000 0.161500 0.015000
v -0.024846 0.159939 0.015000
v -0.024391 0.158439 0.015000
v -0.023652 0.157055 0.015000
v -0.022657 0.155843 0.015000
v -0.021445 0.154848 0.015000
v -0.020061 0.154109 0.015000
v -0.018561 0.153654 0.015000
v 0.017000 0.153500 0.015000
v 0.018561 0.153654 0.015000
v 0.020061 0.154109 0.015000
v 0.021445 0.154848 0.015000
v 0.022657 0.155843 0.015000
v 0.023652 0.157055 0.015000
v 0.024391 0.158439 0.015000
v 0.024846 0.159939 0.015000
v 0.025000 0.162500 -0.019000
v 0.024846 0.164061 -0.019000
v 0.024391 0.165561 -0.019000
v 0.023652 0.166945 -0.019000
v 0.022657 0.168157 -0.019000
v 0.021445 0.169152 -0.019000
v 0.020061 0.169891 -0.019000
v 0.018561 0.170346 -0.019000
v -0.017000 0.170500 -0.019000
v -0.018561 0.170346 -0.019000
v -0.020061 0.169891 -0.019000
v -0.021445 0.169152 -0.019000
v -0.022657 0.168157 -0.019000
v -0.023652 0.166945 -0.019000
v -0.024391 0.165561 -0.019000
v -0.024846 0.164061 -0.019000
v -0.025000 0.161500 -0.019000
v -0.024846 0.159939 -0.019000
v -0.024391 0.158439 -0.019000
v -0.023652 0.157055 -0.019000
v -0.022657 0.155843 -0.019000
v -0.021445 0.154848 -0.019000
v -0.020061 0.154109 -0.019000
v -0.018561 0.153654 -0.019000
v 0.017000 0.153500 -0.019000
v 0.018561 0.153654 -0.019000
v 0.020061 0.154109 -0.019000
v 0.021445 0.154848 -0.019000
v 0.022657 0.155843 -0.019000
v 0.023652 0.157055 -0.019000
v 0.024391 0.158439 -0.019000
v 0.024846 0.159939 -0.019000
v 0.000000 0.162000 0.015000
v 0.000000 0.162000 -0.019000
f 691 627 628
f 692 660 659
f 627 659 660
f 627 660 628
f 691 628 629
f 692 661 660
f 628 660 661
f 628 661 629
f 691 629 630
f 692 662 661
f 629 661 662
f 629 662 630
f 691 630 631
f 692 663 662
f 630 662 663
f 630 663 631
f 691 631 632
f 692 664 663
f 631 663 664
f 631 664 632
f 691 632 633
f 692 665 664
f 632 664 665
f 632 665 633
f 691 633 634
f 692 666 665
f 633 665 666
f 633 666 634
f 691 634 635
f 692 667 666
f 634 666 667
f 634 667 635
f 691 635 636
f 692 668 667
f 635 667 668
f 635 668 636
f 691 636 637
f 692 669 668
f 636 668 669
f 636 669 637
f 691 637 638
f 692 670 669
f 637 669 670
f 637 670 638
f 691 638 639
f 692 671 670
f 638 670 671
f 638 671 639
f 691 639 640
f 692 672 671
f 639 671 672
f 639 672 640
f 691 640 641
f 692 673 672
f 640 672 673
f 640 673 641
f 691 641 642
f 692 674 673
f 641 673 674
f 641 674 642
f 691 642 643
f 692 675 674
f 642 674 675
f 642 675 643
f 691 643 644
f 692 676 675
f 643 675 676
f 643 676 644
f 691 644 645
f 692 677 676
f 644 676 677
f 644 677 645
f 691 645 646
f 692 678 677
f 645 677 678
f 645 678 646
f 691 646 647
f 692 679 678
f 646 678 679
f 646 679 647
f 691 647 648
f 692 680 679
f 647 679 680
f 647 680 648
f 691 648 649
f 692 681 680
f 648 680 681
f 648 681 649
f 691 649 650
f 692 682 681
f 649 681 682
f 649 682 650
f 691 650 651
f 692 683 682
f 650 682 683
f 650 683 651
f 691 651 652
f 692 684 683
f 651 683 684
f 651 684 652
f 691 652 653
f 692 685 684
f 652 684 685
f 652 685 653
f 691 653 654
f 692 686 685
f 653 685 686
f 653 686 654
f 691 654 655
f 692 687 686
f 654 686 687
f 654 687 655
f 691 655 656
f 692 688 687
f 655 687 688
f 655 688 656
f 691 656 657
f 692 689 688
f 656 688 689
f 656 689 657
f 691 657 658
f 692 690 689
f 657 689 690
f 657 690 658
f 691 658 627
f 692 659 690
f 658 690 659
f 658 659 627
o TopControl_Left
g TopControl_Left
usemtl MAT_TopControl_Left
v -0.059000 0.142000 0.012000
v -0.059077 0.142780 0.012000
v -0.059304 0.143531 0.012000
v -0.059674 0.144222 0.012000
v -0.060172 0.144828 0.012000
v -0.060778 0.145326 0.012000
v -0.061469 0.145696 0.012000
v -0.062220 0.145923 0.012000
v -0.085000 0.146000 0.012000
v -0.085780 0.145923 0.012000
v -0.086531 0.145696 0.012000
v -0.087222 0.145326 0.012000
v -0.087828 0.144828 0.012000
v -0.088326 0.144222 0.012000
v -0.088696 0.143531 0.012000
v -0.088923 0.142780 0.012000
v -0.089000 0.138000 0.012000
v -0.088923 0.137220 0.012000
v -0.088696 0.136469 0.012000
v -0.088326 0.135778 0.012000
v -0.087828 0.135172 0.012000
v -0.087222 0.134674 0.012000
v -0.086531 0.134304 0.012000
v -0.085780 0.134077 0.012000
v -0.063000 0.134000 0.012000
v -0.062220 0.134077 0.012000
v -0.061469 0.134304 0.012000
v -0.060778 0.134674 0.012000
v -0.060172 0.135172 0.012000
v -0.059674 0.135778 0.012000
v -0.059304 0.136469 0.012000
v -0.059077 0.137220 0.012000
v -0.059000 0.142000 -0.012000
v -0.059077 0.142780 -0.012000
v -0.059304 0.143531 -0.012000
v -0.059674 0.144222 -0.012000
v -0.060172 0.144828 -0.012000
v -0.060778 0.145326 -0.012000
v -0.061469 0.145696 -0.012000
v -0.062220 0.145923 -0.012000
v -0.085000 0.146000 -0.012000
v -0.085780 0.145923 -0.012000
v -0.086531 0.145696 -0.012000
v -0.087222 0.145326 -0.012000
v -0.087828 0.144828 -0.012000
v -0.088326 0.144222 -0.012000
v -0.088696 0.143531 -0.012000
v -0.088923 0.142780 -0.012000
v -0.089000 0.138000 -0.012000
v -0.088923 0.137220 -0.012000
v -0.088696 0.136469 -0.012000
v -0.088326 0.135778 -0.012000
v -0.087828 0.135172 -0.012000
v -0.087222 0.134674 -0.012000
v -0.086531 0.134304 -0.012000
v -0.085780 0.134077 -0.012000
v -0.063000 0.134000 -0.012000
v -0.062220 0.134077 -0.012000
v -0.061469 0.134304 -0.012000
v -0.060778 0.134674 -0.012000
v -0.060172 0.135172 -0.012000
v -0.059674 0.135778 -0.012000
v -0.059304 0.136469 -0.012000
v -0.059077 0.137220 -0.012000
v -0.074000 0.140000 0.012000
v -0.074000 0.140000 -0.012000
f 757 693 694
f 758 726 725
f 693 725 726
f 693 726 694
f 757 694 695
f 758 727 726
f 694 726 727
f 694 727 695
f 757 695 696
f 758 728 727
f 695 727 728
f 695 728 696
f 757 696 697
f 758 729 728
f 696 728 729
f 696 729 697
f 757 697 698
f 758 730 729
f 697 729 730
f 697 730 698
f 757 698 699
f 758 731 730
f 698 730 731
f 698 731 699
f 757 699 700
f 758 732 731
f 699 731 732
f 699 732 700
f 757 700 701
f 758 733 732
f 700 732 733
f 700 733 701
f 757 701 702
f 758 734 733
f 701 733 734
f 701 734 702
f 757 702 703
f 758 735 734
f 702 734 735
f 702 735 703
f 757 703 704
f 758 736 735
f 703 735 736
f 703 736 704
f 757 704 705
f 758 737 736
f 704 736 737
f 704 737 705
f 757 705 706
f 758 738 737
f 705 737 738
f 705 738 706
f 757 706 707
f 758 739 738
f 706 738 739
f 706 739 707
f 757 707 708
f 758 740 739
f 707 739 740
f 707 740 708
f 757 708 709
f 758 741 740
f 708 740 741
f 708 741 709
f 757 709 710
f 758 742 741
f 709 741 742
f 709 742 710
f 757 710 711
f 758 743 742
f 710 742 743
f 710 743 711
f 757 711 712
f 758 744 743
f 711 743 744
f 711 744 712
f 757 712 713
f 758 745 744
f 712 744 745
f 712 745 713
f 757 713 714
f 758 746 745
f 713 745 746
f 713 746 714
f 757 714 715
f 758 747 746
f 714 746 747
f 714 747 715
f 757 715 716
f 758 748 747
f 715 747 748
f 715 748 716
f 757 716 717
f 758 749 748
f 716 748 749
f 716 749 717
f 757 717 718
f 758 750 749
f 717 749 750
f 717 750 718
f 757 718 719
f 758 751 750
f 718 750 751
f 718 751 719
f 757 719 720
f 758 752 751
f 719 751 752
f 719 752 720
f 757 720 721
f 758 753 752
f 720 752 753
f 720 753 721
f 757 721 722
f 758 754 753
f 721 753 754
f 721 754 722
f 757 722 723
f 758 755 754
f 722 754 755
f 722 755 723
f 757 723 724
f 758 756 755
f 723 755 756
f 723 756 724
f 757 724 693
f 758 725 756
f 724 756 725
f 724 725 693
o TopControl_Right
g TopControl_Right
usemtl MAT_TopControl_Right
v 0.089000 0.142000 0.012000
v 0.088923 0.142780 0.012000
v 0.088696 0.143531 0.012000
v 0.088326 0.144222 0.012000
v 0.087828 0.144828 0.012000
v 0.087222 0.145326 0.012000
v 0.086531 0.145696 0.012000
v 0.085780 0.145923 0.012000
v 0.063000 0.146000 0.012000
v 0.062220 0.145923 0.012000
v 0.061469 0.145696 0.012000
v 0.060778 0.145326 0.012000
v 0.060172 0.144828 0.012000
v 0.059674 0.144222 0.012000
v 0.059304 0.143531 0.012000
v 0.059077 0.142780 0.012000
v 0.059000 0.138000 0.012000
v 0.059077 0.137220 0.012000
v 0.059304 0.136469 0.012000
v 0.059674 0.135778 0.012000
v 0.060172 0.135172 0.012000
v 0.060778 0.134674 0.012000
v 0.061469 0.134304 0.012000
v 0.062220 0.134077 0.012000
v 0.085000 0.134000 0.012000
v 0.085780 0.134077 0.012000
v 0.086531 0.134304 0.012000
v 0.087222 0.134674 0.012000
v 0.087828 0.135172 0.012000
v 0.088326 0.135778 0.012000
v 0.088696 0.136469 0.012000
v 0.088923 0.137220 0.012000
v 0.089000 0.142000 -0.012000
v 0.088923 0.142780 -0.012000
v 0.088696 0.143531 -0.012000
v 0.088326 0.144222 -0.012000
v 0.087828 0.144828 -0.012000
v 0.087222 0.145326 -0.012000
v 0.086531 0.145696 -0.012000
v 0.085780 0.145923 -0.012000
v 0.063000 0.146000 -0.012000
v 0.062220 0.145923 -0.012000
v 0.061469 0.145696 -0.012000
v 0.060778 0.145326 -0.012000
v 0.060172 0.144828 -0.012000
v 0.059674 0.144222 -0.012000
v 0.059304 0.143531 -0.012000
v 0.059077 0.142780 -0.012000
v 0.059000 0.138000 -0.012000
v 0.059077 0.137220 -0.012000
v 0.059304 0.136469 -0.012000
v 0.059674 0.135778 -0.012000
v 0.060172 0.135172 -0.012000
v 0.060778 0.134674 -0.012000
v 0.061469 0.134304 -0.012000
v 0.062220 0.134077 -0.012000
v 0.085000 0.134000 -0.012000
v 0.085780 0.134077 -0.012000
v 0.086531 0.134304 -0.012000
v 0.087222 0.134674 -0.012000
v 0.087828 0.135172 -0.012000
v 0.088326 0.135778 -0.012000
v 0.088696 0.136469 -0.012000
v 0.088923 0.137220 -0.012000
v 0.074000 0.140000 0.012000
v 0.074000 0.140000 -0.012000
f 823 759 760
f 824 792 791
f 759 791 792
f 759 792 760
f 823 760 761
f 824 793 792
f 760 792 793
f 760 793 761
f 823 761 762
f 824 794 793
f 761 793 794
f 761 794 762
f 823 762 763
f 824 795 794
f 762 794 795
f 762 795 763
f 823 763 764
f 824 796 795
f 763 795 796
f 763 796 764
f 823 764 765
f 824 797 796
f 764 796 797
f 764 797 765
f 823 765 766
f 824 798 797
f 765 797 798
f 765 798 766
f 823 766 767
f 824 799 798
f 766 798 799
f 766 799 767
f 823 767 768
f 824 800 799
f 767 799 800
f 767 800 768
f 823 768 769
f 824 801 800
f 768 800 801
f 768 801 769
f 823 769 770
f 824 802 801
f 769 801 802
f 769 802 770
f 823 770 771
f 824 803 802
f 770 802 803
f 770 803 771
f 823 771 772
f 824 804 803
f 771 803 804
f 771 804 772
f 823 772 773
f 824 805 804
f 772 804 805
f 772 805 773
f 823 773 774
f 824 806 805
f 773 805 806
f 773 806 774
f 823 774 775
f 824 807 806
f 774 806 807
f 774 807 775
f 823 775 776
f 824 808 807
f 775 807 808
f 775 808 776
f 823 776 777
f 824 809 808
f 776 808 809
f 776 809 777
f 823 777 778
f 824 810 809
f 777 809 810
f 777 810 778
f 823 778 779
f 824 811 810
f 778 810 811
f 778 811 779
f 823 779 780
f 824 812 811
f 779 811 812
f 779 812 780
f 823 780 781
f 824 813 812
f 780 812 813
f 780 813 781
f 823 781 782
f 824 814 813
f 781 813 814
f 781 814 782
f 823 782 783
f 824 815 814
f 782 814 815
f 782 815 783
f 823 783 784
f 824 816 815
f 783 815 816
f 783 816 784
f 823 784 785
f 824 817 816
f 784 816 817
f 784 817 785
f 823 785 786
f 824 818 817
f 785 817 818
f 785 818 786
f 823 786 787
f 824 819 818
f 786 818 819
f 786 819 787
f 823 787 788
f 824 820 819
f 787 819 820
f 787 820 788
f 823 788 789
f 824 821 820
f 788 820 821
f 788 821 789
f 823 789 790
f 824 822 821
f 789 821 822
f 789 822 790
f 823 790 759
f 824 791 822
f 790 822 791
f 790 791 759
