# SpaceGamble pull lever - grouped OBJ fallback
mtllib SpaceGamble_Lever.mtl
o BaseLower
g BaseLower
usemtl MAT_BaseLower
v -0.150000 0.000000 -0.110000
v -0.150000 0.000000 0.110000
v -0.150000 0.028000 -0.110000
v -0.150000 0.028000 0.110000
v 0.150000 0.000000 -0.110000
v 0.150000 0.000000 0.110000
v 0.150000 0.028000 -0.110000
v 0.150000 0.028000 0.110000
f 2 4 1
f 5 2 1
f 1 4 3
f 3 5 1
f 2 8 4
f 6 2 5
f 6 8 2
f 4 8 3
f 7 5 3
f 3 8 7
f 7 6 5
f 8 6 7
o BaseHousing
g BaseHousing
usemtl MAT_BaseHousing
v -0.138000 0.025000 -0.099000
v -0.138000 0.025000 0.099000
v -0.138000 0.067000 -0.099000
v -0.138000 0.067000 0.099000
v 0.138000 0.025000 -0.099000
v 0.138000 0.025000 0.099000
v 0.138000 0.067000 -0.099000
v 0.138000 0.067000 0.099000
f 10 12 9
f 13 10 9
f 9 12 11
f 11 13 9
f 10 16 12
f 14 10 13
f 14 16 10
f 12 16 11
f 15 13 11
f 11 16 15
f 15 14 13
f 16 14 15
o TopInset
g TopInset
usemtl MAT_TopInset
v -0.111000 0.067000 -0.071000
v -0.111000 0.067000 0.071000
v -0.111000 0.075000 -0.071000
v -0.111000 0.075000 0.071000
v 0.111000 0.067000 -0.071000
v 0.111000 0.067000 0.071000
v 0.111000 0.075000 -0.071000
v 0.111000 0.075000 0.071000
f 18 20 17
f 21 18 17
f 17 20 19
f 19 21 17
f 18 24 20
f 22 18 21
f 22 24 18
f 20 24 19
f 23 21 19
f 19 24 23
f 23 22 21
f 24 22 23
o HingeCheek_L
g HingeCheek_L
usemtl MAT_HingeCheek_L
v -0.109500 0.057000 -0.052000
v -0.109500 0.057000 0.052000
v -0.109500 0.159000 -0.052000
v -0.109500 0.159000 0.052000
v -0.054500 0.057000 -0.052000
v -0.054500 0.057000 0.052000
v -0.054500 0.159000 -0.052000
v -0.054500 0.159000 0.052000
f 26 28 25
f 29 26 25
f 25 28 27
f 27 29 25
f 26 32 28
f 30 26 29
f 30 32 26
f 28 32 27
f 31 29 27
f 27 32 31
f 31 30 29
f 32 30 31
o HingeCheek_R
g HingeCheek_R
usemtl MAT_HingeCheek_R
v 0.054500 0.057000 -0.052000
v 0.054500 0.057000 0.052000
v 0.054500 0.159000 -0.052000
v 0.054500 0.159000 0.052000
v 0.109500 0.057000 -0.052000
v 0.109500 0.057000 0.052000
v 0.109500 0.159000 -0.052000
v 0.109500 0.159000 0.052000
f 34 36 33
f 37 34 33
f 33 36 35
f 35 37 33
f 34 40 36
f 38 34 37
f 38 40 34
f 36 40 35
f 39 37 35
f 35 40 39
f 39 38 37
f 40 38 39
o InsetStripe
g InsetStripe
usemtl MAT_InsetStripe
v -0.085000 0.075000 0.041000
v -0.085000 0.075000 0.057000
v -0.085000 0.081000 0.041000
v -0.085000 0.081000 0.057000
v 0.085000 0.075000 0.041000
v 0.085000 0.075000 0.057000
v 0.085000 0.081000 0.041000
v 0.085000 0.081000 0.057000
f 42 44 41
f 45 42 41
f 41 44 43
f 43 45 41
f 42 48 44
f 46 42 45
f 46 48 42
f 44 48 43
f 47 45 43
f 43 48 47
f 47 46 45
f 48 46 47
o PivotAxle
g PivotAxle
usemtl MAT_PivotAxle
v -0.134000 0.132000 0.000000
v -0.134000 0.132000 -0.022000
v 0.134000 0.132000 -0.022000
v 0.134000 0.132000 0.000000
v -0.134000 0.137694 -0.021250
v 0.134000 0.137694 -0.021250
v -0.134000 0.143000 -0.019053
v 0.134000 0.143000 -0.019053
v -0.134000 0.147556 -0.015556
v 0.134000 0.147556 -0.015556
v -0.134000 0.151053 -0.011000
v 0.134000 0.151053 -0.011000
v -0.134000 0.153250 -0.005694
v 0.134000 0.153250 -0.005694
v -0.134000 0.154000 -0.000000
v 0.134000 0.154000 -0.000000
v -0.134000 0.153250 0.005694
v 0.134000 0.153250 0.005694
v -0.134000 0.151053 0.011000
v 0.134000 0.151053 0.011000
v -0.134000 0.147556 0.015556
v 0.134000 0.147556 0.015556
v -0.134000 0.143000 0.019053
v 0.134000 0.143000 0.019053
v -0.134000 0.137694 0.021250
v 0.134000 0.137694 0.021250
v -0.134000 0.132000 0.022000
v 0.134000 0.132000 0.022000
v -0.134000 0.126306 0.021250
v 0.134000 0.126306 0.021250
v -0.134000 0.121000 0.019053
v 0.134000 0.121000 0.019053
v -0.134000 0.116444 0.015556
v 0.134000 0.116444 0.015556
v -0.134000 0.112947 0.011000
v 0.134000 0.112947 0.011000
v -0.134000 0.110750 0.005694
v 0.134000 0.110750 0.005694
v -0.134000 0.110000 0.000000
v 0.134000 0.110000 0.000000
v -0.134000 0.110750 -0.005694
v 0.134000 0.110750 -0.005694
v -0.134000 0.112947 -0.011000
v 0.134000 0.112947 -0.011000
v -0.134000 0.116444 -0.015556
v 0.134000 0.116444 -0.015556
v -0.134000 0.121000 -0.019053
v 0.134000 0.121000 -0.019053
v -0.134000 0.126306 -0.021250
v 0.134000 0.126306 -0.021250
f 50 49 53
f 50 53 51
f 51 53 54
f 51 54 52
f 53 49 55
f 53 55 54
f 54 55 56
f 54 56 52
f 55 49 57
f 55 57 56
f 56 57 58
f 56 58 52
f 57 49 59
f 57 59 58
f 58 59 60
f 58 60 52
f 59 49 61
f 59 61 60
f 60 61 62
f 60 62 52
f 61 49 63
f 61 63 62
f 62 63 64
f 62 64 52
f 63 49 65
f 63 65 64
f 64 65 66
f 64 66 52
f 65 49 67
f 65 67 66
f 66 67 68
f 66 68 52
f 67 49 69
f 67 69 68
f 68 69 70
f 68 70 52
f 69 49 71
f 69 71 70
f 70 71 72
f 70 72 52
f 71 49 73
f 71 73 72
f 72 73 74
f 72 74 52
f 73 49 75
f 73 75 74
f 74 75 76
f 74 76 52
f 75 49 77
f 75 77 76
f 76 77 78
f 76 78 52
f 77 49 79
f 77 79 78
f 78 79 80
f 78 80 52
f 79 49 81
f 79 81 80
f 80 81 82
f 80 82 52
f 81 49 83
f 81 83 82
f 82 83 84
f 82 84 52
f 83 49 85
f 83 85 84
f 84 85 86
f 84 86 52
f 85 49 87
f 85 87 86
f 86 87 88
f 86 88 52
f 87 49 89
f 87 89 88
f 88 89 90
f 88 90 52
f 89 49 91
f 89 91 90
f 90 91 92
f 90 92 52
f 91 49 93
f 91 93 92
f 92 93 94
f 92 94 52
f 93 49 95
f 93 95 94
f 94 95 96
f 94 96 52
f 95 49 97
f 95 97 96
f 96 97 98
f 96 98 52
f 97 49 50
f 97 50 98
f 98 50 51
f 98 51 52
o PivotCap_L
g PivotCap_L
usemtl MAT_PivotCap_L
v -0.153000 0.132000 0.000000
v -0.153000 0.132000 -0.031000
v -0.132000 0.132000 -0.031000
v -0.132000 0.132000 0.000000
v -0.153000 0.140023 -0.029944
v -0.132000 0.140023 -0.029944
v -0.153000 0.147500 -0.026847
v -0.132000 0.147500 -0.026847
v -0.153000 0.153920 -0.021920
v -0.132000 0.153920 -0.021920
v -0.153000 0.158847 -0.015500
v -0.132000 0.158847 -0.015500
v -0.153000 0.161944 -0.008023
v -0.132000 0.161944 -0.008023
v -0.153000 0.163000 -0.000000
v -0.132000 0.163000 -0.000000
v -0.153000 0.161944 0.008023
v -0.132000 0.161944 0.008023
v -0.153000 0.158847 0.015500
v -0.132000 0.158847 0.015500
v -0.153000 0.153920 0.021920
v -0.132000 0.153920 0.021920
v -0.153000 0.147500 0.026847
v -0.132000 0.147500 0.026847
v -0.153000 0.140023 0.029944
v -0.132000 0.140023 0.029944
v -0.153000 0.132000 0.031000
v -0.132000 0.132000 0.031000
v -0.153000 0.123977 0.029944
v -0.132000 0.123977 0.029944
v -0.153000 0.116500 0.026847
v -0.132000 0.116500 0.026847
v -0.153000 0.110080 0.021920
v -0.132000 0.110080 0.021920
v -0.153000 0.105153 0.015500
v -0.132000 0.105153 0.015500
v -0.153000 0.102056 0.008023
v -0.132000 0.102056 0.008023
v -0.153000 0.101000 0.000000
v -0.132000 0.101000 0.000000
v -0.153000 0.102056 -0.008023
v -0.132000 0.102056 -0.008023
v -0.153000 0.105153 -0.015500
v -0.132000 0.105153 -0.015500
v -0.153000 0.110080 -0.021920
v -0.132000 0.110080 -0.021920
v -0.153000 0.116500 -0.026847
v -0.132000 0.116500 -0.026847
v -0.153000 0.123977 -0.029944
v -0.132000 0.123977 -0.029944
f 100 99 103
f 100 103 101
f 101 103 104
f 101 104 102
f 103 99 105
f 103 105 104
f 104 105 106
f 104 106 102
f 105 99 107
f 105 107 106
f 106 107 108
f 106 108 102
f 107 99 109
f 107 109 108
f 108 109 110
f 108 110 102
f 109 99 111
f 109 111 110
f 110 111 112
f 110 112 102
f 111 99 113
f 111 113 112
f 112 113 114
f 112 114 102
f 113 99 115
f 113 115 114
f 114 115 116
f 114 116 102
f 115 99 117
f 115 117 116
f 116 117 118
f 116 118 102
f 117 99 119
f 117 119 118
f 118 119 120
f 118 120 102
f 119 99 121
f 119 121 120
f 120 121 122
f 120 122 102
f 121 99 123
f 121 123 122
f 122 123 124
f 122 124 102
f 123 99 125
f 123 125 124
f 124 125 126
f 124 126 102
f 125 99 127
f 125 127 126
f 126 127 128
f 126 128 102
f 127 99 129
f 127 129 128
f 128 129 130
f 128 130 102
f 129 99 131
f 129 131 130
f 130 131 132
f 130 132 102
f 131 99 133
f 131 133 132
f 132 133 134
f 132 134 102
f 133 99 135
f 133 135 134
f 134 135 136
f 134 136 102
f 135 99 137
f 135 137 136
f 136 137 138
f 136 138 102
f 137 99 139
f 137 139 138
f 138 139 140
f 138 140 102
f 139 99 141
f 139 141 140
f 140 141 142
f 140 142 102
f 141 99 143
f 141 143 142
f 142 143 144
f 142 144 102
f 143 99 145
f 143 145 144
f 144 145 146
f 144 146 102
f 145 99 147
f 145 147 146
f 146 147 148
f 146 148 102
f 147 99 100
f 147 100 148
f 148 100 101
f 148 101 102
o PivotCap_R
g PivotCap_R
usemtl MAT_PivotCap_R
v 0.132000 0.132000 0.000000
v 0.132000 0.132000 -0.031000
v 0.153000 0.132000 -0.031000
v 0.153000 0.132000 0.000000
v 0.132000 0.140023 -0.029944
v 0.153000 0.140023 -0.029944
v 0.132000 0.147500 -0.026847
v 0.153000 0.147500 -0.026847
v 0.132000 0.153920 -0.021920
v 0.153000 0.153920 -0.021920
v 0.132000 0.158847 -0.015500
v 0.153000 0.158847 -0.015500
v 0.132000 0.161944 -0.008023
v 0.153000 0.161944 -0.008023
v 0.132000 0.163000 -0.000000
v 0.153000 0.163000 -0.000000
v 0.132000 0.161944 0.008023
v 0.153000 0.161944 0.008023
v 0.132000 0.158847 0.015500
v 0.153000 0.158847 0.015500
v 0.132000 0.153920 0.021920
v 0.153000 0.153920 0.021920
v 0.132000 0.147500 0.026847
v 0.153000 0.147500 0.026847
v 0.132000 0.140023 0.029944
v 0.153000 0.140023 0.029944
v 0.132000 0.132000 0.031000
v 0.153000 0.132000 0.031000
v 0.132000 0.123977 0.029944
v 0.153000 0.123977 0.029944
v 0.132000 0.116500 0.026847
v 0.153000 0.116500 0.026847
v 0.132000 0.110080 0.021920
v 0.153000 0.110080 0.021920
v 0.132000 0.105153 0.015500
v 0.153000 0.105153 0.015500
v 0.132000 0.102056 0.008023
v 0.153000 0.102056 0.008023
v 0.132000 0.101000 0.000000
v 0.153000 0.101000 0.000000
v 0.132000 0.102056 -0.008023
v 0.153000 0.102056 -0.008023
v 0.132000 0.105153 -0.015500
v 0.153000 0.105153 -0.015500
v 0.132000 0.110080 -0.021920
v 0.153000 0.110080 -0.021920
v 0.132000 0.116500 -0.026847
v 0.153000 0.116500 -0.026847
v 0.132000 0.123977 -0.029944
v 0.153000 0.123977 -0.029944
f 150 149 153
f 150 153 151
f 151 153 154
f 151 154 152
f 153 149 155
f 153 155 154
f 154 155 156
f 154 156 152
f 155 149 157
f 155 157 156
f 156 157 158
f 156 158 152
f 157 149 159
f 157 159 158
f 158 159 160
f 158 160 152
f 159 149 161
f 159 161 160
f 160 161 162
f 160 162 152
f 161 149 163
f 161 163 162
f 162 163 164
f 162 164 152
f 163 149 165
f 163 165 164
f 164 165 166
f 164 166 152
f 165 149 167
f 165 167 166
f 166 167 168
f 166 168 152
f 167 149 169
f 167 169 168
f 168 169 170
f 168 170 152
f 169 149 171
f 169 171 170
f 170 171 172
f 170 172 152
f 171 149 173
f 171 173 172
f 172 173 174
f 172 174 152
f 173 149 175
f 173 175 174
f 174 175 176
f 174 176 152
f 175 149 177
f 175 177 176
f 176 177 178
f 176 178 152
f 177 149 179
f 177 179 178
f 178 179 180
f 178 180 152
f 179 149 181
f 179 181 180
f 180 181 182
f 180 182 152
f 181 149 183
f 181 183 182
f 182 183 184
f 182 184 152
f 183 149 185
f 183 185 184
f 184 185 186
f 184 186 152
f 185 149 187
f 185 187 186
f 186 187 188
f 186 188 152
f 187 149 189
f 187 189 188
f 188 189 190
f 188 190 152
f 189 149 191
f 189 191 190
f 190 191 192
f 190 192 152
f 191 149 193
f 191 193 192
f 192 193 194
f 192 194 152
f 193 149 195
f 193 195 194
f 194 195 196
f 194 196 152
f 195 149 197
f 195 197 196
f 196 197 198
f 196 198 152
f 197 149 150
f 197 150 198
f 198 150 151
f 198 151 152
o LeverStem
g LeverStem
usemtl MAT_LeverStem
v 0.000000 0.132000 0.000000
v -0.000861 0.130169 -0.013853
v -0.000861 0.420203 -0.052178
v 0.000000 0.422033 -0.038325
v -0.006143 0.130352 -0.012472
v -0.006143 0.420385 -0.050797
v -0.010490 0.130785 -0.009192
v -0.010490 0.420818 -0.047517
v -0.013239 0.131404 -0.004512
v -0.013239 0.421437 -0.042837
v -0.013973 0.132113 0.000854
v -0.013973 0.422146 -0.037471
v -0.012580 0.132805 0.006090
v -0.012580 0.422838 -0.032235
v -0.009272 0.133374 0.010399
v -0.009272 0.423407 -0.027926
v -0.004552 0.133734 0.013125
v -0.004552 0.423767 -0.025200
v 0.000861 0.133831 0.013853
v 0.000861 0.423864 -0.024472
v 0.006143 0.133648 0.012472
v 0.006143 0.423681 -0.025853
v 0.010490 0.133215 0.009192
v 0.010490 0.423248 -0.029133
v 0.013239 0.132596 0.004512
v 0.013239 0.422629 -0.033813
v 0.013973 0.131887 -0.000854
v 0.013973 0.421920 -0.039179
v 0.012580 0.131195 -0.006090
v 0.012580 0.421228 -0.044415
v 0.009272 0.130626 -0.010399
v 0.009272 0.420659 -0.048724
v 0.004552 0.130266 -0.013125
v 0.004552 0.420299 -0.051450
f 200 199 203
f 200 203 201
f 201 203 204
f 201 204 202
f 203 199 205
f 203 205 204
f 204 205 206
f 204 206 202
f 205 199 207
f 205 207 206
f 206 207 208
f 206 208 202
f 207 199 209
f 207 209 208
f 208 209 210
f 208 210 202
f 209 199 211
f 209 211 210
f 210 211 212
f 210 212 202
f 211 199 213
f 211 213 212
f 212 213 214
f 212 214 202
f 213 199 215
f 213 215 214
f 214 215 216
f 214 216 202
f 215 199 217
f 215 217 216
f 216 217 218
f 216 218 202
f 217 199 219
f 217 219 218
f 218 219 220
f 218 220 202
f 219 199 221
f 219 221 220
f 220 221 222
f 220 222 202
f 221 199 223
f 221 223 222
f 222 223 224
f 222 224 202
f 223 199 225
f 223 225 224
f 224 225 226
f 224 226 202
f 225 199 227
f 225 227 226
f 226 227 228
f 226 228 202
f 227 199 229
f 227 229 228
f 228 229 230
f 228 230 202
f 229 199 231
f 229 231 230
f 230 231 232
f 230 232 202
f 231 199 200
f 231 200 232
f 232 200 201
f 232 201 202
o StemLowerCollar
g StemLowerCollar
usemtl MAT_StemLowerCollar
v 0.000000 0.166915 -0.002441
v -0.001372 0.164020 -0.024207
v -0.001372 0.195802 -0.028434
v 0.000000 0.198697 -0.006669
v -0.008090 0.164217 -0.022721
v -0.008090 0.196000 -0.026949
v -0.014016 0.164679 -0.019251
v -0.014016 0.196462 -0.023478
v -0.018570 0.165359 -0.014134
v -0.018570 0.197142 -0.018362
v -0.021307 0.166192 -0.007874
v -0.021307 0.197975 -0.012101
v -0.021957 0.167096 -0.001081
v -0.021957 0.198878 -0.005308
v -0.020458 0.167981 0.005578
v -0.020458 0.199764 0.001351
v -0.016957 0.168763 0.011452
v -0.016957 0.200545 0.007225
v -0.011796 0.169363 0.015967
v -0.011796 0.201146 0.011739
v -0.005480 0.169724 0.018679
v -0.005480 0.201506 0.014452
v 0.001372 0.169810 0.019324
v 0.001372 0.201592 0.015097
v 0.008090 0.169612 0.017838
v 0.008090 0.201395 0.013611
v 0.014016 0.169150 0.014368
v 0.014016 0.200933 0.010140
v 0.018570 0.168470 0.009251
v 0.018570 0.200253 0.005024
v 0.021307 0.167637 0.002991
v 0.021307 0.199420 -0.001237
v 0.021957 0.166734 -0.003802
v 0.021957 0.198516 -0.008029
v 0.020458 0.165848 -0.010461
v 0.020458 0.197631 -0.014688
v 0.016957 0.165067 -0.016335
v 0.016957 0.196849 -0.020563
v 0.011796 0.164466 -0.020850
v 0.011796 0.196249 -0.025077
v 0.005480 0.164106 -0.023562
v 0.005480 0.195888 -0.027789
f 234 233 237
f 234 237 235
f 235 237 238
f 235 238 236
f 237 233 239
f 237 239 238
f 238 239 240
f 238 240 236
f 239 233 241
f 239 241 240
f 240 241 242
f 240 242 236
f 241 233 243
f 241 243 242
f 242 243 244
f 242 244 236
f 243 233 245
f 243 245 244
f 244 245 246
f 244 246 236
f 245 233 247
f 245 247 246
f 246 247 248
f 246 248 236
f 247 233 249
f 247 249 248
f 248 249 250
f 248 250 236
f 249 233 251
f 249 251 250
f 250 251 252
f 250 252 236
f 251 233 253
f 251 253 252
f 252 253 254
f 252 254 236
f 253 233 255
f 253 255 254
f 254 255 256
f 254 256 236
f 255 233 257
f 255 257 256
f 256 257 258
f 256 258 236
f 257 233 259
f 257 259 258
f 258 259 260
f 258 260 236
f 259 233 261
f 259 261 260
f 260 261 262
f 260 262 236
f 261 233 263
f 261 263 262
f 262 263 264
f 262 264 236
f 263 233 265
f 263 265 264
f 264 265 266
f 264 266 236
f 265 233 267
f 265 267 266
f 266 267 268
f 266 268 236
f 267 233 269
f 267 269 268
f 268 269 270
f 268 270 236
f 269 233 271
f 269 271 270
f 270 271 272
f 270 272 236
f 271 233 273
f 271 273 272
f 272 273 274
f 272 274 236
f 273 233 234
f 273 234 274
f 274 234 235
f 274 235 236
o StemUpperCollar
g StemUpperCollar
usemtl MAT_StemUpperCollar
v 0.000000 0.396236 -0.034516
v -0.001675 0.393115 -0.055215
v -0.001675 0.417915 -0.058954
v 0.000000 0.421036 -0.038255
v -0.008061 0.393345 -0.053691
v -0.008061 0.418145 -0.057430
v -0.013659 0.393858 -0.050289
v -0.013659 0.418657 -0.054028
v -0.017920 0.394604 -0.045343
v -0.017920 0.419403 -0.049082
v -0.020426 0.395509 -0.039338
v -0.020426 0.420309 -0.043077
v -0.020933 0.396486 -0.032860
v -0.020933 0.421285 -0.036599
v -0.019391 0.397438 -0.026545
v -0.019391 0.422237 -0.030284
v -0.015951 0.398272 -0.021010
v -0.015951 0.423072 -0.024749
v -0.010949 0.398907 -0.016797
v -0.010949 0.423707 -0.020536
v -0.004876 0.399281 -0.014318
v -0.004876 0.424081 -0.018057
v 0.001675 0.399357 -0.013817
v 0.001675 0.424156 -0.017556
v 0.008061 0.399127 -0.015342
v 0.008061 0.423926 -0.019081
v 0.013659 0.398614 -0.018744
v 0.013659 0.423414 -0.022483
v 0.017920 0.397868 -0.023689
v 0.017920 0.422668 -0.027428
v 0.020426 0.396963 -0.029695
v 0.020426 0.421762 -0.033434
v 0.020933 0.395986 -0.036172
v 0.020933 0.420786 -0.039911
v 0.019391 0.395034 -0.042488
v 0.019391 0.419834 -0.046227
v 0.015951 0.394200 -0.048023
v 0.015951 0.418999 -0.051762
v 0.010949 0.393564 -0.052236
v 0.010949 0.418364 -0.055975
v 0.004876 0.393191 -0.054714
v 0.004876 0.417990 -0.058453
f 276 275 279
f 276 279 277
f 277 279 280
f 277 280 278
f 279 275 281
f 279 281 280
f 280 281 282
f 280 282 278
f 281 275 283
f 281 283 282
f 282 283 284
f 282 284 278
f 283 275 285
f 283 285 284
f 284 285 286
f 284 286 278
f 285 275 287
f 285 287 286
f 286 287 288
f 286 288 278
f 287 275 289
f 287 289 288
f 288 289 290
f 288 290 278
f 289 275 291
f 289 291 290
f 290 291 292
f 290 292 278
f 291 275 293
f 291 293 292
f 292 293 294
f 292 294 278
f 293 275 295
f 293 295 294
f 294 295 296
f 294 296 278
f 295 275 297
f 295 297 296
f 296 297 298
f 296 298 278
f 297 275 299
f 297 299 298
f 298 299 300
f 298 300 278
f 299 275 301
f 299 301 300
f 300 301 302
f 300 302 278
f 301 275 303
f 301 303 302
f 302 303 304
f 302 304 278
f 303 275 305
f 303 305 304
f 304 305 306
f 304 306 278
f 305 275 307
f 305 307 306
f 306 307 308
f 306 308 278
f 307 275 309
f 307 309 308
f 308 309 310
f 308 310 278
f 309 275 311
f 309 311 310
f 310 311 312
f 310 312 278
f 311 275 313
f 311 313 312
f 312 313 314
f 312 314 278
f 313 275 315
f 313 315 314
f 314 315 316
f 314 316 278
f 315 275 276
f 315 276 316
f 316 276 277
f 316 277 278
o RedGripCore
g RedGripCore
usemtl MAT_RedGripCore
v -0.083000 0.431939 -0.040020
v -0.083000 0.429358 -0.076930
v 0.083000 0.429358 -0.076930
v 0.083000 0.431939 -0.040020
v -0.083000 0.440890 -0.075921
v 0.083000 0.440890 -0.075921
v -0.083000 0.451546 -0.071398
v 0.083000 0.451546 -0.071398
v -0.083000 0.460283 -0.063803
v 0.083000 0.460283 -0.063803
v -0.083000 0.466245 -0.053881
v 0.083000 0.466245 -0.053881
v -0.083000 0.468849 -0.042601
v 0.083000 0.468849 -0.042601
v -0.083000 0.467840 -0.031069
v 0.083000 0.467840 -0.031069
v -0.083000 0.463317 -0.020413
v 0.083000 0.463317 -0.020413
v -0.083000 0.455722 -0.011677
v 0.083000 0.455722 -0.011677
v -0.083000 0.445799 -0.005714
v 0.083000 0.445799 -0.005714
v -0.083000 0.434520 -0.003110
v 0.083000 0.434520 -0.003110
v -0.083000 0.422988 -0.004119
v 0.083000 0.422988 -0.004119
v -0.083000 0.412332 -0.008642
v 0.083000 0.412332 -0.008642
v -0.083000 0.403595 -0.016237
v 0.083000 0.403595 -0.016237
v -0.083000 0.397633 -0.026160
v 0.083000 0.397633 -0.026160
v -0.083000 0.395029 -0.037439
v 0.083000 0.395029 -0.037439
v -0.083000 0.396038 -0.048971
v 0.083000 0.396038 -0.048971
v -0.083000 0.400561 -0.059627
v 0.083000 0.400561 -0.059627
v -0.083000 0.408156 -0.068364
v 0.083000 0.408156 -0.068364
v -0.083000 0.418079 -0.074326
v 0.083000 0.418079 -0.074326
f 318 317 321
f 318 321 319
f 319 321 322
f 319 322 320
f 321 317 323
f 321 323 322
f 322 323 324
f 322 324 320
f 323 317 325
f 323 325 324
f 324 325 326
f 324 326 320
f 325 317 327
f 325 327 326
f 326 327 328
f 326 328 320
f 327 317 329
f 327 329 328
f 328 329 330
f 328 330 320
f 329 317 331
f 329 331 330
f 330 331 332
f 330 332 320
f 331 317 333
f 331 333 332
f 332 333 334
f 332 334 320
f 333 317 335
f 333 335 334
f 334 335 336
f 334 336 320
f 335 317 337
f 335 337 336
f 336 337 338
f 336 338 320
f 337 317 339
f 337 339 338
f 338 339 340
f 338 340 320
f 339 317 341
f 339 341 340
f 340 341 342
f 340 342 320
f 341 317 343
f 341 343 342
f 342 343 344
f 342 344 320
f 343 317 345
f 343 345 344
f 344 345 346
f 344 346 320
f 345 317 347
f 345 347 346
f 346 347 348
f 346 348 320
f 347 317 349
f 347 349 348
f 348 349 350
f 348 350 320
f 349 317 351
f 349 351 350
f 350 351 352
f 350 352 320
f 351 317 353
f 351 353 352
f 352 353 354
f 352 354 320
f 353 317 355
f 353 355 354
f 354 355 356
f 354 356 320
f 355 317 357
f 355 357 356
f 356 357 358
f 356 358 320
f 357 317 318
f 357 318 358
f 358 318 319
f 358 319 320
o RedGripEnd_L
g RedGripEnd_L
usemtl MAT_RedGripEnd_L
v -0.102452 0.463336 -0.042216
v -0.063548 0.463336 -0.042216
v -0.102452 0.400542 -0.037825
v -0.063548 0.400542 -0.037825
v -0.083000 0.414730 -0.007266
v -0.083000 0.453539 -0.009980
v -0.083000 0.410339 -0.070061
v -0.083000 0.449148 -0.072774
v -0.051526 0.430582 -0.059425
v -0.051526 0.433296 -0.020616
v -0.114474 0.430582 -0.059425
v -0.114474 0.433296 -0.020616
v -0.083000 0.468849 -0.042601
v -0.083000 0.395029 -0.037439
v -0.094434 0.403369 -0.019477
v -0.071566 0.403369 -0.019477
v -0.094434 0.463090 -0.023653
v -0.071566 0.463090 -0.023653
v -0.083000 0.434520 -0.003110
v -0.094434 0.400788 -0.056387
v -0.071566 0.400788 -0.056387
v -0.094434 0.460509 -0.060563
v -0.071566 0.460509 -0.060563
v -0.083000 0.429358 -0.076930
v -0.053066 0.449596 -0.052716
v -0.053066 0.412686 -0.050135
v -0.064500 0.418445 -0.069083
v -0.064500 0.441257 -0.070678
v -0.053066 0.451191 -0.029905
v -0.053066 0.414282 -0.027324
v -0.064500 0.422621 -0.009362
v -0.064500 0.445433 -0.010957
v -0.046000 0.431939 -0.040020
v -0.112934 0.449596 -0.052716
v -0.112934 0.412686 -0.050135
v -0.101500 0.418445 -0.069083
v -0.101500 0.441257 -0.070678
v -0.112934 0.451191 -0.029905
v -0.112934 0.414282 -0.027324
v -0.101500 0.422621 -0.009362
v -0.101500 0.445433 -0.010957
v -0.120000 0.431939 -0.040020
v -0.093111 0.467444 -0.042503
v -0.072889 0.467444 -0.042503
v -0.093111 0.396434 -0.037537
v -0.072889 0.396434 -0.037537
v -0.099054 0.400769 -0.028201
v -0.088943 0.408144 -0.012317
v -0.089011 0.397514 -0.027863
v -0.066946 0.400769 -0.028201
v -0.077057 0.408144 -0.012317
v -0.076989 0.397514 -0.027863
v -0.083000 0.401898 -0.018420
v -0.099054 0.464451 -0.032654
v -0.088943 0.459358 -0.015898
v -0.089011 0.467721 -0.032773
v -0.066946 0.464451 -0.032654
v -0.077057 0.459358 -0.015898
v -0.076989 0.467721 -0.032773
v -0.083000 0.464693 -0.022811
v -0.083000 0.424335 -0.003810
v -0.083000 0.444508 -0.005220
v -0.099054 0.399427 -0.047386
v -0.088943 0.404520 -0.064142
v -0.089011 0.396157 -0.047268
v -0.066946 0.399427 -0.047386
v -0.077057 0.404520 -0.064142
v -0.076989 0.396157 -0.047268
v -0.083000 0.399185 -0.057229
v -0.099054 0.463109 -0.051839
v -0.088943 0.455734 -0.067723
v -0.089011 0.466364 -0.052177
v -0.066946 0.463109 -0.051839
v -0.077057 0.455734 -0.067723
v -0.076989 0.466364 -0.052177
v -0.083000 0.461979 -0.061620
v -0.083000 0.419370 -0.074820
v -0.083000 0.439542 -0.076230
v -0.057330 0.457437 -0.047761
v -0.051081 0.440412 -0.056706
v -0.061252 0.456242 -0.057495
v -0.057330 0.405612 -0.044137
v -0.051081 0.421227 -0.055364
v -0.061252 0.405440 -0.053943
v -0.073384 0.413698 -0.070741
v -0.057024 0.424220 -0.065213
v -0.067263 0.408468 -0.063904
v -0.073274 0.423488 -0.074704
v -0.057537 0.414723 -0.060617
v -0.073384 0.445727 -0.072981
v -0.057024 0.436077 -0.066042
v -0.067263 0.451858 -0.066938
v -0.073274 0.435481 -0.075543
v -0.057537 0.446121 -0.062813
v -0.063548 0.429743 -0.071418
v -0.057330 0.458266 -0.035904
v -0.051081 0.442651 -0.024676
v -0.061252 0.458438 -0.026098
v -0.051526 0.451344 -0.041377
v -0.057330 0.406441 -0.032280
v -0.051081 0.423466 -0.023335
v -0.061252 0.407636 -0.022545
v -0.051526 0.412534 -0.038663
v -0.073384 0.418151 -0.007059
v -0.057024 0.427801 -0.013998
v -0.067263 0.412020 -0.013102
v -0.073274 0.428397 -0.004497
v -0.057537 0.417757 -0.017227
v -0.073384 0.450180 -0.009299
v -0.057024 0.439658 -0.014827
v -0.067263 0.455410 -0.016136
v -0.073274 0.440390 -0.005336
v -0.057537 0.449155 -0.019423
v -0.063548 0.434134 -0.008623
v -0.047408 0.431234 -0.050106
v -0.047408 0.432644 -0.029934
v -0.047811 0.441222 -0.046695
v -0.047811 0.421817 -0.045338
v -0.047811 0.442061 -0.034702
v -0.047811 0.422656 -0.033345
v -0.108670 0.457437 -0.047761
v -0.114919 0.440412 -0.056706
v -0.104748 0.456242 -0.057495
v -0.108670 0.405612 -0.044137
v -0.114919 0.421227 -0.055364
v -0.104748 0.405440 -0.053943
v -0.092616 0.413698 -0.070741
v -0.108976 0.424220 -0.065213
v -0.098737 0.408468 -0.063904
v -0.092726 0.423488 -0.074704
v -0.108463 0.414723 -0.060617
v -0.092616 0.445727 -0.072981
v -0.108976 0.436077 -0.066042
v -0.098737 0.451858 -0.066938
v -0.092726 0.435481 -0.075543
v -0.108463 0.446121 -0.062813
v -0.102452 0.429743 -0.071418
v -0.108670 0.458266 -0.035904
v -0.114919 0.442651 -0.024676
v -0.104748 0.458438 -0.026098
v -0.114474 0.451344 -0.041377
v -0.108670 0.406441 -0.032280
v -0.114919 0.423466 -0.023335
v -0.104748 0.407636 -0.022545
v -0.114474 0.412534 -0.038663
v -0.092616 0.418151 -0.007059
v -0.108976 0.427801 -0.013998
v -0.098737 0.412020 -0.013102
v -0.092726 0.428397 -0.004497
v -0.108463 0.417757 -0.017227
v -0.092616 0.450180 -0.009299
v -0.108976 0.439658 -0.014827
v -0.098737 0.455410 -0.016136
v -0.092726 0.440390 -0.005336
v -0.108463 0.449155 -0.019423
v -0.102452 0.434134 -0.008623
v -0.118592 0.431234 -0.050106
v -0.118592 0.432644 -0.029934
v -0.118189 0.441222 -0.046695
v -0.118189 0.421817 -0.045338
v -0.118189 0.442061 -0.034702
v -0.118189 0.422656 -0.033345
f 359 496 412
f 496 396 498
f 412 498 375
f 496 498 412
f 396 497 513
f 497 370 510
f 513 510 399
f 497 510 513
f 375 511 413
f 511 399 509
f 413 509 364
f 511 509 413
f 396 513 498
f 513 399 511
f 498 511 375
f 513 511 498
f 359 412 401
f 412 375 414
f 401 414 371
f 412 414 401
f 375 413 418
f 413 364 416
f 418 416 376
f 413 416 418
f 371 417 402
f 417 376 415
f 402 415 360
f 417 415 402
f 375 418 414
f 418 376 417
f 414 417 371
f 418 417 414
f 359 401 428
f 401 371 430
f 428 430 380
f 401 430 428
f 371 402 433
f 402 360 431
f 433 431 381
f 402 431 433
f 380 434 429
f 434 381 432
f 429 432 366
f 434 432 429
f 371 433 430
f 433 381 434
f 430 434 380
f 433 434 430
f 359 428 479
f 428 380 481
f 479 481 392
f 428 481 479
f 380 429 492
f 429 366 490
f 492 490 395
f 429 490 492
f 392 494 480
f 494 395 491
f 480 491 369
f 494 491 480
f 380 492 481
f 492 395 494
f 481 494 392
f 492 494 481
f 359 479 496
f 479 392 499
f 496 499 396
f 479 499 496
f 392 480 517
f 480 369 515
f 517 515 400
f 480 515 517
f 396 519 497
f 519 400 516
f 497 516 370
f 519 516 497
f 392 517 499
f 517 400 519
f 499 519 396
f 517 519 499
f 360 415 454
f 415 376 456
f 454 456 387
f 415 456 454
f 376 416 469
f 416 364 467
f 469 467 390
f 416 467 469
f 387 471 455
f 471 390 468
f 455 468 368
f 471 468 455
f 376 469 456
f 469 390 471
f 456 471 387
f 469 471 456
f 364 509 420
f 509 399 512
f 420 512 377
f 509 512 420
f 399 510 514
f 510 370 505
f 514 505 398
f 510 505 514
f 377 507 419
f 507 398 504
f 419 504 363
f 507 504 419
f 399 514 512
f 514 398 507
f 512 507 377
f 514 507 512
f 370 516 501
f 516 400 520
f 501 520 397
f 516 520 501
f 400 515 518
f 515 369 483
f 518 483 393
f 515 483 518
f 397 503 500
f 503 393 482
f 500 482 361
f 503 482 500
f 400 518 520
f 518 393 503
f 520 503 397
f 518 503 520
f 369 491 486
f 491 395 495
f 486 495 394
f 491 495 486
f 395 490 493
f 490 366 436
f 493 436 382
f 490 436 493
f 394 488 485
f 488 382 435
f 485 435 365
f 488 435 485
f 395 493 495
f 493 382 488
f 495 488 394
f 493 488 495
f 366 432 448
f 432 381 450
f 448 450 386
f 432 450 448
f 381 431 439
f 431 360 437
f 439 437 383
f 431 437 439
f 386 452 449
f 452 383 438
f 449 438 367
f 452 438 449
f 381 439 450
f 439 383 452
f 450 452 386
f 439 452 450
f 362 458 408
f 458 388 460
f 408 460 374
f 458 460 408
f 388 459 466
f 459 368 463
f 466 463 389
f 459 463 466
f 374 464 409
f 464 389 462
f 409 462 363
f 464 462 409
f 388 466 460
f 466 389 464
f 460 464 374
f 466 464 460
f 362 408 404
f 408 374 410
f 404 410 372
f 408 410 404
f 374 409 411
f 409 363 406
f 411 406 373
f 409 406 411
f 372 407 403
f 407 373 405
f 403 405 361
f 407 405 403
f 374 411 410
f 411 373 407
f 410 407 372
f 411 407 410
f 362 404 424
f 404 372 426
f 424 426 379
f 404 426 424
f 372 403 423
f 403 361 421
f 423 421 378
f 403 421 423
f 379 427 425
f 427 378 422
f 425 422 365
f 427 422 425
f 372 423 426
f 423 378 427
f 426 427 379
f 423 427 426
f 362 424 440
f 424 379 442
f 440 442 384
f 424 442 440
f 379 425 445
f 425 365 443
f 445 443 385
f 425 443 445
f 384 447 441
f 447 385 444
f 441 444 367
f 447 444 441
f 379 445 442
f 445 385 447
f 442 447 384
f 445 447 442
f 362 440 458
f 440 384 461
f 458 461 388
f 440 461 458
f 384 441 476
f 441 367 473
f 476 473 391
f 441 473 476
f 388 478 459
f 478 391 474
f 459 474 368
f 478 474 459
f 384 476 461
f 476 391 478
f 461 478 388
f 476 478 461
f 363 462 419
f 462 389 465
f 419 465 377
f 462 465 419
f 389 463 472
f 463 368 468
f 472 468 390
f 463 468 472
f 377 470 420
f 470 390 467
f 420 467 364
f 470 467 420
f 389 472 465
f 472 390 470
f 465 470 377
f 472 470 465
f 361 405 500
f 405 373 502
f 500 502 397
f 405 502 500
f 373 406 506
f 406 363 504
f 506 504 398
f 406 504 506
f 397 508 501
f 508 398 505
f 501 505 370
f 508 505 501
f 373 506 502
f 506 398 508
f 502 508 397
f 506 508 502
f 365 422 485
f 422 378 487
f 485 487 394
f 422 487 485
f 378 421 484
f 421 361 482
f 484 482 393
f 421 482 484
f 394 489 486
f 489 393 483
f 486 483 369
f 489 483 486
f 378 484 487
f 484 393 489
f 487 489 394
f 484 489 487
f 367 444 449
f 444 385 453
f 449 453 386
f 444 453 449
f 385 443 446
f 443 365 435
f 446 435 382
f 443 435 446
f 386 451 448
f 451 382 436
f 448 436 366
f 451 436 448
f 385 446 453
f 446 382 451
f 453 451 386
f 446 451 453
f 368 474 455
f 474 391 477
f 455 477 387
f 474 477 455
f 391 473 475
f 473 367 438
f 475 438 383
f 473 438 475
f 387 457 454
f 457 383 437
f 454 437 360
f 457 437 454
f 391 475 477
f 475 383 457
f 477 457 387
f 475 457 477
o RedGripEnd_R
g RedGripEnd_R
usemtl MAT_RedGripEnd_R
v 0.063548 0.463336 -0.042216
v 0.102452 0.463336 -0.042216
v 0.063548 0.400542 -0.037825
v 0.102452 0.400542 -0.037825
v 0.083000 0.414730 -0.007266
v 0.083000 0.453539 -0.009980
v 0.083000 0.410339 -0.070061
v 0.083000 0.449148 -0.072774
v 0.114474 0.430582 -0.059425
v 0.114474 0.433296 -0.020616
v 0.051526 0.430582 -0.059425
v 0.051526 0.433296 -0.020616
v 0.083000 0.468849 -0.042601
v 0.083000 0.395029 -0.037439
v 0.071566 0.403369 -0.019477
v 0.094434 0.403369 -0.019477
v 0.071566 0.463090 -0.023653
v 0.094434 0.463090 -0.023653
v 0.083000 0.434520 -0.003110
v 0.071566 0.400788 -0.056387
v 0.094434 0.400788 -0.056387
v 0.071566 0.460509 -0.060563
v 0.094434 0.460509 -0.060563
v 0.083000 0.429358 -0.076930
v 0.112934 0.449596 -0.052716
v 0.112934 0.412686 -0.050135
v 0.101500 0.418445 -0.069083
v 0.101500 0.441257 -0.070678
v 0.112934 0.451191 -0.029905
v 0.112934 0.414282 -0.027324
v 0.101500 0.422621 -0.009362
v 0.101500 0.445433 -0.010957
v 0.120000 0.431939 -0.040020
v 0.053066 0.449596 -0.052716
v 0.053066 0.412686 -0.050135
v 0.064500 0.418445 -0.069083
v 0.064500 0.441257 -0.070678
v 0.053066 0.451191 -0.029905
v 0.053066 0.414282 -0.027324
v 0.064500 0.422621 -0.009362
v 0.064500 0.445433 -0.010957
v 0.046000 0.431939 -0.040020
v 0.072889 0.467444 -0.042503
v 0.093111 0.467444 -0.042503
v 0.072889 0.396434 -0.037537
v 0.093111 0.396434 -0.037537
v 0.066946 0.400769 -0.028201
v 0.077057 0.408144 -0.012317
v 0.076989 0.397514 -0.027863
v 0.099054 0.400769 -0.028201
v 0.088943 0.408144 -0.012317
v 0.089011 0.397514 -0.027863
v 0.083000 0.401898 -0.018420
v 0.066946 0.464451 -0.032654
v 0.077057 0.459358 -0.015898
v 0.076989 0.467721 -0.032773
v 0.099054 0.464451 -0.032654
v 0.088943 0.459358 -0.015898
v 0.089011 0.467721 -0.032773
v 0.083000 0.464693 -0.022811
v 0.083000 0.424335 -0.003810
v 0.083000 0.444508 -0.005220
v 0.066946 0.399427 -0.047386
v 0.077057 0.404520 -0.064142
v 0.076989 0.396157 -0.047268
v 0.099054 0.399427 -0.047386
v 0.088943 0.404520 -0.064142
v 0.089011 0.396157 -0.047268
v 0.083000 0.399185 -0.057229
v 0.066946 0.463109 -0.051839
v 0.077057 0.455734 -0.067723
v 0.076989 0.466364 -0.052177
v 0.099054 0.463109 -0.051839
v 0.088943 0.455734 -0.067723
v 0.089011 0.466364 -0.052177
v 0.083000 0.461979 -0.061620
v 0.083000 0.419370 -0.074820
v 0.083000 0.439542 -0.076230
v 0.108670 0.457437 -0.047761
v 0.114919 0.440412 -0.056706
v 0.104748 0.456242 -0.057495
v 0.108670 0.405612 -0.044137
v 0.114919 0.421227 -0.055364
v 0.104748 0.405440 -0.053943
v 0.092616 0.413698 -0.070741
v 0.108976 0.424220 -0.065213
v 0.098737 0.408468 -0.063904
v 0.092726 0.423488 -0.074704
v 0.108463 0.414723 -0.060617
v 0.092616 0.445727 -0.072981
v 0.108976 0.436077 -0.066042
v 0.098737 0.451858 -0.066938
v 0.092726 0.435481 -0.075543
v 0.108463 0.446121 -0.062813
v 0.102452 0.429743 -0.071418
v 0.108670 0.458266 -0.035904
v 0.114919 0.442651 -0.024676
v 0.104748 0.458438 -0.026098
v 0.114474 0.451344 -0.041377
v 0.108670 0.406441 -0.032280
v 0.114919 0.423466 -0.023335
v 0.104748 0.407636 -0.022545
v 0.114474 0.412534 -0.038663
v 0.092616 0.418151 -0.007059
v 0.108976 0.427801 -0.013998
v 0.098737 0.412020 -0.013102
v 0.092726 0.428397 -0.004497
v 0.108463 0.417757 -0.017227
v 0.092616 0.450180 -0.009299
v 0.108976 0.439658 -0.014827
v 0.098737 0.455410 -0.016136
v 0.092726 0.440390 -0.005336
v 0.108463 0.449155 -0.019423
v 0.102452 0.434134 -0.008623
v 0.118592 0.431234 -0.050106
v 0.118592 0.432644 -0.029934
v 0.118189 0.441222 -0.046695
v 0.118189 0.421817 -0.045338
v 0.118189 0.442061 -0.034702
v 0.118189 0.422656 -0.033345
v 0.057330 0.457437 -0.047761
v 0.051081 0.440412 -0.056706
v 0.061252 0.456242 -0.057495
v 0.057330 0.405612 -0.044137
v 0.051081 0.421227 -0.055364
v 0.061252 0.405440 -0.053943
v 0.073384 0.413698 -0.070741
v 0.057024 0.424220 -0.065213
v 0.067263 0.408468 -0.063904
v 0.073274 0.423488 -0.074704
v 0.057537 0.414723 -0.060617
v 0.073384 0.445727 -0.072981
v 0.057024 0.436077 -0.066042
v 0.067263 0.451858 -0.066938
v 0.073274 0.435481 -0.075543
v 0.057537 0.446121 -0.062813
v 0.063548 0.429743 -0.071418
v 0.057330 0.458266 -0.035904
v 0.051081 0.442651 -0.024676
v 0.061252 0.458438 -0.026098
v 0.051526 0.451344 -0.041377
v 0.057330 0.406441 -0.032280
v 0.051081 0.423466 -0.023335
v 0.061252 0.407636 -0.022545
v 0.051526 0.412534 -0.038663
v 0.073384 0.418151 -0.007059
v 0.057024 0.427801 -0.013998
v 0.067263 0.412020 -0.013102
v 0.073274 0.428397 -0.004497
v 0.057537 0.417757 -0.017227
v 0.073384 0.450180 -0.009299
v 0.057024 0.439658 -0.014827
v 0.067263 0.455410 -0.016136
v 0.073274 0.440390 -0.005336
v 0.057537 0.449155 -0.019423
v 0.063548 0.434134 -0.008623
v 0.047408 0.431234 -0.050106
v 0.047408 0.432644 -0.029934
v 0.047811 0.441222 -0.046695
v 0.047811 0.421817 -0.045338
v 0.047811 0.442061 -0.034702
v 0.047811 0.422656 -0.033345
f 521 658 574
f 658 558 660
f 574 660 537
f 658 660 574
f 558 659 675
f 659 532 672
f 675 672 561
f 659 672 675
f 537 673 575
f 673 561 671
f 575 671 526
f 673 671 575
f 558 675 660
f 675 561 673
f 660 673 537
f 675 673 660
f 521 574 563
f 574 537 576
f 563 576 533
f 574 576 563
f 537 575 580
f 575 526 578
f 580 578 538
f 575 578 580
f 533 579 564
f 579 538 577
f 564 577 522
f 579 577 564
f 537 580 576
f 580 538 579
f 576 579 533
f 580 579 576
f 521 563 590
f 563 533 592
f 590 592 542
f 563 592 590
f 533 564 595
f 564 522 593
f 595 593 543
f 564 593 595
f 542 596 591
f 596 543 594
f 591 594 528
f 596 594 591
f 533 595 592
f 595 543 596
f 592 596 542
f 595 596 592
f 521 590 641
f 590 542 643
f 641 643 554
f 590 643 641
f 542 591 654
f 591 528 652
f 654 652 557
f 591 652 654
f 554 656 642
f 656 557 653
f 642 653 531
f 656 653 642
f 542 654 643
f 654 557 656
f 643 656 554
f 654 656 643
f 521 641 658
f 641 554 661
f 658 661 558
f 641 661 658
f 554 642 679
f 642 531 677
f 679 677 562
f 642 677 679
f 558 681 659
f 681 562 678
f 659 678 532
f 681 678 659
f 554 679 661
f 679 562 681
f 661 681 558
f 679 681 661
f 522 577 616
f 577 538 618
f 616 618 549
f 577 618 616
f 538 578 631
f 578 526 629
f 631 629 552
f 578 629 631
f 549 633 617
f 633 552 630
f 617 630 530
f 633 630 617
f 538 631 618
f 631 552 633
f 618 633 549
f 631 633 618
f 526 671 582
f 671 561 674
f 582 674 539
f 671 674 582
f 561 672 676
f 672 532 667
f 676 667 560
f 672 667 676
f 539 669 581
f 669 560 666
f 581 666 525
f 669 666 581
f 561 676 674
f 676 560 669
f 674 669 539
f 676 669 674
f 532 678 663
f 678 562 682
f 663 682 559
f 678 682 663
f 562 677 680
f 677 531 645
f 680 645 555
f 677 645 680
f 559 665 662
f 665 555 644
f 662 644 523
f 665 644 662
f 562 680 682
f 680 555 665
f 682 665 559
f 680 665 682
f 531 653 648
f 653 557 657
f 648 657 556
f 653 657 648
f 557 652 655
f 652 528 598
f 655 598 544
f 652 598 655
f 556 650 647
f 650 544 597
f 647 597 527
f 650 597 647
f 557 655 657
f 655 544 650
f 657 650 556
f 655 650 657
f 528 594 610
f 594 543 612
f 610 612 548
f 594 612 610
f 543 593 601
f 593 522 599
f 601 599 545
f 593 599 601
f 548 614 611
f 614 545 600
f 611 600 529
f 614 600 611
f 543 601 612
f 601 545 614
f 612 614 548
f 601 614 612
f 524 620 570
f 620 550 622
f 570 622 536
f 620 622 570
f 550 621 628
f 621 530 625
f 628 625 551
f 621 625 628
f 536 626 571
f 626 551 624
f 571 624 525
f 626 624 571
f 550 628 622
f 628 551 626
f 622 626 536
f 628 626 622
f 524 570 566
f 570 536 572
f 566 572 534
f 570 572 566
f 536 571 573
f 571 525 568
f 573 568 535
f 571 568 573
f 534 569 565
f 569 535 567
f 565 567 523
f 569 567 565
f 536 573 572
f 573 535 569
f 572 569 534
f 573 569 572
f 524 566 586
f 566 534 588
f 586 588 541
f 566 588 586
f 534 565 585
f 565 523 583
f 585 583 540
f 565 583 585
f 541 589 587
f 589 540 584
f 587 584 527
f 589 584 587
f 534 585 588
f 585 540 589
f 588 589 541
f 585 589 588
f 524 586 602
f 586 541 604
f 602 604 546
f 586 604 602
f 541 587 607
f 587 527 605
f 607 605 547
f 587 605 607
f 546 609 603
f 609 547 606
f 603 606 529
f 609 606 603
f 541 607 604
f 607 547 609
f 604 609 546
f 607 609 604
f 524 602 620
f 602 546 623
f 620 623 550
f 602 623 620
f 546 603 638
f 603 529 635
f 638 635 553
f 603 635 638
f 550 640 621
f 640 553 636
f 621 636 530
f 640 636 621
f 546 638 623
f 638 553 640
f 623 640 550
f 638 640 623
f 525 624 581
f 624 551 627
f 581 627 539
f 624 627 581
f 551 625 634
f 625 530 630
f 634 630 552
f 625 630 634
f 539 632 582
f 632 552 629
f 582 629 526
f 632 629 582
f 551 634 627
f 634 552 632
f 627 632 539
f 634 632 627
f 523 567 662
f 567 535 664
f 662 664 559
f 567 664 662
f 535 568 668
f 568 525 666
f 668 666 560
f 568 666 668
f 559 670 663
f 670 560 667
f 663 667 532
f 670 667 663
f 535 668 664
f 668 560 670
f 664 670 559
f 668 670 664
f 527 584 647
f 584 540 649
f 647 649 556
f 584 649 647
f 540 583 646
f 583 523 644
f 646 644 555
f 583 644 646
f 556 651 648
f 651 555 645
f 648 645 531
f 651 645 648
f 540 646 649
f 646 555 651
f 649 651 556
f 646 651 649
f 529 606 611
f 606 547 615
f 611 615 548
f 606 615 611
f 547 605 608
f 605 527 597
f 608 597 544
f 605 597 608
f 548 613 610
f 613 544 598
f 610 598 528
f 613 598 610
f 547 608 615
f 608 544 613
f 615 613 548
f 608 613 615
f 530 636 617
f 636 553 639
f 617 639 549
f 636 639 617
f 553 635 637
f 635 529 600
f 637 600 545
f 635 600 637
f 549 619 616
f 619 545 599
f 616 599 522
f 619 599 616
f 553 637 639
f 637 545 619
f 639 619 549
f 637 619 639
o GripEndMark_L
g GripEndMark_L
usemtl MAT_GripEndMark_L
v -0.122000 0.431939 -0.040020
v -0.122000 0.430683 -0.057976
v -0.117000 0.430683 -0.057976
v -0.117000 0.431939 -0.040020
v -0.122000 0.437650 -0.057090
v -0.117000 0.437650 -0.057090
v -0.122000 0.443748 -0.053605
v -0.117000 0.443748 -0.053605
v -0.122000 0.448048 -0.048052
v -0.117000 0.448048 -0.048052
v -0.122000 0.449895 -0.041276
v -0.117000 0.449895 -0.041276
v -0.122000 0.449009 -0.034309
v -0.117000 0.449009 -0.034309
v -0.122000 0.445524 -0.028211
v -0.117000 0.445524 -0.028211
v -0.122000 0.439971 -0.023911
v -0.117000 0.439971 -0.023911
v -0.122000 0.433195 -0.022064
v -0.117000 0.433195 -0.022064
v -0.122000 0.426227 -0.022950
v -0.117000 0.426227 -0.022950
v -0.122000 0.420130 -0.026435
v -0.117000 0.420130 -0.026435
v -0.122000 0.415830 -0.031989
v -0.117000 0.415830 -0.031989
v -0.122000 0.413983 -0.038765
v -0.117000 0.413983 -0.038765
v -0.122000 0.414869 -0.045732
v -0.117000 0.414869 -0.045732
v -0.122000 0.418354 -0.051829
v -0.117000 0.418354 -0.051829
v -0.122000 0.423907 -0.056129
v -0.117000 0.423907 -0.056129
f 684 683 687
f 684 687 685
f 685 687 688
f 685 688 686
f 687 683 689
f 687 689 688
f 688 689 690
f 688 690 686
f 689 683 691
f 689 691 690
f 690 691 692
f 690 692 686
f 691 683 693
f 691 693 692
f 692 693 694
f 692 694 686
f 693 683 695
f 693 695 694
f 694 695 696
f 694 696 686
f 695 683 697
f 695 697 696
f 696 697 698
f 696 698 686
f 697 683 699
f 697 699 698
f 698 699 700
f 698 700 686
f 699 683 701
f 699 701 700
f 700 701 702
f 700 702 686
f 701 683 703
f 701 703 702
f 702 703 704
f 702 704 686
f 703 683 705
f 703 705 704
f 704 705 706
f 704 706 686
f 705 683 707
f 705 707 706
f 706 707 708
f 706 708 686
f 707 683 709
f 707 709 708
f 708 709 710
f 708 710 686
f 709 683 711
f 709 711 710
f 710 711 712
f 710 712 686
f 711 683 713
f 711 713 712
f 712 713 714
f 712 714 686
f 713 683 715
f 713 715 714
f 714 715 716
f 714 716 686
f 715 683 684
f 715 684 716
f 716 684 685
f 716 685 686
o GripEndMark_R
g GripEndMark_R
usemtl MAT_GripEndMark_R
v 0.117000 0.431939 -0.040020
v 0.117000 0.430683 -0.057976
v 0.122000 0.430683 -0.057976
v 0.122000 0.431939 -0.040020
v 0.117000 0.437650 -0.057090
v 0.122000 0.437650 -0.057090
v 0.117000 0.443748 -0.053605
v 0.122000 0.443748 -0.053605
v 0.117000 0.448048 -0.048052
v 0.122000 0.448048 -0.048052
v 0.117000 0.449895 -0.041276
v 0.122000 0.449895 -0.041276
v 0.117000 0.449009 -0.034309
v 0.122000 0.449009 -0.034309
v 0.117000 0.445524 -0.028211
v 0.122000 0.445524 -0.028211
v 0.117000 0.439971 -0.023911
v 0.122000 0.439971 -0.023911
v 0.117000 0.433195 -0.022064
v 0.122000 0.433195 -0.022064
v 0.117000 0.426227 -0.022950
v 0.122000 0.426227 -0.022950
v 0.117000 0.420130 -0.026435
v 0.122000 0.420130 -0.026435
v 0.117000 0.415830 -0.031989
v 0.122000 0.415830 -0.031989
v 0.117000 0.413983 -0.038765
v 0.122000 0.413983 -0.038765
v 0.117000 0.414869 -0.045732
v 0.122000 0.414869 -0.045732
v 0.117000 0.418354 -0.051829
v 0.122000 0.418354 -0.051829
v 0.117000 0.423907 -0.056129
v 0.122000 0.423907 -0.056129
f 718 717 721
f 718 721 719
f 719 721 722
f 719 722 720
f 721 717 723
f 721 723 722
f 722 723 724
f 722 724 720
f 723 717 725
f 723 725 724
f 724 725 726
f 724 726 720
f 725 717 727
f 725 727 726
f 726 727 728
f 726 728 720
f 727 717 729
f 727 729 728
f 728 729 730
f 728 730 720
f 729 717 731
f 729 731 730
f 730 731 732
f 730 732 720
f 731 717 733
f 731 733 732
f 732 733 734
f 732 734 720
f 733 717 735
f 733 735 734
f 734 735 736
f 734 736 720
f 735 717 737
f 735 737 736
f 736 737 738
f 736 738 720
f 737 717 739
f 737 739 738
f 738 739 740
f 738 740 720
f 739 717 741
f 739 741 740
f 740 741 742
f 740 742 720
f 741 717 743
f 741 743 742
f 742 743 744
f 742 744 720
f 743 717 745
f 743 745 744
f 744 745 746
f 744 746 720
f 745 717 747
f 745 747 746
f 746 747 748
f 746 748 720
f 747 717 749
f 747 749 748
f 748 749 750
f 748 750 720
f 749 717 718
f 749 718 750
f 750 718 719
f 750 719 720
